<?xml version="1.0" encoding="UTF-8" standalone="no"?>
<!-- Created with Inkscape (http://www.inkscape.org/) -->

<svg
   version="1.1"
   id="svg1"
   width="1133.8533"
   height="1133.8533"
   viewBox="0 0 1133.8533 1133.8533"
   sodipodi:docname="玩偶的部落    天使小可爱_画板 1.eps"
   xmlns:inkscape="http://www.inkscape.org/namespaces/inkscape"
   xmlns:sodipodi="http://sodipodi.sourceforge.net/DTD/sodipodi-0.dtd"
   xmlns="http://www.w3.org/2000/svg"
   xmlns:svg="http://www.w3.org/2000/svg">
  <defs
     id="defs1" />
  <sodipodi:namedview
     id="namedview1"
     pagecolor="#ffffff"
     bordercolor="#000000"
     borderopacity="0.25"
     inkscape:showpageshadow="2"
     inkscape:pageopacity="0.0"
     inkscape:pagecheckerboard="0"
     inkscape:deskcolor="#d1d1d1">
    <inkscape:page
       x="0"
       y="0"
       inkscape:label="1"
       id="page1"
       width="1133.8533"
       height="1133.8533"
       margin="0"
       bleed="0" />
  </sodipodi:namedview>
  <g
     id="g1"
     inkscape:groupmode="layer"
     inkscape:label="1">
    <g
       id="group-R5">
      <text
         id="text2"
         xml:space="preserve"
         transform="matrix(1.3333333,0,0,1.3333333,-390.66667,226.924)"><tspan
           id="tspan2"
           style="font-variant:normal;font-weight:300;font-size:55.4978px;font-family:AdobeSongStd-Light-GBK-EUC-H;writing-mode:lr-tb;fill:#0e0f0e;fill-opacity:1;fill-rule:nonzero;stroke:none"
           x="0"
           y="0">玩偶的部落    </tspan></text>
      <path
         id="path2"
         d="M 8490,3.94141 H -0.429688 V 8493.84 H 8490 V 3.94141"
         style="fill:#f1c9d9;fill-opacity:1;fill-rule:nonzero;stroke:none"
         transform="matrix(0.13333333,0,0,-0.13333333,0,1133.8533)" />
      <path
         id="path3"
         d="m 2497.71,5604.77 c 16.02,-35.83 14.54,-74.71 19.59,-112.45 -3.89,-8.58 -7.78,-17.15 -11.67,-25.73 -15.87,35.47 -20.2,73.1 -20.86,111.42 4.31,8.92 8.62,17.84 12.94,26.76"
         style="fill:#cc2271;fill-opacity:1;fill-rule:nonzero;stroke:none"
         transform="matrix(0.13333333,0,0,-0.13333333,0,1133.8533)" />
      <path
         id="path4"
         d="m 3374.7,6274.5 c -22.51,-20.07 -49.81,-27.14 -83.21,-32.37 21.41,25.57 46.57,34.63 71.69,43.75 3.84,-3.79 7.68,-7.58 11.52,-11.38"
         style="fill:#cc2271;fill-opacity:1;fill-rule:nonzero;stroke:none"
         transform="matrix(0.13333333,0,0,-0.13333333,0,1133.8533)" />
      <path
         id="path5"
         d="m 2326.16,5505.27 c -9.87,5.41 -12.52,13.94 -9.27,24.06 0.64,1.99 6.44,4.55 7.99,3.65 10.66,-6.24 17.08,-15.07 13.49,-28.35 -4.07,0.21 -8.14,0.43 -12.21,0.64"
         style="fill:#cc2271;fill-opacity:1;fill-rule:nonzero;stroke:none"
         transform="matrix(0.13333333,0,0,-0.13333333,0,1133.8533)" />
      <path
         id="path6"
         d="m 2521.28,5927.71 c 13.53,9.17 8.32,24.71 12.59,37.03 18.77,-30.89 8.44,-59.59 -6.97,-94.3 -11.35,22.2 -8.53,39.73 -5.62,57.27"
         style="fill:#cc2271;fill-opacity:1;fill-rule:nonzero;stroke:none"
         transform="matrix(0.13333333,0,0,-0.13333333,0,1133.8533)" />
      <path
         id="path7"
         d="m 2286.73,5934.33 c 13.89,2.74 27.4,4.16 40.66,4.42 -13.26,-1.19 -26.99,-3.83 -40.66,-4.42 z m 128.96,217.56 c -6.07,22.45 -21.35,41.46 -28.03,64.81 12.23,-21.23 24.03,-41.63 28.03,-64.81 z m -162.12,-1656.5 c 20.04,18.22 43.1,30.51 79.64,42.57 -20.49,-33.45 -44.16,-43.48 -67.98,-53.33 -5.1,-3.08 -10.41,-5.88 -15.28,-9.29 -40.14,-28.06 -105.94,-33.59 -120.79,-77.76 -13.48,-40.07 9.47,-92.98 18.28,-139.87 23.51,-125.1 46.1,-250.44 73.2,-374.78 10.02,-45.96 31.62,-89.4 47.93,-133.99 28.67,-47.44 20.64,-108.07 66.93,-152.73 24.9,-24.02 7.91,-75.8 -5.62,-113.95 0,-37.28 0,-74.56 0,-111.84 -20.68,36.62 -23.45,74.25 -13.37,112.97 0.11,7.9 -0.85,15.98 0.49,23.67 17.13,98.62 15.93,100.63 -78.12,129.51 -11.03,3.39 -24.09,3.38 -30.45,15.9 -36.31,17.77 -54.45,52.28 -72.99,84.56 -38.8,67.54 -79.56,134.73 -110.03,206.12 -57.61,134.95 -137.02,247.33 -293.23,309.05 182.76,85.24 352.08,164.22 521.39,243.19 z m -160.81,432.57 c 0.47,0.43 3.92,2.57 3.92,2.57 0,0 -1.68,-1.76 -0.94,-1.31 -7.59,-9.29 -17.05,-16.68 -26.84,-23.8 7.68,8.3 15.07,17.86 23.86,22.54 z m -77.68,875.77 c 4.06,5.01 8.05,10.1 11.68,15.63 5.9,8.05 11.71,16.16 17.55,24.24 -6.91,-10.44 -13.86,-20.85 -21.78,-30.45 -2.32,-3.32 -4.95,-6.29 -7.45,-9.42 z m -130.44,-103.96 c -42.33,-32.51 -62.09,-68.78 -56.69,-106.93 -6.41,39.13 12.86,74 57.48,108.12 42.32,32.35 91.08,57.37 126.23,98.45 -35.22,-41.8 -84.38,-66.88 -127.02,-99.64 z m -9.52,-197.87 c 5,-14.5 5.01,-29.45 0.77,-47.07 -1.73,-7.19 -2.96,-14.31 -3.81,-21.37 -1.67,22.77 -1.69,45.56 3.04,68.44 z m -16.35,26.05 c -6.55,8.73 -12.06,17.22 -16.6,25.51 4.29,-7.36 9.5,-14.75 15.67,-22.19 3.1,-3.73 5.72,-7.39 8.11,-11.04 -2.61,2.57 -5.24,5.14 -7.18,7.72 z m 250.19,394.74 c -4.53,-8.9 -11.25,-17.39 -21.05,-25.38 -2.68,-2.18 -5.13,-4.54 -7.58,-6.91 6.33,7.43 12.92,14.66 19.92,21.62 3.5,3.46 6.37,7.03 8.71,10.67 z m 1.43,77.37 c 1.91,-7.98 3.56,-15.8 4.71,-23.47 -2.2,10.07 -5.39,20.22 -8.32,30.19 -6.99,23.77 -21.99,25.07 -41.5,13.74 -2.1,-0.54 -2.9,-3.22 -5.87,-1.98 24.27,15.7 42.63,16.24 50.98,-18.48 z M 1701.3,5793.03 c -6.25,-21.57 8.21,-47.37 -12.53,-65.48 -5.1,65.61 -2.97,127.92 67.69,153.95 -31.1,-28.95 -45.4,-54.78 -55.16,-88.47 z m 1150.47,-1035.6 c -85.36,13.21 -135.25,60.86 -152.87,145.1 -5.29,25.26 -15.24,49.66 -24.29,73.99 -38.95,104.76 -51.75,219.41 -112.32,315.6 -34.32,54.52 -51.5,111.86 -56.66,174.47 -5.19,37.47 9.47,78.66 -20.86,111.42 -8.67,63.53 -15.96,127.29 -26.4,190.53 -9.16,55.44 -20.57,110.92 -70.63,147.25 -9.3,12.46 -19.78,18.67 -30.98,21.49 14.64,-1.8 29.06,-5.12 43.36,-10.08 56.3,-31.43 64.28,-91.32 82.61,-151.39 73.15,64.13 107.58,141.82 116.89,228.48 13.09,121.93 83.32,194.24 188.59,242.49 40.86,18.73 97.05,20.84 88.57,92.84 -3.19,27.01 4.1,234.75 -6.47,263.51 -0.69,1.87 -0.94,3.92 -1.7,5.76 -6.16,15.13 -13.43,31.07 -32.41,30.14 -18.19,-0.9 -18.67,-19.43 -22.25,-31.84 -16.41,-56.72 -46.75,-105.81 -81.04,-152.83 -46.34,-63.53 -105.83,-114.73 -161.11,-169.79 -48.27,-48.07 -72.5,-104.08 -68.28,-172.71 0.7,-11.56 11.91,-27.4 -6.33,-36.6 -26.57,21.43 -52.83,42.63 -79.1,63.81 -0.03,0.37 -0.14,0.7 -0.17,1.07 32.94,48.83 27.48,82.63 -22.96,124.69 -32.15,26.81 -64.18,50.86 -80.44,93.32 -71.76,187.38 -253.02,229.49 -402.16,94.43 -19.65,-17.79 -39.31,-30.12 -65.3,-38.18 -51.19,-15.87 -73.42,-74.86 -37.55,-108.32 59.42,-55.39 39.64,-103.59 3.33,-157.89 -25.26,-37.76 -35.06,-77.25 10.22,-109.97 16.07,32.96 -0.12,75.16 25.96,100.4 9.65,-35.29 -0.87,-70.38 -22.05,-102.88 3.92,-31.73 -24.92,-36.92 -42.22,-50.44 -37.25,-29.1 -81.48,-49.07 -111.19,-88.03 -47.61,-62.43 -42.85,-125.12 13.53,-171.41 7.91,-26.95 -15.79,-38.75 -27.55,-55.88 -38.78,-56.47 -34.26,-104.97 18.96,-151.24 -8.12,40.17 -18,78.13 20.46,107.99 2.24,-37.53 18.21,-67.04 35.73,-96.53 15.1,-25.42 19.8,-53.3 -1.05,-78.58 -21.7,-26.33 -49.35,-41.12 -84.53,-33.3 -13.8,3.07 -26.84,9.57 -44.94,16.24 44.4,-54.63 62.34,-59.39 142.87,-41.56 -9.27,-108.38 23.92,-151.34 115.18,-149.12 -79.09,47.11 -87.76,76.84 -41.52,147.95 9.23,-36.75 24.7,-68.38 56.73,-89.04 2.83,17.65 2.99,35.28 1.99,52.9 5.75,-18.91 14.13,-37.35 24.51,-55.37 51.62,-127.05 59.08,-266.72 112.53,-393.25 13.85,-15.16 24.44,-18.28 33.5,-15.58 -8.92,-6.94 -17.31,-14.55 -23.91,-24.18 -9.42,-7.33 -18.61,-14.99 -28.31,-21.93 -188.04,-134.58 -364.28,-282.58 -513.69,-460.01 -58.78,-69.82 -57.97,-123.24 -2.42,-194.78 20.79,-26.79 45.39,-50.73 69.26,-74.98 132.18,-134.36 265.35,-267.75 396.89,-402.72 147,-150.85 247.81,-331.19 329.13,-523.57 7.31,-17.29 11.16,-48.14 34.04,-40.06 31.01,10.95 23.02,-5.53 22.78,-20.51 -0.91,-54.13 -2.88,-108.25 -2.8,-162.38 0.23,-146.36 -45.65,-289.47 -29.67,-437.03 6.26,-57.8 13.67,-116.73 -56.75,-147.82 -16.64,-7.36 -32.17,-30.52 1.33,-43.28 68.43,-26.07 171.93,31.4 172.8,103.8 1.06,87.34 33.6,152.52 96.94,209.97 49.51,44.9 47.93,74.5 -0.81,120.97 -36.75,35.04 -49.92,74.35 -46.36,123.74 6.96,96.3 25.42,190.8 46.03,284.54 42.73,194.39 67.02,386.11 -16.47,577.75 -25.33,58.13 -28.68,124.84 -23.39,189.54 15.38,187.89 26.29,375.92 24.72,564.57 -0.27,31.9 1.58,64.84 21.12,92.35 109.63,154.4 64.15,335.09 -86.68,463.72 -41.13,35.08 -85.03,67.33 -123.19,105.36 -69.32,69.09 -73.13,108.37 -36.3,198.75 17.82,43.71 53.31,80.73 51.91,131.97 4.58,9.53 8.37,3.86 12.21,-0.64 54.26,-221.15 142.29,-427.55 268.19,-617.7 15.31,-23.1 25.85,-49.6 36.85,-75.27 45.88,-107.04 106.66,-162.48 222.82,-200.7 -4.6,37.94 -45.6,50.96 -60.66,85.69 66.77,-18.16 67.38,-17.97 91.74,-98.93 5.56,-18.44 13.32,-31.51 33.31,-29.96 27.24,2.13 11.71,23.53 12.28,35.28 1.84,38.6 0.62,38.65 45.87,33.8 -53.17,41.74 -68.77,110.02 -137,120.59"
         style="fill:#cc2271;fill-opacity:1;fill-rule:nonzero;stroke:none"
         transform="matrix(0.13333333,0,0,-0.13333333,0,1133.8533)" />
      <path
         id="path8"
         d="m 2910.33,6109.05 c 57.07,26.59 116.47,46.02 172.55,73.32 -45.15,-51.8 -103.86,-74.33 -172.55,-73.32 z m 56.64,-85.51 c 22.71,19.47 47.73,36.03 69.07,56.42 -9.79,-36.27 -31.6,-56.66 -69.07,-56.42 z m -39.11,-91.42 c 63.54,-59.82 43.82,-101.37 -69.99,-142.43 16.39,-21.55 32.47,-43.38 13.46,-71.46 -21.12,-31.21 -49.28,-44.19 -85.81,-42.04 -13.14,-2.53 -22.84,2.62 -34.21,19.18 17.59,0 31.57,0 45.55,0 72.15,23.16 80.92,53.17 30.08,108.03 44.36,20.64 112.66,16.5 113.09,85.13 0.26,41.66 -44.54,36.64 -83.48,41.35 51.36,25.51 107.17,28.23 141.25,87.55 1.71,-61.31 -38.64,-69.33 -69.94,-85.31 z M 2766.55,5600.5 c -20.72,0.29 -6.3,15.87 -3.98,24.49 0.97,3.57 8.23,5.45 13.63,8.71 8.8,-16.45 0.24,-33.34 -9.65,-33.2 z m -96.23,-22.25 c 26.81,-5.73 50.94,5.77 86.25,17.56 -40.16,-34.68 -40.16,-34.68 -86.25,-17.56 z m 692.86,707.63 c 66.8,36.83 131.49,76.76 183.36,133.8 45.46,50 77.88,106.58 80.79,176.22 0.83,19.93 3.09,43.08 -19.84,51.84 -20.04,7.66 -32.64,-10.1 -45.37,-22.57 -162.02,-158.67 -356.47,-262.61 -568.52,-336.8 -67.94,-23.77 -135.6,-47.93 -199.36,-82.13 -83.45,-44.75 -134.04,-109.78 -143.89,-206.88 -8.2,-80.96 -29.49,-164.25 -93.74,-215.24 -62.92,-49.91 -75.98,-103.06 -58.73,-173.36 0.45,-1.87 -0.09,-3.99 -0.17,-5.99 1.16,-38.42 -5.25,-78.16 19.59,-112.45 8.36,-36.99 16.67,-73.99 25.08,-110.96 8.33,-36.67 30.54,-64.73 57.35,-89.32 18.39,-16.87 40.53,-30.3 64.6,-14 22.64,15.34 16.45,37.76 5.83,58.76 -2.9,5.74 -9.43,11.97 0.46,18.57 43.82,-37.93 87.69,-88.17 151.6,-52.19 60.66,34.14 15.17,79.33 -12.54,128.93 62.14,-31.73 111.53,-54.35 167.13,-34.78 52.63,18.53 61.78,55.96 23.13,95.3 -16.24,16.52 -35.68,29.91 -66.67,55.45 81.29,-25.57 146.24,-35.4 203.93,12.27 24.37,20.14 53.17,42.27 47.7,78.19 -5.59,36.69 -40.48,46.69 -70.47,57.26 -20.61,7.26 -42.59,10.61 -63.97,15.71 -16.83,3.81 -33.66,7.61 -50.49,11.41 25.72,12.46 50.33,17.21 74.21,0.66 68.52,-5.03 134.96,-0.38 190.61,46.3 24.27,20.35 55.67,44.84 45.5,77.33 -11.91,38.03 -51.81,11.42 -78.71,17.09 -56.32,-18.79 -113.56,-10.24 -170.97,-4.72 40.02,9.51 79.6,20.94 121.47,17.44 29.14,6.91 58.84,12.03 87.31,21.05 74.4,23.58 138.8,61.91 178.4,132.4 10.49,18.65 25.67,41.29 10.01,60.68 -15.43,19.1 -36.49,1.33 -54.89,-3.88 -55.53,-15.73 -108.88,-41.71 -168.95,-37.47 65.03,25.38 131.67,45.94 191.21,82.9 70.02,43.47 124.52,100.29 149.65,180.65 5.21,16.65 10.02,36.95 -5.33,50.95 -18.11,16.52 -34.17,-0.39 -48.16,-9.24 -47.26,-29.9 -94.57,-59.47 -146.63,-80.56 -16.3,-4.1 -32.16,-9.79 -38.07,-11.39 5.25,1.13 17.4,9.71 26.55,22.77"
         style="fill:#cc2271;fill-opacity:1;fill-rule:nonzero;stroke:none"
         transform="matrix(0.13333333,0,0,-0.13333333,0,1133.8533)" />
      <path
         id="path9"
         d="m 3670.73,4133.16 c -43.24,59.6 -74.79,127.38 -98.17,208.02 -19.86,-72.45 -49.08,-139.08 -87.65,-198.68 -60.77,-94.65 -146.08,-170.62 -248.92,-220.87 86.48,85.31 155.43,201.01 203.35,316.7 42.07,99.34 68.95,199.85 78.3,282.83 h -258.28 v 78.3 h 262.95 v 246.58 h -239.58 v 78.31 h 577.33 v -78.31 h -239.58 v -246.58 h 262.95 v -78.3 h -259.45 c 11.69,-91.17 45.58,-199.85 94.66,-306.19 49.09,-105.19 114.53,-208.03 192.83,-293.34 -104,63.1 -182.31,129.72 -240.74,211.53"
         style="fill:#cc2271;fill-opacity:1;fill-rule:nonzero;stroke:none"
         transform="matrix(0.13333333,0,0,-0.13333333,0,1133.8533)" />
      <path
         id="path10"
         d="m 4520.31,4639.19 v -177.63 h 78.3 v 177.63 z m -169.46,-177.63 h 78.3 v 177.63 h -78.3 z m 169.46,404.35 h 177.64 v -73.63 h -177.64 v -79.46 h 169.46 v -219.71 c 0,-42.07 -8.19,-74.8 -25.72,-101.68 -18.69,-26.87 -45.57,-46.75 -84.14,-63.11 7.01,19.87 10.52,38.57 14.03,59.6 h -73.63 c -2.34,-94.65 -24.54,-188.15 -67.78,-267.62 67.78,-81.81 158.93,-146.09 259.44,-197.5 -119.21,19.86 -220.88,67.78 -299.18,137.9 -49.08,-60.77 -115.7,-109.86 -203.35,-139.07 71.29,47.92 122.72,113.35 156.6,185.82 -52.58,60.77 -91.15,134.39 -114.53,215.03 h 100.51 c 10.52,-45.58 26.88,-87.65 47.92,-126.22 18.69,64.28 28.05,130.89 29.21,191.66 h -78.3 v -29.21 h -91.15 v 382.15 h 91.15 v -28.04 h 78.3 v 79.46 h -182.3 v 73.63 h 182.3 v 85.32 h 91.16 z m -309.69,-926.76 h -94.67 v 660.31 c -21.04,-21.04 -44.41,-40.91 -71.29,-59.6 40.91,72.45 65.45,141.4 80.64,213.86 12.85,61.94 19.87,126.22 22.2,197.51 h 101.68 c -3.51,-64.28 -14.02,-122.71 -30.39,-176.47 -18.69,-57.27 -45.58,-108.69 -84.14,-154.27 h 75.97 v -681.34"
         style="fill:#cc2271;fill-opacity:1;fill-rule:nonzero;stroke:none"
         transform="matrix(0.13333333,0,0,-0.13333333,0,1133.8533)" />
      <path
         id="path11"
         d="m 5371.04,4285.08 c -23.36,72.46 -36.23,151.93 -36.23,239.58 v 327.23 h 95.84 v -355.27 c 0,-60.78 1.17,-115.71 9.35,-174.14 10.52,-72.46 32.72,-150.76 78.3,-253.6 -75.97,57.27 -119.21,130.89 -147.26,216.2 z m -136.72,40.91 c 0,-81.81 -10.52,-163.61 -43.25,-233.74 -37.4,-78.3 -100.5,-140.23 -206.85,-172.96 53.76,46.75 93.49,107.52 119.2,176.47 21.04,58.43 32.72,121.54 32.72,185.82 v 669.65 h 98.18 z m -303.86,-3.51 c 8.18,58.43 9.34,113.36 9.34,174.14 v 355.27 h 95.83 v -327.23 c 0,-87.65 -9.34,-167.12 -32.71,-239.58 -28.05,-85.31 -74.79,-158.93 -150.76,-216.2 45.57,102.84 67.78,181.14 78.3,253.6"
         style="fill:#cc2271;fill-opacity:1;fill-rule:nonzero;stroke:none"
         transform="matrix(0.13333333,0,0,-0.13333333,0,1133.8533)" />
      <path
         id="path12"
         d="m 5827.95,4681.26 v -407.87 h 134.4 v 407.87 z m 0,74.8 h 230.23 v -456.95 c 0,-37.4 -9.35,-72.46 -30.39,-101.67 -18.69,-25.72 -46.75,-46.75 -85.31,-59.61 8.18,19.87 12.86,40.9 16.37,60.77 h -130.9 v -43.23 h -95.83 v 633.41 h 95.83 z m 409.04,93.49 v -517.72 c 0,-95.83 -10.52,-174.13 -42.08,-243.09 -29.21,-63.1 -77.13,-115.69 -151.92,-167.11 46.75,65.44 71.29,129.72 84.14,197.51 12.86,65.43 14.02,134.39 14.02,210.36 v 520.05 h -470.96 v 74.8 h 640.43 v -74.8 h -73.63"
         style="fill:#cc2271;fill-opacity:1;fill-rule:nonzero;stroke:none"
         transform="matrix(0.13333333,0,0,-0.13333333,0,1133.8533)" />
      <path
         id="path13"
         d="m 7073.71,4803.97 c -7.01,-35.05 -23.37,-61.93 -45.57,-79.46 -30.4,-24.55 -72.47,-33.9 -118.04,-36.23 36.23,30.38 52.59,66.61 52.59,115.69 z m -317.88,-71.28 c -18.69,17.52 -31.55,40.9 -36.23,71.28 h 111.03 c 0,-47.91 7.01,-77.13 37.4,-115.69 -44.42,5.84 -84.15,18.69 -112.2,44.41 z m 81.81,-618.23 c 52.59,52.59 91.16,109.85 109.85,160.1 h -252.43 l -14.02,-45.57 h 72.46 c 25.71,-43.24 53.76,-81.81 84.14,-114.53 z m -267.63,613.55 c -22.2,17.53 -37.39,42.07 -45.58,75.96 h 111.03 c 2.33,-40.9 28.05,-84.14 53.76,-115.69 -46.75,2.33 -88.82,14.02 -119.21,39.73 z m 4.68,-57.26 h 534.08 v -50.26 c 0,-33.89 -12.85,-57.26 -31.55,-74.79 -19.87,-17.53 -45.58,-28.05 -73.63,-36.23 9.35,25.71 15.19,63.1 15.19,86.48 h -444.09 v -79.47 h -89.99 v 176.47 h 89.99 z m 529.41,280.48 c -29.22,-77.13 -191.67,-104.01 -268.8,-113.36 -116.86,-12.86 -248.92,-7.02 -350.6,15.19 104.01,11.69 215.04,24.54 305.03,42.07 82.97,15.19 136.73,31.55 172.96,56.1 z M 6746.48,4564.4 c -1.17,-24.54 -3.5,-51.43 -7.01,-77.14 h 370.47 v -78.3 h -380.98 c -3.51,-19.86 -8.19,-38.56 -12.87,-58.43 h 344.77 c -9.36,-107.52 -73.63,-210.36 -170.63,-288.66 68.95,-59.6 148.42,-102.84 243.08,-141.41 -121.54,14.03 -220.88,47.91 -300.34,100.5 -78.3,-47.91 -170.63,-81.81 -269.97,-100.5 79.47,42.07 154.27,89.98 216.21,141.41 -44.41,39.74 -80.64,86.48 -108.69,140.23 -46.75,-114.52 -114.53,-218.53 -211.53,-280.47 56.1,92.32 97,182.31 128.56,281.65 19.86,64.27 35.06,130.88 45.58,205.68 H 6484.7 v 78.3 h 157.77 c 2.34,24.54 4.68,50.25 7.01,77.14 h 97"
         style="fill:#cc2271;fill-opacity:1;fill-rule:nonzero;stroke:none"
         transform="matrix(0.13333333,0,0,-0.13333333,0,1133.8533)" />
      <path
         id="path14"
         d="m 3400.46,3702.77 8.87,5.82 c 1.63,1.01 5.45,6.93 11.45,17.75 6.01,10.81 9.01,19.29 9.01,25.4 0,1.63 -0.2,3.26 -0.6,4.91 -5.91,-2.46 -9.38,-4.59 -10.39,-6.43 -1.02,-1.84 -5.2,-7.35 -12.53,-16.53 -7.33,-9.18 -11.1,-14.96 -11.31,-17.3 -0.19,-2.35 -1.83,-6.42 -4.88,-12.24 -3.06,-5.83 -4.69,-9.29 -4.89,-10.42 -0.21,-1.12 -1.18,-3.11 -2.9,-5.96 -1.74,-2.86 -2.6,-4.7 -2.6,-5.51 0,-0.82 0.4,-1.23 1.22,-1.23 9.57,8.57 15.08,14.24 16.5,16.99 1.42,2.76 2.44,4.34 3.05,4.75 z m -293.34,-334.59 -11.3,-5.21 c -2.45,-0.81 -3.67,-1.83 -3.67,-3.05 0.41,-0.41 0.82,-1.03 1.22,-1.84 3.47,-0.82 6.32,-1.99 8.55,-3.52 2.25,-1.53 4.69,-2.3 7.34,-2.3 l 8.55,-1.84 8.24,0.62 2.45,-1.23 c 0.82,0.41 3.36,2.15 7.63,5.2 0,0.41 0.21,0.62 0.62,0.62 l 7.32,-0.62 c 1.22,0.82 2.75,2 4.59,3.53 1.83,1.52 4.27,2.8 7.33,3.83 2.03,3.46 5.19,6.82 9.46,10.1 0.82,2.45 1.63,4.28 2.45,5.5 l 1.84,6.44 c -9.58,-0.82 -15.18,-1.44 -16.81,-1.85 l -22.6,-7.04 c -13.85,-4.28 -21.58,-6.73 -23.21,-7.34 z m 4.7,17.45 9.79,1.84 9.48,4.59 c 6.93,3.26 13.26,4.9 18.97,4.9 1.22,0 2.44,-0.62 3.67,-1.84 l 13.77,9.18 c 5.91,3.07 11.92,4.59 18.04,4.59 0.41,0 1.79,1.79 4.13,5.36 2.35,3.57 4.54,6.38 6.58,8.42 l 6.73,9.49 c 4.89,6.53 8.06,11.73 9.49,15.61 v 3.06 c 0,0.61 1.17,2.86 3.51,6.73 2.35,3.88 4.44,6.33 6.27,7.36 1.84,1.01 2.96,2.34 3.37,3.97 v 3.37 c 0,0.81 0.81,2.55 2.44,5.21 1.63,2.64 3.82,5.04 6.57,7.19 2.75,2.14 5.86,6.57 9.33,13.31 l 3.66,4.29 3.06,1.84 c 0.4,0.41 0.61,1.22 0.61,2.45 0,1.63 -0.21,2.96 -0.61,3.97 2.24,2.04 3.56,3.88 3.97,5.52 l 2.44,8.26 3.06,1.84 v 5.51 c 0,1.23 1.58,3.82 4.74,7.81 3.15,3.97 6.57,10.96 10.24,20.96 l 9.47,18.37 v 1.22 c -3.67,-1.64 -6.42,-3.05 -8.25,-4.28 l -8.56,-4.59 c -0.41,0 -2.29,-1.54 -5.66,-4.59 -3.36,-3.07 -6.46,-4.7 -9.31,-4.9 -5.1,-5.51 -10.45,-8.73 -16.05,-9.64 -5.6,-0.92 -9.53,-2.3 -11.77,-4.13 l -3.67,-1.84 c -0.82,0 -2.04,-0.62 -3.67,-1.85 -1.64,-1.22 -2.86,-1.83 -3.68,-1.83 -1.83,0 -4.39,1.23 -7.65,3.68 h -1.22 v -2.45 c 0,-3.27 -0.87,-5.11 -2.61,-5.51 -1.73,-0.42 -3.52,-0.98 -5.35,-1.69 -1.84,-0.71 -3.17,-1.07 -3.98,-1.07 -5.92,0 -9.29,1.48 -10.1,4.44 -0.82,2.96 -1.84,4.94 -3.07,5.97 -1.22,1.02 -1.83,2.24 -1.83,3.67 0,5.31 2.55,10.76 7.65,16.38 5.1,5.61 9.39,8.62 12.86,9.03 0.41,0 2.14,0.71 5.2,2.15 h 1.23 l 5.81,-1.54 c 4.49,-1.02 7.15,-2.1 7.96,-3.21 0.82,-1.12 1.84,-1.69 3.06,-1.69 l 5.2,0.62 4.29,-0.62 c 0.81,0 2.49,1.58 5.03,4.75 2.55,3.16 5.86,4.95 9.94,5.36 9.58,3.06 19.56,7.85 29.95,14.38 0.81,2.05 2.55,3.47 5.2,4.29 l 3.66,4.59 c 0,0.81 2.29,1.89 6.88,3.21 4.58,1.33 8.66,5 12.22,11.03 3.57,6.02 5.36,9.43 5.36,10.25 0,0.4 -0.21,1.22 -0.62,2.45 0.41,0.82 1.22,1.42 2.45,1.84 2.44,8.36 4.58,13.11 6.42,14.23 1.84,1.12 5.91,4.95 12.24,11.48 v 1.22 l -1.22,3.07 v 1.22 c 0,9.18 4.18,16.12 12.54,20.82 1.84,10.81 4.99,17.03 9.48,18.67 l 3.67,1.84 -1.22,9.49 c 0,1.63 2.14,2.85 6.42,3.67 l 1.84,0.92 11.32,19.89 c 2.23,4.29 5.1,6.44 8.56,6.44 0.4,0 0.92,-0.31 1.54,-0.93 h 1.22 c 1.63,0 2.45,0.93 2.45,2.77 0,0.4 -0.21,1.01 -0.62,1.83 v 1.84 c 0,4.48 3.62,9.59 10.86,15.3 7.24,5.71 15.75,8.57 25.55,8.57 2.03,0 5.96,-2.5 11.78,-7.5 5.81,-5.01 8.72,-12.6 8.72,-22.81 l -3.67,-11.63 c 1.22,-4.7 1.83,-7.25 1.83,-7.65 0,-1.64 -1.64,-2.86 -4.89,-3.68 -0.41,-0.41 -0.62,-1.73 -0.62,-3.97 0,-2.04 -0.46,-4.08 -1.37,-6.12 -0.92,-2.05 -1.78,-5.21 -2.6,-9.5 -0.41,0 -1.03,-0.41 -1.84,-1.22 l -5.5,-1.83 c -0.61,-5.32 -1.22,-8.07 -1.83,-8.28 h -1.52 l -3.37,-1.22 c -2.66,-0.82 -3.98,-2.04 -3.98,-3.67 0,-0.41 0.2,-1.64 0.61,-3.67 0.41,-0.41 0.61,-1.03 0.61,-1.84 0,-4.9 -4.99,-8.27 -14.98,-10.1 0.21,-3.26 -1.33,-6.08 -4.59,-8.42 -3.26,-2.34 -5.29,-4.34 -6.11,-5.97 l -14.68,-14.7 c -4.48,-4.49 -13.14,-10.3 -25.98,-17.44 -0.82,-1.43 -1.74,-4.09 -2.76,-7.96 -1.02,-3.88 -2.25,-6.64 -3.68,-8.27 l -11.02,-25.71 v -2.45 c 0,-2.04 -1.33,-3.98 -3.98,-5.81 v -4.29 c 0,-0.82 -1.23,-3.37 -3.68,-7.65 l -10.11,-24.8 c -2.45,-5.1 -4.64,-9.24 -6.58,-12.39 -1.95,-3.18 -3.42,-6.44 -4.44,-9.8 -1.03,-3.37 -2.55,-6.38 -4.6,-9.03 -2.04,-2.66 -3.47,-5.25 -4.28,-7.81 -0.82,-2.55 -4.39,-4.44 -10.72,-5.66 0.41,-0.82 1.32,-1.64 2.75,-2.45 1.43,-0.82 2.15,-1.64 2.15,-2.45 -0.82,-1.43 -1.43,-2.56 -1.84,-3.37 -0.41,-0.82 -0.87,-2.4 -1.38,-4.74 -0.51,-2.35 -1.18,-4.18 -1.99,-5.51 -0.82,-1.33 -1.74,-2.6 -2.75,-3.83 -1.03,-1.22 -1.95,-2.5 -2.77,-3.83 -0.81,-1.33 -1.83,-2.39 -3.05,-3.21 l -2.45,-6.43 -3.07,-2.45 c -0.41,0 -0.61,-0.6 -0.61,-1.83 0,-0.41 0.2,-1.03 0.61,-1.84 -2.67,-5.92 -5.02,-9.9 -7.06,-11.93 -0.41,-0.42 -0.62,-2.97 -0.62,-7.66 3.48,0 6.04,-0.41 7.68,-1.23 4.9,2.25 7.55,3.37 7.96,3.37 1.23,0 2.71,-0.35 4.44,-1.07 1.74,-0.72 2.81,-1.07 3.22,-1.07 l 4.9,2.14 7.03,-2.14 3.68,0.61 8.26,-0.61 4.9,1.53 5.21,-0.92 4.89,1.53 h 2.45 c 1.23,0 5.82,-0.71 13.78,-2.14 h 0.61 c 0.81,0 2.76,0.92 5.82,2.75 h 0.61 c 0.81,0 2.34,-0.36 4.59,-1.07 2.25,-0.71 3.98,-1.07 5.2,-1.07 l 7.67,0.92 14.38,-2.76 3.67,1.23 c 0.4,0 0.92,-0.21 1.54,-0.62 10.81,-1.42 22.85,-4.08 36.11,-7.95 l 9.49,-1.84 c 0.41,-0.41 1.43,-0.62 3.07,-0.62 2.03,0 4.59,0.82 7.64,2.46 10.41,-2.25 17.25,-4.8 20.51,-7.66 0.41,-0.41 1.69,-1.12 3.83,-2.14 2.15,-1.03 3.83,-2.14 5.06,-3.37 1.22,-1.22 3.82,-3.21 7.8,-5.97 3.98,-2.75 5.97,-5.96 5.97,-9.63 0,-11.23 -1.54,-19.4 -4.59,-24.5 -3.07,-5.1 -6.13,-7.65 -9.18,-7.65 -7.56,0 -17.15,3.78 -28.78,11.33 -1.64,2.45 -3.62,4.44 -5.97,5.96 -2.35,1.54 -3.73,3.72 -4.13,6.58 l -1.23,1.23 h -8.88 c -0.82,0 -2.04,0.61 -3.67,1.84 l -6.12,1.22 c -4.29,2.25 -6.84,3.78 -7.66,4.59 -0.81,0.82 -2.19,1.33 -4.13,1.53 -1.94,0.21 -3.72,0.92 -5.35,2.14 -3.27,0.21 -6.53,1.23 -9.79,3.07 h -6.44 l -1.84,1.22 c -0.82,2.66 -2.24,3.98 -4.28,3.98 h -2.76 l -2.44,0.61 h -5.52 l -4.59,3.07 h -1.22 l -4.29,-1.84 -6.42,2.45 -4.29,-1.83 c -7.15,0 -11.94,0.6 -14.39,1.83 l -4.89,-0.61 c -2.26,1.63 -3.58,2.45 -3.99,2.45 l -16.22,-2.45 -6.73,0.61 -6.43,-0.61 -2.45,1.83 c -0.21,-0.61 -1.59,-1.58 -4.14,-2.91 -2.55,-1.33 -7.6,-2.7 -15.17,-4.13 l -10.12,-1.83 -5.83,0.61 -3.68,-1.23 c -3.49,-6.93 -7.27,-11.33 -11.36,-13.16 -0.81,0 -1.43,-1.22 -1.83,-3.68 -0.41,-2.45 -1.79,-4.54 -4.13,-6.27 -2.34,-1.73 -4.13,-3.32 -5.35,-4.74 -1.22,-1.44 -2.54,-2.45 -3.97,-3.07 -1.42,-0.6 -3.31,-3.51 -5.65,-8.72 -2.34,-5.2 -6.16,-7.8 -11.45,-7.8 l -4.58,1.22 c 0.4,-0.82 1.02,-1.68 1.83,-2.6 0.82,-0.93 1.23,-1.8 1.23,-2.61 0,-3.67 -2.66,-5.5 -7.95,-5.5 -0.4,0 -1.88,-0.98 -4.43,-2.91 -2.54,-1.95 -5.85,-3.52 -9.92,-4.75 l -2.45,-2.45 c -1.02,-0.81 -2.95,-1.22 -5.8,-1.22 l -18.02,-7.04 h -0.61 l -4.58,0.92 c -0.41,0 -1.22,-0.31 -2.44,-0.92 h -6.11 c -1.43,0 -3.57,0.92 -6.42,2.75 l -4.27,-2.75 c -0.42,0.61 -2.76,1.53 -7.03,2.75 -5.3,0 -8.81,0.82 -10.54,2.45 -1.73,1.63 -3.01,2.45 -3.82,2.45 l -3.05,1.22 c -2.04,0.81 -4.43,1.33 -7.18,1.54 -2.75,0.19 -6.61,3.56 -11.61,10.1 -4.98,6.53 -7.48,11.42 -7.48,14.69 0,2.04 0.82,3.98 2.45,5.81 1.63,1.85 4.28,3.58 7.95,5.21 3.67,1.63 7.65,3.46 11.93,5.52 l 13.46,7.34"
         style="fill:#cc2271;fill-opacity:1;fill-rule:nonzero;stroke:none"
         transform="matrix(0.13333333,0,0,-0.13333333,0,1133.8533)" />
      <path
         id="path15"
         d="m 3618.12,3617.06 -1.84,11.93 v 1.84 c 0,9.59 3.26,14.9 9.79,15.92 1.43,0.2 5.72,1.53 12.87,3.98 3.67,-0.82 7.5,-4.04 11.47,-9.64 3.98,-5.62 5.98,-10.57 5.98,-14.86 0,-0.41 -0.32,-1.32 -0.92,-2.75 -0.62,-1.42 -1.03,-4.13 -1.23,-8.1 -0.21,-3.99 -2.2,-7.47 -5.97,-10.41 -3.78,-2.96 -7.8,-4.45 -12.09,-4.45 -2.86,0 -6.48,1.99 -10.87,5.97 -4.39,3.98 -6.78,7.5 -7.19,10.57 z M 3485.88,3464 l 4.9,4.28 h 1.84 c 1.42,0 3.57,1.53 6.43,4.6 l 3.07,1.22 c 4.08,6.12 7.66,9.68 10.72,10.71 l 4.91,3.67 c 0.81,0.82 1.99,1.53 3.52,2.15 1.53,0.6 3.98,2.6 7.35,5.97 3.37,3.37 6.08,5.05 8.13,5.05 2.04,0 3.68,-0.21 4.9,-0.61 1.22,2.44 3.67,4.84 7.35,7.19 3.69,2.34 6.64,5.15 8.89,8.42 l 3.99,1.83 c 3.27,1.63 6.18,3.72 8.73,6.28 2.55,2.55 5.87,3.83 9.96,3.83 5.92,0 12.11,-3.02 18.53,-9.03 6.43,-6.03 9.64,-11.79 9.64,-17.3 l -5.2,-23.88 c -3.47,-17.56 -7.35,-26.73 -11.64,-27.55 l -1.22,-6.43 c -2.86,-2.04 -4.28,-3.67 -4.28,-4.89 l 1.83,-7.35 c 0,-1.02 -1.12,-2.56 -3.37,-4.6 -0.41,0 -0.6,-0.6 -0.6,-1.83 v -12.55 c 0,-2.25 -1.44,-4.08 -4.29,-5.51 0.4,-0.41 1.02,-0.82 1.84,-1.23 1.22,1.23 3.97,1.85 8.26,1.85 l 4.89,-0.62 6.73,6.73 c 1.43,0.41 3.41,1.39 5.96,2.91 2.55,1.53 6.88,3.52 12.99,5.98 l 40.05,30.6 c 5.5,5.51 9.68,8.27 12.53,8.27 3.06,0 4.59,-1.94 4.59,-5.82 0,-4.49 -0.87,-8.21 -2.6,-11.17 -1.73,-2.96 -3.32,-6.53 -4.74,-10.71 -1.44,-4.19 -3.12,-7.1 -5.06,-8.73 -1.93,-1.63 -3.52,-3.42 -4.74,-5.35 -1.22,-1.95 -4.54,-4.75 -9.95,-8.42 -5.41,-3.67 -10,-7.4 -13.77,-11.17 -3.78,-3.78 -6.88,-6.49 -9.33,-8.12 l -13.16,-9.49 -1.83,-3.06 c -0.42,-0.41 -2.31,-1.28 -5.67,-2.61 -3.37,-1.32 -6.38,-3 -9.03,-5.04 l -5.51,-3.06 c -1.22,-0.82 -3.21,-1.34 -5.96,-1.53 -2.76,-0.21 -5.16,-1.38 -7.2,-3.53 -2.04,-2.14 -3.67,-3.21 -4.89,-3.21 l -4.59,0.61 -6.13,-1.83 c -3.46,0 -7.7,2.09 -12.7,6.27 -5,4.18 -7.5,8.62 -7.5,13.32 v 1.83 l 0.61,4.29 c 0,0.81 -0.61,2.91 -1.83,6.28 -1.23,3.36 -1.84,5.24 -1.84,5.65 l 0.61,4.29 -0.61,1.84 c 0,5.51 0.4,8.98 1.22,10.41 0.81,1.42 1.43,3.41 1.84,5.96 0.41,2.55 0.81,4.65 1.23,6.28 l 1.52,7.66 c 0.82,2.44 1.84,4.07 3.07,4.89 0.4,1.63 1.22,4.39 2.45,8.27 l 1.22,5.51 3.06,4.29 c 1.63,1.63 2.6,3.83 2.91,6.58 0.31,2.75 1.37,5.66 3.21,8.72 1.84,3.06 2.75,4.9 2.75,5.51 0,2.45 -1.22,3.67 -3.67,3.67 -0.81,0 -3.36,-1.63 -7.65,-4.89 l -5.51,1.83 c -0.41,0 -1.54,-1.02 -3.37,-3.06 0,-0.81 -0.92,-1.43 -2.76,-1.84 -1.83,-0.41 -3.57,-1.93 -5.2,-4.59 l -2.45,-0.61 -3.99,1.84 h -1.22 c -2.04,0 -3.27,-2.25 -3.67,-6.74 -2.25,-3.27 -5.21,-5.41 -8.89,-6.42 l -6.72,-1.84 c -2.26,-0.82 -3.89,-2.65 -4.91,-5.52 -1.02,-2.86 -3.06,-5.45 -6.12,-7.8 -3.07,-2.34 -5.11,-3.51 -6.12,-3.51 -5.73,0 -8.58,3.15 -8.58,9.48 l 2.45,14.39 -0.61,1.84"
         style="fill:#cc2271;fill-opacity:1;fill-rule:nonzero;stroke:none"
         transform="matrix(0.13333333,0,0,-0.13333333,0,1133.8533)" />
      <path
         id="path16"
         d="m 3764.9,3634.51 4.28,1.22 3.07,3.06 h 0.61 l 2.76,-1.23 h 0.6 c 4.9,0 9.25,0.97 13.06,2.91 3.8,1.94 6.99,3.31 9.57,4.13 2.58,0.81 4.18,1.43 4.79,1.84 0.63,0.41 1.14,0.62 1.56,0.62 l 4.94,-0.62 c 1.63,0 3.82,2.91 6.58,8.73 2.75,5.81 5.86,10.05 9.32,12.7 3.47,2.65 6.94,7.65 10.41,15 0.82,1.02 1.73,2.6 2.75,4.74 1.02,2.15 1.84,3.21 2.45,3.21 3.06,0 5.51,1.95 7.34,5.83 6.12,7.13 11.12,10.71 14.99,10.71 5.1,0 8.67,-4.89 10.71,-14.69 l 3.06,-11.64 c 0,-0.21 -0.51,-1.68 -1.53,-4.43 -1.02,-2.76 -1.48,-5.51 -1.38,-8.28 0.1,-2.75 0,-4.59 -0.3,-5.5 -0.31,-0.92 -0.47,-1.99 -0.47,-3.22 0,-1.63 1.74,-2.45 5.21,-2.45 1.23,0 3.46,0.82 6.74,2.45 l 1.83,0.62 c 2.04,-1.23 3.78,-1.84 5.21,-1.84 0.41,0 3.31,1.02 8.72,3.06 5.41,2.04 8.83,3.16 10.25,3.37 1.43,0.2 3.88,1.01 7.35,2.45 h 3.68 l 2.45,-0.92 c 0.81,0 2.49,0.86 5.05,2.6 2.55,1.73 7.39,2.8 14.54,3.21 l 4.28,1.84 h 1.23 c 6.73,0 10.1,-2.96 10.1,-8.88 0,-1.22 -0.97,-3.36 -2.91,-6.42 -1.94,-3.06 -3.52,-6.54 -4.74,-10.41 l -14.09,-17.76 c -4.69,-6.12 -9.38,-9.18 -14.08,-9.18 -0.82,0 -3.37,2.76 -7.65,8.26 0,0.41 -0.41,0.62 -1.22,0.62 -2.05,0 -4.19,-0.41 -6.43,-1.23 -2.26,-0.81 -4.09,-1.22 -5.52,-1.22 -0.6,0 -6.01,-1.54 -16.22,-4.59 l -7.34,-1.23 c -0.82,0 -2.76,-0.41 -5.82,-1.22 l -15.63,-3.06 c -5.31,-2.66 -9.5,-7.66 -12.56,-15 0,-0.41 -1.02,-1.34 -3.06,-2.75 l -13.79,-25.11 c -4.5,-1.22 -7.46,-3.88 -8.89,-7.96 l -1.23,-1.84 c -2.24,-0.41 -4.3,-1.68 -6.13,-3.82 -1.85,-2.14 -3.58,-3.83 -5.22,-5.05 l -5.51,-8.26 c -2.26,-2.87 -4.51,-5.98 -6.75,-9.34 -2.25,-3.37 -3.89,-6.94 -4.91,-10.72 -1.03,-3.78 -1.84,-5.97 -2.46,-6.59 -0.61,-0.6 -0.91,-1.72 -0.91,-3.35 l -0.92,-2.46 c -2.46,-2.45 -3.68,-5.2 -3.68,-8.26 l 1.23,-4.9 c -2.87,-9.79 -4.3,-15 -4.3,-15.61 0,-0.42 0.2,-1.53 0.62,-3.37 v -1.84 c 0,-4.49 -1.64,-10.1 -4.92,-16.84 l 0.62,-4.89 -1.84,-13.78 c 0,-1.83 0.61,-5.2 1.84,-10.1 -0.82,-0.82 -1.23,-1.43 -1.23,-1.83 0,-5.72 3.02,-11.99 9.05,-18.83 6.03,-6.85 9.04,-17.5 9.04,-31.99 0,-1.22 -0.31,-3.01 -0.91,-5.35 -0.62,-2.36 -1.03,-4.91 -1.23,-7.66 -0.21,-2.75 -1.79,-5.46 -4.76,-8.11 -2.96,-2.66 -5.46,-3.98 -7.51,-3.98 -10.83,0 -18.92,7.85 -24.23,23.57 -5.31,15.71 -7.97,25.82 -7.97,30.31 l 0.62,11.93 -1.85,6.12 1.85,26.95 -1.23,6.42 7.05,26.33 v 9.49 c 0,0.4 1.43,2.03 4.3,4.9 0,0.41 -0.41,0.61 -1.24,0.61 -1.22,0 -2.86,-1.23 -4.9,-3.67 -2.05,-2.45 -4.6,-4.81 -7.66,-7.04 l -2.46,-4.29 c -0.41,0.4 -1.23,0.81 -2.46,1.22 -1.02,-0.41 -4.39,-5.2 -10.11,-14.38 -4.3,-0.62 -7.67,-3.07 -10.13,-7.35 -2.45,-4.28 -5.82,-6.43 -10.11,-6.43 l -1.23,-0.61 c -0.82,-5.93 -3.68,-8.87 -8.59,-8.87 l -1.22,-0.62 c -3.07,-6.94 -6.24,-10.31 -9.51,-10.11 -2.04,-6.12 -7.05,-10.3 -15.03,-12.55 -1.22,-2.45 -3.01,-4.28 -5.36,-5.5 -2.36,-1.22 -4.04,-2.36 -5.06,-3.37 -1.03,-1.03 -1.95,-1.54 -2.77,-1.54 -2.65,0 -3.98,2.87 -3.98,8.58 0,1.63 0.66,3.42 1.99,5.36 1.34,1.93 1.99,3.31 1.99,4.13 0,0.4 -1.01,1.63 -3.06,3.67 0,6.33 1.64,10.31 4.9,11.95 3.27,1.63 5.72,3.97 7.35,7.03 1.03,2.45 3.07,4.19 6.14,5.2 3.06,1.03 4.6,2.35 4.6,3.99 0,1.42 2.65,4.28 7.96,8.57 5.32,4.28 9.19,8 11.64,11.17 2.46,3.16 4.51,4.75 6.14,4.75 l 1.23,1.22 c 0.4,5.1 2.34,7.66 5.82,7.66 l 3.06,1.83 0.62,2.45 1.84,1.22 h 2.45 l 1.53,1.22 c 0.4,5.1 2.8,9.09 7.2,11.95 4.39,2.85 12.41,10.87 24.06,24.03 11.64,13.15 18.18,21.57 19.61,25.25 1.43,3.68 4.04,8.62 7.82,14.85 3.77,6.22 5.87,12.09 6.28,17.6 -0.41,0.82 -1.02,1.63 -1.84,2.45 l -13.16,-6.43 c 0,0.62 -2.04,1.53 -6.12,2.76 -3.06,-1.84 -5.3,-3.68 -6.73,-5.51 -1.44,-1.84 -2.56,-2.76 -3.37,-2.76 l -4.29,0.61 -13.46,-1.52 c -12.05,-1.03 -21.13,-3.48 -27.25,-7.36 l -12.55,-3.67 h -2.75 c -1.64,0 -4.09,-1.03 -7.36,-3.06 l -7.04,0.61 c -6.52,-3.47 -11.33,-5.21 -14.38,-5.21 -0.41,0 -1.63,0.21 -3.67,0.62 l -31.23,-8.58 c -2.45,-0.81 -7.96,-5 -16.53,-12.54 l -2.45,-0.61 c -2.04,0 -4.44,2.3 -7.2,6.89 -2.75,4.59 -4.13,8.72 -4.13,12.39 0,20.2 17.36,31.94 52.04,35.2 l 12.55,4.91 h 0.62 l 3.37,-1.24 h 1.22 c 1.23,0 3.16,0.78 5.82,2.3 2.64,1.53 8.56,3.42 17.75,5.66 l 12.55,3.37 3.99,-0.61 c 2.03,0 4.32,0.82 6.88,2.45 2.55,1.63 6.43,2.8 11.63,3.52 5.21,0.72 8.83,1.48 10.87,2.3 l 4.89,1.22 c 0.82,0 2.5,0.71 5.06,2.15 2.55,1.42 5.86,2.14 9.94,2.14 0.62,0 2.15,-0.41 4.6,-1.22"
         style="fill:#cc2271;fill-opacity:1;fill-rule:nonzero;stroke:none"
         transform="matrix(0.13333333,0,0,-0.13333333,0,1133.8533)" />
      <path
         id="path17"
         d="m 3938.48,3634.51 4.27,1.22 3.07,3.06 h 0.62 l 2.75,-1.23 h 0.6 c 4.91,0 9.25,0.97 13.06,2.91 3.8,1.94 6.99,3.31 9.57,4.13 2.58,0.81 4.18,1.43 4.8,1.84 0.62,0.41 1.13,0.62 1.55,0.62 l 4.94,-0.62 c 1.63,0 3.83,2.91 6.58,8.73 2.76,5.81 5.86,10.05 9.33,12.7 3.47,2.65 6.93,7.65 10.4,15 0.82,1.02 1.74,2.6 2.75,4.74 1.03,2.15 1.85,3.21 2.45,3.21 3.06,0 5.51,1.95 7.35,5.83 6.11,7.13 11.11,10.71 14.99,10.71 5.1,0 8.66,-4.89 10.7,-14.69 l 3.07,-11.64 c 0,-0.21 -0.52,-1.68 -1.54,-4.43 -1.02,-2.76 -1.48,-5.51 -1.37,-8.28 0.1,-2.75 0,-4.59 -0.3,-5.5 -0.32,-0.92 -0.47,-1.99 -0.47,-3.22 0,-1.63 1.73,-2.45 5.2,-2.45 1.23,0 3.47,0.82 6.74,2.45 l 1.84,0.62 c 2.04,-1.23 3.78,-1.84 5.2,-1.84 0.41,0 3.31,1.02 8.72,3.06 5.41,2.04 8.83,3.16 10.26,3.37 1.42,0.2 3.87,1.01 7.35,2.45 h 3.67 l 2.45,-0.92 c 0.81,0 2.49,0.86 5.05,2.6 2.55,1.73 7.39,2.8 14.54,3.21 l 4.29,1.84 h 1.22 c 6.74,0 10.11,-2.96 10.11,-8.88 0,-1.22 -0.98,-3.36 -2.91,-6.42 -1.95,-3.06 -3.53,-6.54 -4.75,-10.41 l -14.08,-17.76 c -4.7,-6.12 -9.39,-9.18 -14.08,-9.18 -0.82,0 -3.37,2.76 -7.66,8.26 0,0.41 -0.41,0.62 -1.22,0.62 -2.04,0 -4.19,-0.41 -6.43,-1.23 -2.25,-0.81 -4.09,-1.22 -5.51,-1.22 -0.61,0 -6.02,-1.54 -16.22,-4.59 l -7.35,-1.23 c -0.82,0 -2.75,-0.41 -5.82,-1.22 l -15.62,-3.06 c -5.32,-2.66 -9.51,-7.66 -12.56,-15 0,-0.41 -1.03,-1.34 -3.07,-2.75 l -13.79,-25.11 c -4.5,-1.22 -7.46,-3.88 -8.88,-7.96 l -1.23,-1.84 c -2.25,-0.41 -4.3,-1.68 -6.14,-3.82 -1.84,-2.14 -3.57,-3.83 -5.21,-5.05 l -5.52,-8.26 c -2.26,-2.87 -4.5,-5.98 -6.75,-9.34 -2.24,-3.37 -3.88,-6.94 -4.91,-10.72 -1.03,-3.78 -1.84,-5.97 -2.45,-6.59 -0.62,-0.6 -0.92,-1.72 -0.92,-3.35 l -0.92,-2.46 c -2.46,-2.45 -3.68,-5.2 -3.68,-8.26 l 1.23,-4.9 c -2.87,-9.79 -4.3,-15 -4.3,-15.61 0,-0.42 0.2,-1.53 0.62,-3.37 v -1.84 c 0,-4.49 -1.64,-10.1 -4.91,-16.84 l 0.61,-4.89 -1.83,-13.78 c 0,-1.83 0.6,-5.2 1.83,-10.1 -0.82,-0.82 -1.23,-1.43 -1.23,-1.83 0,-5.72 3.02,-11.99 9.06,-18.83 6.02,-6.85 9.04,-17.5 9.04,-31.99 0,-1.22 -0.31,-3.01 -0.92,-5.35 -0.61,-2.36 -1.02,-4.91 -1.23,-7.66 -0.2,-2.75 -1.79,-5.46 -4.76,-8.11 -2.95,-2.66 -5.45,-3.98 -7.51,-3.98 -10.83,0 -18.91,7.85 -24.22,23.57 -5.32,15.71 -7.97,25.82 -7.97,30.31 l 0.61,11.93 -1.84,6.12 1.84,26.95 -1.23,6.42 7.05,26.33 v 9.49 c 0,0.4 1.44,2.03 4.3,4.9 0,0.41 -0.41,0.61 -1.23,0.61 -1.22,0 -2.86,-1.23 -4.9,-3.67 -2.05,-2.45 -4.6,-4.81 -7.67,-7.04 l -2.46,-4.29 c -0.41,0.4 -1.22,0.81 -2.45,1.22 -1.03,-0.41 -4.4,-5.2 -10.12,-14.38 -4.3,-0.62 -7.66,-3.07 -10.13,-7.35 -2.45,-4.28 -5.82,-6.43 -10.1,-6.43 l -1.23,-0.61 c -0.82,-5.93 -3.68,-8.87 -8.6,-8.87 l -1.22,-0.62 c -3.06,-6.94 -6.24,-10.31 -9.51,-10.11 -2.04,-6.12 -7.05,-10.3 -15.03,-12.55 -1.22,-2.45 -3.01,-4.28 -5.36,-5.5 -2.35,-1.22 -4.03,-2.36 -5.06,-3.37 -1.02,-1.03 -1.94,-1.54 -2.76,-1.54 -2.66,0 -3.99,2.87 -3.99,8.58 0,1.63 0.67,3.42 2,5.36 1.33,1.93 1.99,3.31 1.99,4.13 0,0.4 -1.02,1.63 -3.07,3.67 0,6.33 1.64,10.31 4.9,11.95 3.28,1.63 5.73,3.97 7.36,7.03 1.02,2.45 3.06,4.19 6.13,5.2 3.07,1.03 4.6,2.35 4.6,3.99 0,1.42 2.66,4.28 7.97,8.57 5.31,4.28 9.19,8 11.64,11.17 2.45,3.16 4.5,4.75 6.13,4.75 l 1.23,1.22 c 0.4,5.1 2.35,7.66 5.82,7.66 l 3.07,1.83 0.61,2.45 1.84,1.22 h 2.45 l 1.53,1.22 c 0.4,5.1 2.81,9.09 7.2,11.95 4.4,2.85 12.41,10.87 24.06,24.03 11.64,13.15 18.19,21.57 19.61,25.25 1.44,3.68 4.05,8.62 7.83,14.85 3.77,6.22 5.86,12.09 6.28,17.6 -0.42,0.82 -1.03,1.63 -1.84,2.45 l -13.16,-6.43 c 0,0.62 -2.05,1.53 -6.13,2.76 -3.05,-1.84 -5.3,-3.68 -6.73,-5.51 -1.43,-1.84 -2.56,-2.76 -3.37,-2.76 l -4.28,0.61 -13.47,-1.52 c -12.05,-1.03 -21.12,-3.48 -27.25,-7.36 l -12.54,-3.67 h -2.76 c -1.64,0 -4.09,-1.03 -7.35,-3.06 l -7.04,0.61 c -6.53,-3.47 -11.33,-5.21 -14.39,-5.21 -0.41,0 -1.63,0.21 -3.67,0.62 l -31.23,-8.58 c -2.44,-0.81 -7.96,-5 -16.52,-12.54 l -2.45,-0.61 c -2.05,0 -4.45,2.3 -7.2,6.89 -2.76,4.59 -4.13,8.72 -4.13,12.39 0,20.2 17.35,31.94 52.04,35.2 l 12.55,4.91 h 0.61 l 3.37,-1.24 h 1.22 c 1.23,0 3.17,0.78 5.82,2.3 2.65,1.53 8.57,3.42 17.76,5.66 l 12.55,3.37 3.98,-0.61 c 2.03,0 4.33,0.82 6.88,2.45 2.55,1.63 6.43,2.8 11.64,3.52 5.2,0.72 8.82,1.48 10.86,2.3 l 4.9,1.22 c 0.82,0 2.5,0.71 5.06,2.15 2.54,1.42 5.85,2.14 9.94,2.14 0.61,0 2.15,-0.41 4.6,-1.22"
         style="fill:#cc2271;fill-opacity:1;fill-rule:nonzero;stroke:none"
         transform="matrix(0.13333333,0,0,-0.13333333,0,1133.8533)" />
      <path
         id="path18"
         d="m 4115.02,3511.75 6.43,3.67 c 0.82,3.27 3.47,7.2 7.95,11.79 4.5,4.59 7.66,6.89 9.5,6.89 h 2.45 c 0,1.42 0.3,2.85 0.92,4.28 0.61,1.43 0.91,3.37 0.91,5.81 0,1.23 2.76,4.6 8.27,10.11 l 2.45,5.51 c 1.83,5.3 6.42,9.69 13.78,13.16 2.85,5.92 5,8.88 6.42,8.88 l 2.45,0.62 c 0.81,3.05 2.45,5.81 4.9,8.26 l 1.23,1.83 v 4.91 c 0,0.4 1.37,2.09 4.13,5.04 2.75,2.96 4.74,5.72 5.96,8.27 1.23,2.54 2.91,4.54 5.05,5.97 2.15,1.43 3.63,3.98 4.45,7.65 l 4.89,0.61 c 0,2.65 0.2,4.39 0.61,5.21 l 0.62,3.06 c 1.01,2.45 4.59,8.87 10.71,19.28 l 4.9,11.33 c 0,1.22 0.86,2.71 2.6,4.43 1.73,1.74 2.6,4.24 2.6,7.5 l 2.45,10.11 c 0,4.69 -0.82,7.04 -2.45,7.04 -2.04,-1.43 -3.93,-2.45 -5.66,-3.06 -1.73,-0.61 -3.42,-4.28 -5.05,-11.02 -6.13,-1.42 -9.64,-4.33 -10.56,-8.72 -0.92,-4.39 -3.42,-8.11 -7.5,-11.18 l -2.15,-3.67 c -0.41,-2.25 -2.34,-4.59 -5.81,-7.04 -3.48,-2.45 -6.74,-6.63 -9.79,-12.55 -10.21,-14.08 -15.82,-21.63 -16.84,-22.66 l -3.07,-3.67 -4.59,0.61 c 0.81,-3.27 1.22,-5.1 1.22,-5.5 0,-1.23 -0.6,-2.41 -1.83,-3.53 -1.22,-1.12 -2.14,-2.5 -2.76,-4.13 -0.6,-1.63 -1.83,-3.52 -3.67,-5.66 -1.83,-2.14 -3.51,-5.62 -5.05,-10.41 -1.53,-4.8 -2.91,-7.6 -4.13,-8.42 l -4.28,0.61 c -2.66,-1.63 -3.99,-3.26 -3.99,-4.9 l 0.92,-4.28 c 0,-0.82 -0.56,-1.79 -1.68,-2.91 -1.12,-1.12 -2.2,-3.32 -3.21,-6.58 -1.03,-3.27 -3.58,-8.22 -7.66,-14.84 -4.08,-6.64 -7.29,-13.68 -9.64,-21.13 -2.35,-7.45 -4.65,-12.19 -6.89,-14.23 0.41,-0.41 1.02,-0.62 1.83,-0.62 2.66,0 5.21,2.75 7.66,8.27 z m -62.12,-81.12 v 2.14 c 0,2.86 0.21,5.1 0.62,6.74 -1.23,3.26 -1.84,6.22 -1.84,8.87 0,0.41 1.02,3.27 3.06,8.58 l 2.75,9.48 c 1.43,3.68 2.25,5.62 2.45,5.82 -1.22,3.26 -1.83,5.1 -1.83,5.51 0,4.7 1.32,8.57 3.97,11.63 2.66,3.07 4.9,7.35 6.74,12.86 l 6.11,18.67 10.1,24.49 c 0.19,0.62 1.17,2.25 2.9,4.9 1.73,2.65 3.16,4.95 4.29,6.89 1.11,1.94 2.7,4.75 4.74,8.42 l 3.06,0.6 c 0.81,0.83 1.23,1.64 1.23,2.46 0,0.41 -0.42,2.04 -1.23,4.9 l 10.71,17.75 6.44,13.17 c 2.03,3.46 4.28,5.71 6.73,6.72 4.08,7.55 7.65,12.14 10.71,13.78 1.23,3.88 3.47,8.06 6.74,12.55 l 5.82,0.62 c 1.01,2.85 2.03,5 3.05,6.42 l 0.62,6.13 c 0,-1.22 0.51,-0.87 1.52,1.07 1.03,1.93 2.56,5.56 4.6,10.87 l 8.26,9.48 2.46,4.29 c 1.01,1.43 2.64,4.18 4.89,8.27 3.06,1.22 5.61,3.47 7.65,6.73 l 6.43,5.21 c -0.41,2.24 2.04,7.24 7.35,15 3.47,1.42 6.63,3.26 9.49,5.5 l 4.28,1.23 c 0,7.14 2.55,12.03 7.66,14.69 l 3.67,2.45 c 3.26,1.63 5.1,2.45 5.51,2.45 l 2.15,0.62 c 2.44,0.81 5.3,1.22 8.56,1.22 7.55,0 14.4,-2.81 20.52,-8.42 6.12,-5.61 9.18,-11.99 9.18,-19.13 0,-2.86 -1.53,-5.82 -4.59,-8.88 l -1.23,-2.45 c -2.85,-11.23 -4.89,-16.83 -6.12,-16.83 -0.81,0 -1.94,-0.62 -3.36,-1.84 -0.41,-6.74 -0.82,-10.52 -1.23,-11.33 -3.68,-0.61 -5.51,-5.2 -5.51,-13.78 -0.41,-1.22 -1.89,-3.32 -4.44,-6.27 -2.55,-2.96 -4.55,-7.04 -5.97,-12.24 -1.43,-5.21 -2.96,-7.81 -4.59,-7.81 h -3.37 l 0.92,-4.6 c 0,-2.86 -1.38,-5.66 -4.13,-8.41 -2.76,-2.76 -4.44,-5.67 -5.05,-8.72 -0.62,-3.07 -3.07,-6.74 -7.35,-11.03 l -3.06,-4.89 c -1.22,-2.04 -2.86,-4.19 -4.9,-6.43 -2.05,-2.25 -3.77,-5.72 -5.2,-10.41 l -7.96,-14.69 c -5.52,-10 -9.7,-14.8 -12.56,-14.39 -1.83,-7.96 -3.05,-12.55 -3.67,-13.78 -0.61,-1.22 -2.04,-2.34 -4.29,-3.36 -2.24,-1.02 -3.97,-2.81 -5.19,-5.36 -1.23,-2.56 -2.56,-4.44 -3.99,-5.66 l -5.5,-11.33 c -3.28,-1.43 -5.62,-4.08 -7.05,-7.96 -3.27,-0.82 -5.31,-3.58 -6.12,-8.26 -0.82,-0.82 -1.83,-2.66 -3.06,-5.51 l -10.72,-10.72 c -5.51,-3.88 -8.46,-8.31 -8.87,-13.31 -0.41,-5 -3.06,-7.5 -7.96,-7.5 -3.47,0 -8.57,1.53 -15.31,4.59 h -0.61 c -0.61,-2.87 -2.04,-6.03 -4.29,-9.5 l 1.23,-8.26 c 0,-1.02 -1.64,-7.45 -4.9,-19.28 1.63,-3.06 2.45,-5.21 2.45,-6.43 l -0.61,-6.74 1.53,-8.26 c 1.01,-6.74 3.47,-10.11 7.34,-10.11 l 7.35,-1.22 c 0.41,0 2.96,1.53 7.64,4.59 l 11.32,6.12 c 0.41,0 0.62,-0.2 0.62,-0.6 2.04,-0.82 3.67,-1.23 4.89,-1.23 2.04,0 3.06,1.63 3.06,4.9 v 3.98 c 1.23,2.04 2.7,3.26 4.43,3.67 1.74,0.41 3.32,1.33 4.75,2.75 1.42,1.43 2.54,2.15 3.36,2.15 h 3.06 c 3.06,0 4.59,3.56 4.59,10.71 0.81,0.41 1.84,1.22 3.06,2.45 h 3.67 c 1.63,0 3.42,2 5.35,5.97 1.93,3.98 3.31,6.38 4.13,7.2 3.67,0.4 6.22,1.01 7.65,1.83 6.52,11.84 11.52,17.76 14.99,17.76 h 1.83 c 3.47,3.26 5.37,6.17 5.67,8.72 0.3,2.55 1.33,4.24 3.06,5.05 1.72,0.82 3.31,1.84 4.74,3.06 1.43,1.22 2.34,1.84 2.76,1.84 3.05,0 4.58,-1.12 4.58,-3.37 l -0.92,-8.57 2.15,-9.18 c 0,-0.82 -0.87,-2.41 -2.61,-4.75 -1.73,-2.34 -2.59,-4.95 -2.59,-7.8 0,-5.92 -1.03,-9.08 -3.07,-9.49 -2.04,-0.41 -3.72,-1.79 -5.04,-4.14 -1.33,-2.35 -3.52,-4.49 -6.59,-6.42 -3.05,-1.94 -5.4,-4.75 -7.03,-8.42 l -5.2,-1.23 -3.05,-1.84 c -2.45,-6.32 -5.06,-10.2 -7.81,-11.63 -2.76,-1.42 -6.17,-5.71 -10.25,-12.86 -0.61,0 -0.91,-0.2 -0.91,-0.6 l -4.9,0.6 c -1.83,-3.26 -3.67,-5.19 -5.51,-5.81 -1.83,-0.61 -3.36,-1.79 -4.58,-3.52 -1.23,-1.73 -3.42,-3.22 -6.58,-4.44 -3.16,-1.23 -5.15,-2.65 -5.96,-4.28 -0.82,-1.64 -2.05,-2.56 -3.68,-2.76 -1.63,-0.2 -3.16,-0.98 -4.59,-2.29 -1.42,-1.33 -2.64,-2 -3.67,-2 -0.41,0 -1.83,0.21 -4.28,0.62 h -1.23 c -3.46,-2.45 -6.32,-3.67 -8.56,-3.67 -2.66,0 -4.59,-0.42 -5.81,-1.23 -1.22,0.81 -3.12,1.42 -5.66,1.83 -2.55,0.41 -5.46,1.43 -8.73,3.07 -3.46,-0.82 -5.6,-1.23 -6.41,-1.23 -3.48,0 -7.86,3.42 -13.16,10.25 -5.31,6.84 -7.95,13.53 -7.95,20.06 0,0.2 -1.18,1.78 -3.52,4.75 -2.35,2.95 -3.53,6.16 -3.53,9.64 v 3.05 l 0.62,3.68 v 5.82 l 0.61,1.83 c 3.06,0.41 4.59,0.82 4.59,1.23 l -3.98,5.51"
         style="fill:#cc2271;fill-opacity:1;fill-rule:nonzero;stroke:none"
         transform="matrix(0.13333333,0,0,-0.13333333,0,1133.8533)" />
      <path
         id="path19"
         d="m 4295.52,3501.04 -3.67,-1.84 c -0.82,-0.42 -3.22,-2.19 -7.2,-5.36 -3.98,-3.16 -7.85,-5.71 -11.63,-7.65 -3.78,-1.95 -7.65,-7 -11.63,-15.15 -3.98,-8.16 -5.97,-12.86 -5.97,-14.08 0,-1.23 0.61,-1.84 1.84,-1.84 l 10.41,4.59 c 3.86,1.84 7.5,4.18 10.86,7.04 3.36,2.85 8.21,6.32 14.54,10.41 l 2.45,2.44 c 0.41,0.82 2.29,2.3 5.66,4.45 3.37,2.14 5.87,4.23 7.5,6.27 l 3.07,1.23 c 3.46,5.51 6.98,8.87 10.55,10.1 3.57,1.23 5.37,2.45 5.37,3.67 0,2.45 -1.95,3.68 -5.82,3.68 -1.64,0 -4.09,-1.03 -7.35,-3.07 h -7.04 c -0.82,0 -3.07,-1.22 -6.74,-3.67 z m -64.74,-18.37 6.43,5.21 c 4.89,0.4 7.55,2.94 7.95,7.64 0.41,4.7 3.78,8.78 10.09,12.25 l 3.68,5.2 c 3.05,3.07 11.41,7.04 25.08,11.95 3.47,2.03 5.81,3.86 7.04,5.5 0.41,0.4 0.82,0.62 1.23,0.62 l 4.89,-1.23 c 2.65,0 6.06,0.71 10.24,2.15 4.18,1.42 8.22,2.14 12.09,2.14 l 12.85,0.61 c 0.81,0 2.49,-0.61 5.04,-1.83 2.55,-1.23 5.67,-1.84 9.34,-1.84 4.48,0 8.61,-2.05 12.38,-6.12 3.78,-4.1 5.67,-7.86 5.67,-11.33 0,-6.33 -3.27,-12.76 -9.78,-19.29 -6.51,-6.53 -11.71,-10.2 -15.59,-11.02 -3.45,-3.47 -6.1,-5.66 -7.94,-6.58 -1.83,-0.92 -3.72,-2.35 -5.65,-4.28 -1.93,-1.95 -3.52,-2.91 -4.74,-2.91 -0.82,0 -1.42,0.25 -1.83,0.76 -0.41,0.51 -1.02,0.77 -1.84,0.77 -3.26,0 -6.81,-3.98 -10.68,-11.94 l -5.5,0.61 c -3.47,-2.24 -5.71,-4.7 -6.73,-7.35 -1.01,-2.65 -3.15,-3.98 -6.41,-3.98 -7.54,-7.55 -12.63,-11.32 -15.28,-11.32 -0.41,0 -1.83,0.41 -4.28,1.23 -1.64,-2.06 -2.45,-4.19 -2.45,-6.44 0,-2.45 -1.63,-3.88 -4.89,-4.29 l -3.96,-3.67 -3.06,0.62 -6.11,-6.43 c -3.06,0 -6.21,-1.02 -9.48,-3.07 -0.41,-2.45 -1.02,-5.55 -1.83,-9.33 -0.82,-3.78 -1.22,-5.87 -1.22,-6.27 0,-5.93 5.4,-8.89 16.22,-8.89 l 14.7,2.15 c 3.87,0 7.5,1.02 10.86,3.06 3.37,2.04 7,3.06 10.87,3.06 1.23,0 3.07,0.4 5.52,1.22 l 3.06,-1.22 c 1.42,3.06 4.08,5.81 7.96,8.27 3.87,2.45 6.94,3.67 9.19,3.67 l 3.05,1.83 c 0.82,2.45 2.04,4.09 3.68,4.91 l 2.45,2.13 c 1.63,1.63 3.16,2.46 4.6,2.46 h 4.27 l 1.23,0.61 c 2.45,5.3 5.86,8.42 10.26,9.34 4.39,0.91 7.15,2.39 8.27,4.43 1.11,2.04 3.1,3.26 5.97,3.68 2.85,0.4 5.25,1.78 7.19,4.13 1.94,2.35 4.33,4.54 7.19,6.58 2.86,2.04 4.85,3.57 5.98,4.59 1.12,1.02 2.09,1.54 2.91,1.54 1.22,0 1.83,-0.92 1.83,-2.76 0,-1.84 0.41,-2.76 1.22,-2.76 0.82,0 1.23,0.41 1.23,1.23 0,0.81 -0.2,1.84 -0.61,3.06 v 2.15 c 0,3.05 1.63,5.09 4.9,6.12 l 13.77,8.88 c 0.41,4.28 1.58,6.77 3.53,7.5 1.93,0.71 3.41,1.52 4.44,2.44 1.02,0.92 2.14,1.38 3.36,1.38 2.66,0 3.98,-1.53 3.98,-4.6 l -1.53,-7.95 1.53,-8.27 c 0,-1.22 -0.96,-2.91 -2.91,-5.05 -1.94,-2.14 -3.42,-5.41 -4.44,-9.79 -1.03,-4.39 -2.34,-6.79 -3.98,-7.2 h -1.84 c -3.68,-3.87 -6.59,-6.17 -8.73,-6.88 -2.15,-0.73 -3.84,-1.99 -5.06,-3.83 l -10.41,-11.94 c -2.05,-2.04 -3.79,-3.88 -5.21,-5.51 -1.44,-1.63 -2.56,-2.45 -3.37,-2.45 l -2.45,2.45 c 0,0.41 -0.42,0.61 -1.23,0.61 -2.05,0 -3.33,-1.23 -3.82,-3.67 -0.52,-2.45 -1.6,-4.6 -3.23,-6.43 -6.12,-2.87 -10.1,-5.51 -11.95,-7.96 l -1.84,-0.61 h -5.5 c -2.66,0 -4.5,-1.99 -5.52,-5.97 -1.03,-3.98 -3.94,-6.27 -8.73,-6.89 -4.81,-0.61 -8.22,-1.84 -10.26,-3.67 -0.42,-0.41 -1.33,-0.82 -2.77,-1.22 -1.42,-0.42 -4.29,-2.05 -8.57,-4.9 l -25.74,-9.18 c -2.05,-1.03 -3.36,-1.54 -3.98,-1.54 l -8.57,-1.23 c -1.23,0 -2.46,0.82 -3.69,2.45 -1.22,1.63 -2.04,2.45 -2.45,2.45 l -5.5,-1.83 c -4.1,-1.22 -7.97,-1.84 -11.65,-1.84 -2.05,0 -4.29,0.72 -6.74,2.14 -2.45,1.43 -4.4,2.45 -5.82,3.07 -5.92,0 -10.11,4.59 -12.56,13.77 l -3.67,-0.61 c -0.82,0 -3.58,7.24 -8.28,21.73 -1.23,1.63 -3.17,2.8 -5.82,3.53 -2.65,0.71 -3.97,2.7 -3.97,5.96 0,9.18 1.98,15.35 5.97,18.53 3.97,3.15 6.17,5.55 6.58,7.19 l 4.28,15.91 c 0.81,0.62 1.83,2.66 3.06,6.13 l 7.03,12.86 c 0.81,1.42 2.65,4.99 5.51,10.71"
         style="fill:#cc2271;fill-opacity:1;fill-rule:nonzero;stroke:none"
         transform="matrix(0.13333333,0,0,-0.13333333,0,1133.8533)" />
      <path
         id="path20"
         d="m 4630.3,3510.52 0.61,6.74 v 2.45 l 2.75,8.26 c 4.07,12.45 8.41,21.63 12.99,27.55 4.59,5.92 7.08,10.11 7.49,12.55 0.41,2.45 1.99,5.16 4.74,8.12 2.75,2.96 4.73,5.66 5.95,8.11 l 2.46,3.67 c 0,3.68 2.29,7.71 6.87,12.09 4.58,4.39 7.13,7.82 7.65,10.26 0.5,2.45 3.61,6.94 9.31,13.47 0,1.84 2.09,5.15 6.27,9.94 4.18,4.8 6.88,8.22 8.1,10.26 1.23,2.04 3.77,3.88 7.64,5.52 0.82,4.28 2.86,7.85 6.12,10.71 3.25,2.85 5.75,5.35 7.48,7.5 1.74,2.14 3.83,3.83 6.27,5.05 l 3.05,3.67 c 1.43,2.04 4.85,5.1 10.25,9.19 5.4,4.07 8.91,7.14 10.55,9.18 l 7.63,3.06 1.22,1.23 0.62,3.67 c 0.81,0.41 2.23,1.79 4.28,4.13 2.03,2.34 3.86,4.13 5.49,5.36 l 8.26,8.26 c 3.38,2.04 6.26,3.67 8.61,4.9 2.34,1.23 3.82,2.81 4.43,4.75 0.62,1.93 4.29,3.93 11.03,5.97 3.67,4.89 8.87,7.75 15.6,8.56 2.45,4.29 9.8,9.03 22.04,14.24 12.25,5.21 20.82,7.8 25.72,7.8 4.49,0 8.67,-0.6 12.55,-1.83 l 4.9,0.61 c 0.81,-0.41 2.75,-1.22 5.82,-2.45 h 0.6 l 2.46,-0.6 c 7.13,-8.18 10.71,-16.84 10.71,-26.03 0,-4.29 -0.21,-9.38 -0.61,-15.3 -2.25,-7.15 -3.37,-12.86 -3.37,-17.15 0,-2.86 -1.02,-6.33 -3.06,-10.4 l -2.45,-8.27 c -1.22,-12.04 -5.4,-18.06 -12.55,-18.06 -11.22,0 -16.84,5.21 -16.84,15.61 0,6.73 2.86,12.35 8.58,16.84 10,6.32 15,16.52 15,30.61 0,3.87 -1.64,5.82 -4.91,5.82 h -0.6 c -2.05,-1.23 -3.68,-1.84 -4.9,-1.84 l -5.82,1.84 h -0.61 l -2.45,-1.23 c -0.41,0.41 -1.89,-0.26 -4.44,-1.99 -2.55,-1.73 -6.02,-3.32 -10.41,-4.74 -4.39,-1.44 -8.77,-4.55 -13.16,-9.34 -4.39,-4.8 -9.29,-8.27 -14.7,-10.41 -5.41,-2.15 -10.15,-6.07 -14.23,-11.78 0,-0.42 -0.2,-0.62 -0.61,-0.62 l -6.43,0.62 c -0.82,0 -2.25,-2.55 -4.28,-7.66 l -1.84,-1.22 h -2.15 c -0.82,-0.41 -2.24,-1.64 -4.28,-3.67 l -3.68,-3.07 c -1.22,-3.88 -3.57,-6.63 -7.04,-8.26 l -3.66,-6.43 c -1.63,-0.82 -3.52,-2.04 -5.65,-3.67 -2.15,-1.64 -3.93,-2.76 -5.36,-3.37 -1.42,-0.61 -2.85,-2.91 -4.27,-6.89 -1.43,-3.98 -6.12,-7.4 -14.07,-10.26 -0.82,-0.81 -1.22,-1.52 -1.22,-2.14 0,-0.41 0.2,-1.22 0.61,-2.45 v -0.61 c 0,-4.08 -5.3,-10.3 -15.9,-18.67 v -1.22 c 0,-2.25 -1.73,-6.49 -5.18,-12.71 -3.47,-6.23 -6.48,-10.52 -9.03,-12.85 -2.55,-2.35 -3.82,-3.94 -3.82,-4.75 v -4.28 c 0,-3.28 -1.43,-5.32 -4.27,-6.13 -2.66,-2.24 -4.59,-3.98 -5.81,-5.2 0,-4.08 -1.74,-7.2 -5.2,-9.34 -3.47,-2.15 -5.51,-3.83 -6.11,-5.05 l 2.14,-3.67 v -1.23 c 0,-5.92 -2.96,-9.7 -8.87,-11.33 v -1.22 c 0,-2.04 -1.48,-5.05 -4.43,-9.03 -2.95,-3.98 -5.66,-6.69 -8.1,-8.12 -0.41,0 -0.82,-0.41 -1.22,-1.22 l 1.22,-8.57 c -5.29,-11.22 -10.5,-20 -15.59,-26.32 -2.04,-0.42 -3.05,-1.34 -3.05,-2.76 l 1.22,-4.9 v -1.22 c 0,-5.1 -0.87,-8.68 -2.61,-10.72 -1.73,-2.04 -2.6,-3.26 -2.6,-3.67 l 1.84,-4.29 c 0,-1.83 -0.82,-3.16 -2.45,-3.97 -1.63,-0.82 -2.44,-1.64 -2.44,-2.45 0,-0.41 0.19,-1.03 0.6,-1.84 v -1.84 c 0,-1.64 -1.42,-7.34 -4.29,-17.14 v -4.28 l -1.22,-4.29 c 0,-0.41 0.51,-1.69 1.54,-3.83 1.01,-2.14 1.52,-4.03 1.52,-5.66 l -1.84,-4.29 c -0.41,-0.41 -0.6,-1.02 -0.6,-1.83 0,-3.88 0.86,-8.83 2.6,-14.85 1.72,-6.02 4.63,-9.03 8.73,-9.03 6.93,0 11.16,0.81 12.69,2.45 1.54,1.63 5.92,5.25 13.16,10.87 7.24,5.6 12.04,9.59 14.38,11.93 2.34,2.35 4.18,3.83 5.51,4.45 1.33,0.6 6.88,6.98 16.68,19.13 9.78,12.14 18.36,23 25.7,32.59 0.41,0.41 0.97,1.79 1.68,4.14 0.71,2.35 2.96,5.31 6.73,8.88 3.78,3.57 9.34,10.56 16.68,20.97 l 5.81,5.51 c 4.49,6.32 7.09,10.25 7.8,11.78 0.72,1.54 2.2,3.06 4.45,4.59 2.24,1.54 3.97,3.57 5.2,6.13 1.22,2.55 3.01,4.02 5.35,4.44 2.35,0.4 3.52,1.43 3.52,3.06 l -0.61,6.42 c 2.85,4.49 6.12,7.45 9.79,8.88 -0.41,0.82 -0.62,2.04 -0.62,3.68 0,4.89 2.1,8 6.28,9.34 4.18,1.31 6.37,2.69 6.58,4.13 0.2,1.42 0.72,3.16 1.53,5.2 l 0.92,2.44 c 1.63,3.48 3.26,6.03 4.9,7.66 l 3.67,5.51 6.43,6.43 c 0,0.4 0.19,0.81 0.61,1.22 l -1.23,7.05 c 0,1.22 2.65,2.85 7.96,4.9 l 0.6,1.22 v 5.51 c 0,1.83 1.95,3.78 5.83,5.82 1.01,4.28 3.05,7.23 6.11,8.87 0.41,5.31 2.29,9.85 5.67,13.63 3.37,3.77 6.33,7.55 8.88,11.32 2.56,3.77 6.28,5.66 11.18,5.66 2.66,0 7.4,-1.89 14.25,-5.66 6.83,-3.77 10.25,-9.23 10.25,-16.38 0,-0.81 -1.02,-3.26 -3.05,-7.35 -2.04,-4.08 -3.99,-12.24 -5.82,-24.49 -4.29,-11.42 -7.15,-18.16 -8.58,-20.19 1.23,-2.86 1.84,-5.11 1.84,-6.74 0,-2.66 -1.73,-5.82 -5.2,-9.49 -0.61,-3.88 -1.43,-7.04 -2.45,-9.5 v -4.89 c 0,-3.88 -2.86,-6.63 -8.57,-8.26 -0.62,0 -1.43,-2.51 -2.45,-7.5 -1.02,-5.01 -1.53,-7.72 -1.53,-8.12 l 1.22,-8.27 c 0,-2.85 -0.82,-5.09 -2.45,-6.73 -1.63,-1.64 -3.83,-4.44 -6.58,-8.41 -2.75,-3.99 -4.13,-6.39 -4.13,-7.2 0,-3.47 -0.41,-6.23 -1.22,-8.26 -0.82,-2.04 -1.33,-4.24 -1.53,-6.58 -0.21,-2.36 -1.13,-4.55 -2.76,-6.59 -1.64,-2.04 -2.66,-3.67 -3.07,-4.9 1.24,-2.65 1.84,-4.18 1.84,-4.59 0,-1.22 -0.6,-3.67 -1.84,-7.34 -2.24,-2.04 -3.35,-3.78 -3.35,-5.21 0,-0.2 0.71,-1.64 2.13,-4.28 -0.41,-2.46 -1.53,-5.82 -3.37,-10.1 l -0.61,-1.84 1.23,-17.45 c 0,-0.41 -0.82,-1.64 -2.45,-3.67 v -1.53 c 0,-2.05 0.61,-3.07 1.83,-3.07 0.82,0 3.99,1.58 9.5,4.75 5.5,3.16 8.57,5.36 9.18,6.58 1.83,3.67 10.3,9.69 25.41,18.06 l 39.84,33.68 c 2.66,2.64 4.6,3.97 5.82,3.97 3.48,0 5.22,-1.63 5.22,-4.89 0,-4.7 -1.13,-10.11 -3.37,-16.23 v -4.59 c 0,-5.31 -2.86,-10.31 -8.59,-15 -0.41,-1.63 -1.78,-2.96 -4.13,-3.98 -2.35,-1.02 -4.03,-2.5 -5.06,-4.44 -1.02,-1.94 -3.32,-3.72 -6.89,-5.35 -3.58,-1.64 -6.39,-3.48 -8.42,-5.52 l -2.45,-1.22 c -3.07,-1.43 -5.12,-3.67 -6.13,-6.74 -1.03,-3.06 -2.15,-4.59 -3.37,-4.59 -4.7,0 -11.04,-3.97 -19,-11.93 l -3.68,-1.23 -3.67,-2.44 c -2.05,-1.84 -3.68,-2.77 -4.9,-2.77 l -4.6,0.62 -16.24,-3.06 c -2.44,0 -4.8,1.93 -7.04,5.81 h -4.91 l -4.28,4.9 c -4.9,1.63 -9.3,7.19 -13.18,16.68 -3.87,9.5 -5.81,17.71 -5.81,24.65 0,4.28 0.97,10.91 2.9,19.89 1.95,8.98 2.91,15.62 2.91,19.91 0,4.48 0.82,8.92 2.45,13.31 1.64,4.38 2.46,8 2.46,10.87 0,0.81 0.81,3.62 2.45,8.41 1.63,4.8 2.44,9.75 2.44,14.85 0,0.41 -0.41,0.61 -1.22,0.61 -10.64,-15.5 -17.8,-24.28 -21.47,-26.32 -1.43,-0.82 -3.06,-2.25 -4.9,-4.29 2.25,-3.47 3.37,-5.41 3.37,-5.81 0,-3.27 -3.97,-8.88 -11.93,-16.84 l -3.37,-7.04 c -1.23,-1.23 -2.04,-1.84 -2.45,-1.84 l -6.73,0.61 -1.84,-2.44 1.84,-6.12 c -2.25,-4.7 -5.01,-7.46 -8.27,-8.28 l -1.22,-1.22 -0.62,-3.05 -3.06,-2.15 c -0.41,0 -0.61,-0.21 -0.61,-0.62 l 1.23,-6.12 c -0.82,-1.22 -1.99,-2.39 -3.53,-3.52 -1.53,-1.12 -3,-3.73 -4.43,-7.8 -1.44,-4.09 -3.78,-6.12 -7.04,-6.12 l -2.76,1.22 h -0.61 l -0.62,-5.82 0.62,-2.44 c 0,-1.64 -1.64,-3.48 -4.9,-5.52 l -3.06,-3.36 c 0,-2.45 -2.29,-5.98 -6.88,-10.57 -4.6,-4.59 -8.01,-8.72 -10.26,-12.39 -3.47,-1.83 -7.15,-5.2 -11.02,-10.11 -6.73,-5.71 -10.77,-9.33 -12.09,-10.86 -1.33,-1.53 -3.83,-2.5 -7.5,-2.91 -2.66,-2.86 -6.13,-4.64 -10.41,-5.36 -4.28,-0.71 -8,-1.68 -11.17,-2.91 -3.16,-1.22 -5.15,-1.83 -5.96,-1.83 -7.56,0 -15.11,2.96 -22.66,8.87 -5.1,0.21 -8.67,2.05 -10.71,5.51 l -13.17,11.95 c -8.36,12.44 -12.54,25.81 -12.54,40.09 0,2.86 0.45,5.36 1.37,7.5 0.92,2.15 1.38,3.63 1.38,4.45 0,0.81 -0.57,1.72 -1.68,2.75 -1.12,1.02 -1.69,1.93 -1.69,2.75 0,1.84 1.74,3.78 5.21,5.82 -2.45,2.46 -3.68,4.69 -3.68,6.73 0,1.84 0.81,4.18 2.45,7.04 1.64,2.87 2.86,4.29 3.68,4.29 0.81,0 2.24,-1.02 4.28,-3.06 0,-0.41 0.21,-0.61 0.62,-0.61 0.81,0 1.22,0.41 1.22,1.22 0,2.04 -1.12,3.68 -3.37,4.9 -2.25,1.22 -3.57,3.57 -3.97,7.04 -0.82,0.81 -1.23,1.43 -1.23,1.84 l 5.51,23.26 c 1.43,6.12 4.79,11.74 10.09,16.84 l 3.66,5.2"
         style="fill:#cc2271;fill-opacity:1;fill-rule:nonzero;stroke:none"
         transform="matrix(0.13333333,0,0,-0.13333333,0,1133.8533)" />
      <path
         id="path21"
         d="m 5191.74,3418.08 h 1.22 l 3.07,-1.23 c 0.41,0 0.82,0.21 1.23,0.62 0,3.46 1.63,6.42 4.91,8.87 1.02,3.88 3.32,6.84 6.9,8.88 3.58,2.04 9.25,5.41 17.03,10.11 l 7.67,6.73 3.68,1.83 2.45,3.07 c 2.26,2.64 4.4,3.97 6.45,3.97 3.06,0 4.6,-1.12 4.6,-3.37 l -2.76,-6.12 1.23,-10.1 c 0,-3.67 -1.28,-6.94 -3.83,-9.79 -2.55,-2.86 -6.49,-7.04 -11.8,-12.55 l -15.64,-16.53 -8.28,-4.29 c -2.04,-1.22 -3.87,-2.66 -5.5,-4.29 l -11.97,-10.1 c 0,-2.86 -0.92,-5 -2.75,-6.42 h -4.9 l -2.46,-1.23 c -1.43,-3.88 -5.62,-7.65 -12.56,-11.33 l -4.3,-3.06 c -1.44,-1.23 -2.75,-1.83 -3.98,-1.83 l -8.59,1.22 -5.82,-1.22 c -1.63,0 -3.84,0.81 -6.59,2.45 -2.76,1.63 -5.57,2.9 -8.43,3.82 -2.86,0.91 -6.49,4.69 -10.88,11.32 -4.39,6.64 -6.79,10.97 -7.2,13.01 0,0.82 -0.46,2.2 -1.38,4.14 -0.92,1.94 -1.38,3.11 -1.38,3.52 0,0.41 0.92,2.45 2.76,6.12 v 0.62 c 0,0.6 -0.57,2.03 -1.69,4.28 -1.13,2.24 -1.68,4.99 -1.68,8.27 0,1.83 -0.62,4.18 -1.84,7.04 1.63,1.63 2.45,2.85 2.45,3.67 0,0.81 -0.31,1.99 -0.92,3.52 -0.61,1.53 -0.91,2.7 -0.91,3.52 l 1.83,15 -1.22,7.66 0.61,7.34 c 0,4.29 -1.84,6.43 -5.49,6.43 -1.63,0 -3.66,-1.13 -6.11,-3.37 l -2.12,-0.61 c -5.5,-2.66 -9.36,-4.85 -11.61,-6.58 -2.23,-1.74 -4.57,-2.61 -7.01,-2.61 -1.22,-1.22 -3.56,-2.34 -7.02,-3.36 l -2.43,-1.83 c -0.82,-0.82 -2.44,-2.06 -4.88,-3.69 0,-0.6 -3.82,-4.03 -11.45,-10.25 -7.62,-6.22 -14.48,-12.09 -20.58,-17.6 -6.11,-5.51 -10.53,-8.52 -13.28,-9.03 -2.74,-0.51 -4.12,-3.12 -4.12,-7.8 0,-0.82 -1.82,-2.45 -5.49,-4.91 -0.4,0 -2.53,-2.24 -6.4,-6.72 -3.25,2.44 -5.08,3.67 -5.49,3.67 -2.66,0 -4.61,-3.37 -5.83,-10.11 -1.23,-2.66 -4.5,-4.29 -9.81,-4.89 -0.42,-0.21 -1.14,-1.74 -2.16,-4.59 l -1.22,-1.23 h -3.08 c -0.41,0 -1.84,-1.17 -4.3,-3.52 -2.45,-2.35 -4.6,-3.83 -6.44,-4.44 -2.66,-5.51 -4.91,-8.26 -6.75,-8.26 -0.82,0 -2,0.4 -3.53,1.22 -1.54,0.81 -3.42,1.53 -5.67,2.15 -2.25,0.6 -4.75,3.1 -7.5,7.5 -2.75,4.38 -4.13,8.1 -4.13,11.17 0,22.64 4.38,35 13.15,37.04 l 0.62,1.22 v 2.45 c 0,2.65 1.17,4.54 3.52,5.66 2.35,1.12 4.75,3.37 7.19,6.73 2.45,3.37 4.08,5.26 4.9,5.67 h 3.98 c 0.82,0 1.23,2.15 1.23,6.43 0,1.22 0.51,2.35 1.52,3.36 1.03,1.03 1.63,2.5 1.85,4.45 0.19,1.93 1.68,5.09 4.43,9.49 2.76,4.38 4.13,6.98 4.13,7.8 l -0.6,1.22 c -5.11,-4.7 -8.78,-7.25 -11.03,-7.65 -2.24,-0.41 -5.31,-3.36 -9.18,-8.87 l -4.9,0.92 c -8.58,-6.33 -13.9,-9.91 -15.94,-10.72 -2.05,-0.82 -4.3,-3.17 -6.75,-7.04 0,-1.23 -0.72,-2.05 -2.15,-2.45 -1.44,-0.41 -4.1,-2.04 -7.98,-4.9 h -1.85 c -5.11,0 -7.67,3.67 -7.67,11.02 l 6.42,17.45 c 1.83,5.51 6.16,10.15 13,13.93 6.83,3.77 12.59,7.39 17.28,10.87 4.68,3.47 9.38,5.3 14.07,5.51 l 2.14,3.05 c 6.93,2.66 11.62,6.84 14.07,12.56 2.44,5.71 5.81,8.57 10.1,8.57 11.21,0 19.77,-4.13 25.68,-12.4 5.92,-8.27 8.87,-14.85 8.87,-19.74 l 0.61,-8.27 c 0,-2.85 -0.61,-6.84 -1.83,-11.94 -2.44,-3.67 -3.67,-6.42 -3.67,-8.26 0,-1.64 1.02,-2.45 3.06,-2.45 1.22,0 2.85,0.86 4.88,2.6 2.05,1.74 4.34,3.32 6.89,4.74 2.55,1.43 4.02,2.65 4.44,3.68 2.03,4.9 5.6,8.27 10.7,10.1 5.09,1.84 8.26,3.37 9.48,4.59 l 3.05,2.45 2.46,4.59 c 5.49,2.46 9.17,4.69 11,6.74 1.84,2.03 4.29,3.36 7.35,3.98 3.06,0.61 6.53,2.45 10.4,5.51 l 4.59,1.23 4.27,2.44 c 0.41,0.41 1.63,0.91 3.68,1.53 2.04,0.62 5.04,1.69 9.02,3.21 3.97,1.54 6.68,2.3 8.1,2.3 10.4,0 18.61,-4.18 24.62,-12.55 6.02,-8.37 9.03,-15.11 9.03,-20.21 l -0.61,-5.5 1.22,-8.27 v -1.23 l -2.45,-16.83 0.62,-5.81 c 0,-9.6 -2.05,-16.23 -6.13,-19.9 -1.02,-0.41 -1.53,-1.43 -1.53,-3.06 v -2.76 l 6.12,-12.86 c 1.84,-4.49 3.27,-6.73 4.29,-6.73 l 9.82,2.76 c 2.87,0.81 5.22,2.95 7.06,6.42 1.64,0.82 4.5,3.27 8.6,7.35 1.22,3.26 3.16,4.9 5.83,4.9"
         style="fill:#cc2271;fill-opacity:1;fill-rule:nonzero;stroke:none"
         transform="matrix(0.13333333,0,0,-0.13333333,0,1133.8533)" />
      <path
         id="path22"
         d="m 5338.35,3427.56 3.67,5.21 c 1.23,1.63 3.32,2.86 6.28,3.67 2.96,0.82 5.36,2.56 7.2,5.21 4.89,6.94 10.71,12.04 17.44,15.31 l 3.07,2.14 c 3.05,5.91 5.81,9.13 8.26,9.64 2.45,0.5 4.59,2.35 6.43,5.51 1.84,3.17 2.76,5.76 2.76,7.81 0,0.81 -0.62,1.22 -1.84,1.22 -2.86,0 -5.36,-0.81 -7.5,-2.45 -2.15,-1.64 -3.63,-2.45 -4.44,-2.45 l -6.13,0.62 c -3.67,-2.05 -8.77,-4.49 -15.3,-7.35 l -5.51,-4.59 c -2.45,-1.64 -4.64,-2.66 -6.58,-3.06 -1.94,-0.41 -3.43,-1.69 -4.44,-3.83 -1.03,-2.15 -2.34,-3.21 -3.98,-3.21 l -2.45,-1.23 c -0.82,-0.81 -3.16,-1.22 -7.04,-1.22 -2.04,-1.22 -4.13,-2.96 -6.28,-5.21 -2.14,-2.24 -3.42,-3.37 -3.83,-3.37 -4.69,-5.1 -8.72,-8.26 -12.09,-9.49 -3.36,-1.22 -5.55,-2.96 -6.58,-5.2 -3.87,-1.02 -7.14,-3.32 -9.79,-6.89 -2.66,-3.57 -5.05,-6.02 -7.19,-7.34 -2.15,-1.33 -4.03,-3.02 -5.66,-5.05 l -3.07,-2.45 c -1.22,-0.82 -2.91,-3.53 -5.05,-8.12 -2.15,-4.59 -3.21,-7.8 -3.21,-9.64 0,-1.23 0.71,-1.83 2.14,-1.83 2.04,0 5.87,1.47 11.48,4.43 5.61,2.96 9.23,5.25 10.87,6.89 1.63,1.64 2.75,2.45 3.36,2.45 l 11.63,-0.61 c 1.23,2.65 3.32,4.39 6.28,5.21 2.96,0.81 5.25,2.54 6.88,5.19 1.64,2.66 6.24,5.52 13.78,8.58 l 3.37,5.5 z m 5.47,-97.64 -9.18,-1.23 c -2.26,1.64 -3.99,2.45 -5.21,2.45 -0.82,0 -1.43,-0.61 -1.83,-1.84 -2.45,-3.26 -7.86,-6.01 -16.23,-8.26 -8.37,-2.25 -14.04,-4.54 -16.99,-6.89 -2.96,-2.35 -5.46,-3.62 -7.5,-3.82 -2.05,-0.21 -3.06,-0.62 -3.06,-1.23 -2.04,-1.63 -3.58,-3.06 -4.59,-4.29 -2.04,-0.81 -4.08,-2.09 -6.12,-3.82 -2.05,-1.74 -4.19,-2.8 -6.43,-3.22 -3.67,-7.96 -6.33,-11.94 -7.96,-11.94 -0.41,0 -1.43,0.21 -3.07,0.62 h -0.6 c -2.66,-5.31 -4.7,-8.37 -6.12,-9.19 -1.43,-0.81 -2.66,-1.99 -3.69,-3.52 -1.01,-1.53 -3,-3.21 -5.96,-5.04 -2.95,-1.85 -4.94,-4.96 -5.97,-9.35 -1.02,-4.38 -2.29,-7.34 -3.83,-8.88 -1.53,-1.52 -2.5,-4.94 -2.91,-10.25 l -1.83,-4.29 c -0.61,-1.22 -1.48,-4.73 -2.6,-10.55 -1.12,-5.82 -1.69,-8.83 -1.69,-9.04 0,-2.85 1.23,-5.4 3.68,-7.64 0.81,1.01 2.55,1.72 5.2,2.13 l 18.06,7.35 c 0.62,0.41 2.85,2.29 6.74,5.66 3.87,3.37 7.29,5.57 10.25,6.58 2.95,1.03 5.67,2.87 8.11,5.51 1.63,2.45 3.62,4.49 5.98,6.13 2.34,1.64 3.72,3.68 4.13,6.12 4.69,4.09 8.97,7.91 12.85,11.48 3.88,3.58 6.38,6.54 7.5,8.88 1.12,2.34 2.91,4.34 5.36,5.97 l 1.22,3.98 c 0.41,0.21 1.28,0.46 2.61,0.76 1.32,0.31 3.51,3.63 6.58,9.95 l 8.26,13.77 c 4.9,4.91 8.88,11.14 11.95,18.68 l 4.27,3.68 c 0.82,0.41 1.23,1.32 1.23,2.75 z m -110.48,-157.35 -4.89,-3.37 c -2.04,-1.23 -4.18,-1.83 -6.43,-1.83 -5.11,0 -10.05,3.37 -14.85,10.1 -4.79,6.73 -7.19,13.68 -7.19,20.82 0,12.85 1.27,21.99 3.82,27.39 2.56,5.41 4.03,9.44 4.44,12.1 0,0.2 2.2,5.25 6.58,15.14 4.4,9.91 8.53,17.41 12.4,22.5 3.88,5.11 7.15,9.91 9.8,14.39 l 1.22,2.45 c 3.06,4.9 6.03,8.27 8.88,10.11 0,1.22 3.92,5.46 11.79,12.7 7.85,7.25 15.25,13.42 22.18,18.52 l 3.07,4.29 c 4.89,3.05 7.75,4.59 8.57,4.59 l 17.76,4.9 c 1.63,1.63 5.6,4.78 11.93,9.48 h 2.45 l 8.26,2.45 c 4.5,2.04 11.47,3.93 20.93,5.67 9.46,1.72 14.83,3.76 16.12,6.12 1.29,2.34 2.38,4.54 3.27,6.58 0.89,2.04 3.12,6.32 6.7,12.85 0.81,3.48 1.53,6.23 2.14,8.27 0.61,2.03 1.27,3.27 1.99,3.68 0.71,0.41 1.88,2.39 3.52,5.96 1.63,3.58 3.26,6.58 4.9,9.04 0.41,0 0.61,0.2 0.61,0.61 l -1.84,5.21 c 1.64,4.89 3.32,7.9 5.05,9.02 1.73,1.12 2.61,1.88 2.61,2.29 l -2.15,5.52 5.21,11.32 c 0,0.82 -0.41,1.23 -1.22,1.23 -10.82,-7.56 -17.15,-11.33 -18.99,-11.33 -1.02,-1.42 -3.26,-3.87 -6.73,-7.34 -3.46,-1.23 -5.81,-3.37 -7.03,-6.44 l -2.44,-0.6 -1.83,-3.07 c 0,-0.41 -0.72,-0.92 -2.14,-1.52 -1.43,-0.62 -4.28,-2.26 -8.56,-4.9 l -3.67,0.61 c -0.81,0 -1.84,-2.04 -3.06,-6.12 -3.46,-4.09 -6.77,-6.58 -9.93,-7.5 -3.16,-0.92 -5.14,-1.99 -5.96,-3.22 l -2.45,-3.06 -3.05,0.61 c -4.28,0 -6.42,-1.64 -6.42,-4.9 0,-1.83 -1.23,-3.97 -3.66,-6.42 -1.64,0 -3.68,-0.62 -6.11,-1.84 h -4.59 c -2.05,-4.49 -5.71,-7.25 -11.01,-8.26 l -8.87,-6.13 -5.19,-1.83 c -2.44,-1.23 -4.9,-2.72 -7.34,-4.44 -2.45,-1.74 -6.62,-2.81 -12.53,-3.22 -2.85,1.63 -7.23,3.22 -13.15,4.75 -5.92,1.52 -10.11,11.47 -12.55,29.84 h -0.61 c -1.64,0 -3.42,-0.61 -5.37,-1.83 -1.93,-1.22 -3.31,-1.84 -4.13,-1.84 -4.89,0 -7.34,2.04 -7.34,6.12 0,9.18 3.47,15.2 10.41,18.06 l 7.65,9.49 19.6,19.29 c 13.7,13.67 22.9,22.44 27.6,26.33 4.71,3.86 9.83,7.64 15.35,11.32 l 15.64,10.41 c 5.32,3.46 8.59,5.36 9.82,5.66 1.22,0.31 2.51,0.97 3.84,1.99 1.33,1.02 5.06,2.55 11.19,4.59 l 5.53,2.45 c 11.46,3.88 18.82,5.81 22.09,5.81 l 4.3,-0.6 c 2.24,0 4.39,0.81 6.44,2.45 2.86,0 7.26,2.24 13.2,6.73 l 11.04,3.06 c 3.07,1.02 5.63,1.53 7.67,1.53 h 5.82 c 4.28,0 7.09,-3.36 8.42,-10.1 1.32,-6.74 2.5,-10.1 3.52,-10.1 0.41,0 1.63,1.53 3.67,4.59 l 4.29,3.06 c 3.06,2.04 5,3.07 5.82,3.07 4.89,0 7.96,-2.05 9.18,-6.13 v -0.61 l 1.22,-1.54 c 1.84,-9.79 2.75,-15.81 2.75,-18.05 0,-9.8 -2.09,-17.45 -6.27,-22.96 -4.18,-5.51 -6.68,-9.4 -7.5,-11.63 -4.08,-16.54 -8.16,-28.99 -12.24,-37.36 -1.03,-2.24 -3.48,-8.16 -7.35,-17.75 l -3.06,-3.06 c -0.82,-0.41 -1.22,-1.02 -1.22,-1.83 l 0.61,-4.29 c -3.47,-5.51 -5.2,-9.9 -5.2,-13.16 0,-1.84 -1.64,-5.62 -4.91,-11.33 0.41,-0.41 2.19,-1.49 5.36,-3.21 3.16,-1.74 6.74,-5 10.72,-9.8 3.97,-4.79 5.97,-8.42 5.97,-10.87 0,-0.61 -1.13,-4.59 -3.37,-11.93 -7.35,-5.52 -13.58,-8.27 -18.68,-8.27 -2.05,0 -5.02,1.32 -8.9,3.98 l -1.85,-0.61 v 1.22 c -2.65,0.61 -4.75,1.38 -6.29,2.3 -1.53,0.92 -3.01,1.38 -4.45,1.38 -1.64,0 -2.45,-0.82 -2.45,-2.45 0,-0.81 0.21,-1.63 0.62,-2.45 -1.23,-1.02 -2.87,-2.55 -4.92,-4.59 0,-0.62 -1.43,-3.63 -4.29,-9.04 -2.86,-5.4 -5.42,-9.03 -7.68,-10.87 -4.48,-0.19 -7.55,-3.56 -9.18,-10.09 -1.63,-6.54 -3.57,-10.72 -5.82,-12.55 l -3.06,1.22 c -6.94,-13.88 -13.87,-23.88 -20.82,-30 -4.27,-1.02 -6.47,-1.79 -6.58,-2.3 -0.1,-0.51 -0.3,-1.83 -0.6,-3.97 -0.32,-2.15 -2.76,-5.52 -7.36,-10.11 -4.59,-4.59 -7.29,-6.88 -8.1,-6.88 l -3.07,-0.62 -1.84,-1.84 c 0.21,-4.08 -5.2,-10.6 -16.22,-19.59 -5.92,-3.26 -9.08,-5.5 -9.49,-6.73 -1.63,-3.88 -7.65,-8.47 -18.05,-13.77 l -5.82,-5.21 c -2.65,-2.45 -5.31,-4.18 -7.96,-5.2 l -7.66,-2.76"
         style="fill:#cc2271;fill-opacity:1;fill-rule:nonzero;stroke:none"
         transform="matrix(0.13333333,0,0,-0.13333333,0,1133.8533)" />
      <path
         id="path23"
         d="m 5582.14,3501.04 -3.67,-1.84 c -0.82,-0.42 -3.22,-2.19 -7.2,-5.36 -3.98,-3.16 -7.85,-5.71 -11.63,-7.65 -3.78,-1.95 -7.65,-7 -11.63,-15.15 -3.98,-8.16 -5.97,-12.86 -5.97,-14.08 0,-1.23 0.61,-1.84 1.84,-1.84 l 10.41,4.59 c 3.86,1.84 7.5,4.18 10.86,7.04 3.37,2.85 8.21,6.32 14.54,10.41 l 2.45,2.44 c 0.41,0.82 2.29,2.3 5.66,4.45 3.37,2.14 5.87,4.23 7.5,6.27 l 3.07,1.23 c 3.47,5.51 6.98,8.87 10.56,10.1 3.56,1.23 5.36,2.45 5.36,3.67 0,2.45 -1.95,3.68 -5.82,3.68 -1.64,0 -4.09,-1.03 -7.35,-3.07 h -7.04 c -0.82,0 -3.06,-1.22 -6.74,-3.67 z m -64.74,-18.37 6.43,5.21 c 4.89,0.4 7.55,2.94 7.95,7.64 0.41,4.7 3.78,8.78 10.1,12.25 l 3.67,5.2 c 3.05,3.07 11.41,7.04 25.08,11.95 3.47,2.03 5.82,3.86 7.05,5.5 0.4,0.4 0.81,0.62 1.22,0.62 l 4.89,-1.23 c 2.66,0 6.06,0.71 10.24,2.15 4.18,1.42 8.22,2.14 12.09,2.14 l 12.85,0.61 c 0.82,0 2.49,-0.61 5.04,-1.83 2.55,-1.23 5.67,-1.84 9.34,-1.84 4.48,0 8.61,-2.05 12.38,-6.12 3.78,-4.1 5.67,-7.86 5.67,-11.33 0,-6.33 -3.27,-12.76 -9.78,-19.29 -6.51,-6.53 -11.71,-10.2 -15.58,-11.02 -3.46,-3.47 -6.11,-5.66 -7.94,-6.58 -1.84,-0.92 -3.72,-2.35 -5.66,-4.28 -1.93,-1.95 -3.51,-2.91 -4.73,-2.91 -0.83,0 -1.43,0.25 -1.84,0.76 -0.41,0.51 -1.02,0.77 -1.84,0.77 -3.26,0 -6.81,-3.98 -10.68,-11.94 l -5.5,0.61 c -3.47,-2.24 -5.71,-4.7 -6.73,-7.35 -1.01,-2.65 -3.15,-3.98 -6.41,-3.98 -7.54,-7.55 -12.63,-11.32 -15.28,-11.32 -0.41,0 -1.83,0.41 -4.28,1.23 -1.63,-2.06 -2.44,-4.19 -2.44,-6.44 0,-2.45 -1.64,-3.88 -4.9,-4.29 l -3.96,-3.67 -3.06,0.62 -6.11,-6.43 c -3.06,0 -6.21,-1.02 -9.47,-3.07 -0.42,-2.45 -1.03,-5.55 -1.84,-9.33 -0.82,-3.78 -1.22,-5.87 -1.22,-6.27 0,-5.93 5.4,-8.89 16.22,-8.89 l 14.7,2.15 c 3.87,0 7.5,1.02 10.87,3.06 3.36,2.04 6.99,3.06 10.86,3.06 1.24,0 3.07,0.4 5.52,1.22 l 3.06,-1.22 c 1.42,3.06 4.08,5.81 7.96,8.27 3.87,2.45 6.94,3.67 9.19,3.67 l 3.05,1.83 c 0.82,2.45 2.05,4.09 3.69,4.91 l 2.44,2.13 c 1.63,1.63 3.16,2.46 4.6,2.46 h 4.27 l 1.23,0.61 c 2.46,5.3 5.86,8.42 10.26,9.34 4.39,0.91 7.15,2.39 8.27,4.43 1.11,2.04 3.11,3.26 5.97,3.68 2.85,0.4 5.25,1.78 7.19,4.13 1.94,2.35 4.33,4.54 7.19,6.58 2.86,2.04 4.85,3.57 5.98,4.59 1.12,1.02 2.09,1.54 2.91,1.54 1.22,0 1.83,-0.92 1.83,-2.76 0,-1.84 0.41,-2.76 1.22,-2.76 0.83,0 1.24,0.41 1.24,1.23 0,0.81 -0.21,1.84 -0.62,3.06 v 2.15 c 0,3.05 1.63,5.09 4.9,6.12 l 13.77,8.88 c 0.41,4.28 1.58,6.77 3.53,7.5 1.93,0.71 3.42,1.52 4.44,2.44 1.02,0.92 2.14,1.38 3.36,1.38 2.66,0 3.98,-1.53 3.98,-4.6 l -1.53,-7.95 1.53,-8.27 c 0,-1.22 -0.96,-2.91 -2.91,-5.05 -1.94,-2.14 -3.42,-5.41 -4.44,-9.79 -1.02,-4.39 -2.34,-6.79 -3.98,-7.2 h -1.84 c -3.68,-3.87 -6.59,-6.17 -8.73,-6.88 -2.15,-0.73 -3.84,-1.99 -5.06,-3.83 l -10.41,-11.94 c -2.05,-2.04 -3.79,-3.88 -5.21,-5.51 -1.44,-1.63 -2.56,-2.45 -3.37,-2.45 l -2.45,2.45 c 0,0.41 -0.41,0.61 -1.22,0.61 -2.06,0 -3.33,-1.23 -3.83,-3.67 -0.52,-2.45 -1.59,-4.6 -3.23,-6.43 -6.12,-2.87 -10.1,-5.51 -11.95,-7.96 l -1.83,-0.61 h -5.51 c -2.66,0 -4.49,-1.99 -5.52,-5.97 -1.03,-3.98 -3.94,-6.27 -8.73,-6.89 -4.8,-0.61 -8.22,-1.84 -10.26,-3.67 -0.41,-0.41 -1.33,-0.82 -2.77,-1.22 -1.42,-0.42 -4.28,-2.05 -8.57,-4.9 l -25.73,-9.18 c -2.05,-1.03 -3.37,-1.54 -3.99,-1.54 l -8.57,-1.23 c -1.23,0 -2.45,0.82 -3.68,2.45 -1.23,1.63 -2.05,2.45 -2.46,2.45 l -5.5,-1.83 c -4.1,-1.22 -7.97,-1.84 -11.64,-1.84 -2.05,0 -4.3,0.72 -6.75,2.14 -2.45,1.43 -4.4,2.45 -5.82,3.07 -5.92,0 -10.11,4.59 -12.56,13.77 l -3.67,-0.61 c -0.82,0 -3.58,7.24 -8.27,21.73 -1.23,1.63 -3.18,2.8 -5.82,3.53 -2.66,0.71 -3.98,2.7 -3.98,5.96 0,9.18 1.98,15.35 5.97,18.53 3.97,3.15 6.17,5.55 6.58,7.19 l 4.28,15.91 c 0.81,0.62 1.83,2.66 3.06,6.13 l 7.03,12.86 c 0.82,1.42 2.65,4.99 5.51,10.71"
         style="fill:#cc2271;fill-opacity:1;fill-rule:nonzero;stroke:none"
         transform="matrix(0.13333333,0,0,-0.13333333,0,1133.8533)" />
      <path
         id="path24"
         d="m 5770.51,3511.75 6.42,3.67 c 0.82,3.27 3.48,7.2 7.96,11.79 4.49,4.59 7.66,6.89 9.49,6.89 h 2.46 c 0,1.42 0.3,2.85 0.91,4.28 0.62,1.43 0.92,3.37 0.92,5.81 0,1.23 2.76,4.6 8.26,10.11 l 2.45,5.51 c 1.84,5.3 6.43,9.69 13.78,13.16 2.86,5.92 5,8.88 6.43,8.88 l 2.45,0.62 c 0.81,3.05 2.45,5.81 4.89,8.26 l 1.23,1.83 v 4.91 c 0,0.4 1.38,2.09 4.13,5.04 2.76,2.96 4.75,5.72 5.97,8.27 1.23,2.54 2.91,4.54 5.05,5.97 2.15,1.43 3.62,3.98 4.44,7.65 l 4.9,0.61 c 0,2.65 0.2,4.39 0.61,5.21 l 0.62,3.06 c 1.01,2.45 4.59,8.87 10.71,19.28 l 4.9,11.33 c 0,1.22 0.86,2.71 2.6,4.43 1.73,1.74 2.6,4.24 2.6,7.5 l 2.45,10.11 c 0,4.69 -0.82,7.04 -2.45,7.04 -2.04,-1.43 -3.93,-2.45 -5.66,-3.06 -1.74,-0.61 -3.42,-4.28 -5.06,-11.02 -6.12,-1.42 -9.63,-4.33 -10.55,-8.72 -0.92,-4.39 -3.42,-8.11 -7.5,-11.18 l -2.15,-3.67 c -0.41,-2.25 -2.34,-4.59 -5.81,-7.04 -3.48,-2.45 -6.74,-6.63 -9.8,-12.55 -10.2,-14.08 -15.82,-21.63 -16.83,-22.66 l -3.07,-3.67 -4.59,0.61 c 0.81,-3.27 1.22,-5.1 1.22,-5.5 0,-1.23 -0.6,-2.41 -1.83,-3.53 -1.22,-1.12 -2.14,-2.5 -2.76,-4.13 -0.6,-1.63 -1.83,-3.52 -3.67,-5.66 -1.84,-2.14 -3.51,-5.62 -5.05,-10.41 -1.53,-4.8 -2.91,-7.6 -4.13,-8.42 l -4.29,0.61 c -2.65,-1.63 -3.98,-3.26 -3.98,-4.9 l 0.92,-4.28 c 0,-0.82 -0.56,-1.79 -1.68,-2.91 -1.13,-1.12 -2.2,-3.32 -3.21,-6.58 -1.03,-3.27 -3.58,-8.22 -7.66,-14.84 -4.08,-6.64 -7.3,-13.68 -9.64,-21.13 -2.35,-7.45 -4.65,-12.19 -6.89,-14.23 0.41,-0.41 1.02,-0.62 1.83,-0.62 2.66,0 5.21,2.75 7.66,8.27 z m -62.12,-81.12 v 2.14 c 0,2.86 0.2,5.1 0.61,6.74 -1.22,3.26 -1.83,6.22 -1.83,8.87 0,0.41 1.01,3.27 3.05,8.58 l 2.76,9.48 c 1.42,3.68 2.24,5.62 2.45,5.82 -1.22,3.26 -1.84,5.1 -1.84,5.51 0,4.7 1.33,8.57 3.98,11.63 2.65,3.07 4.9,7.35 6.74,12.86 l 6.11,18.67 10.1,24.49 c 0.19,0.62 1.17,2.25 2.9,4.9 1.73,2.65 3.16,4.95 4.29,6.89 1.11,1.94 2.7,4.75 4.74,8.42 l 3.06,0.6 c 0.81,0.83 1.23,1.64 1.23,2.46 0,0.41 -0.42,2.04 -1.23,4.9 l 10.71,17.75 6.44,13.17 c 2.03,3.46 4.27,5.71 6.72,6.72 4.09,7.55 7.66,12.14 10.72,13.78 1.23,3.88 3.46,8.06 6.74,12.55 l 5.82,0.62 c 1.01,2.85 2.03,5 3.05,6.42 l 0.62,6.13 c 0,-1.22 0.51,-0.87 1.52,1.07 1.03,1.93 2.56,5.56 4.6,10.87 l 8.26,9.48 2.45,4.29 c 1.02,1.43 2.65,4.18 4.9,8.27 3.06,1.22 5.61,3.47 7.65,6.73 l 6.43,5.21 c -0.41,2.24 2.04,7.24 7.35,15 3.47,1.42 6.62,3.26 9.48,5.5 l 4.29,1.23 c 0,7.14 2.55,12.03 7.66,14.69 l 3.67,2.45 c 3.26,1.63 5.1,2.45 5.51,2.45 l 2.15,0.62 c 2.44,0.81 5.3,1.22 8.56,1.22 7.55,0 14.4,-2.81 20.52,-8.42 6.12,-5.61 9.18,-11.99 9.18,-19.13 0,-2.86 -1.54,-5.82 -4.59,-8.88 l -1.23,-2.45 c -2.85,-11.23 -4.9,-16.83 -6.13,-16.83 -0.81,0 -1.93,-0.62 -3.35,-1.84 -0.42,-6.74 -0.83,-10.52 -1.24,-11.33 -3.67,-0.61 -5.5,-5.2 -5.5,-13.78 -0.41,-1.22 -1.89,-3.32 -4.44,-6.27 -2.56,-2.96 -4.55,-7.04 -5.97,-12.24 -1.43,-5.21 -2.96,-7.81 -4.59,-7.81 h -3.37 l 0.92,-4.6 c 0,-2.86 -1.38,-5.66 -4.14,-8.41 -2.75,-2.76 -4.43,-5.67 -5.04,-8.72 -0.62,-3.07 -3.07,-6.74 -7.35,-11.03 l -3.06,-4.89 c -1.22,-2.04 -2.87,-4.19 -4.9,-6.43 -2.05,-2.25 -3.78,-5.72 -5.2,-10.41 l -7.96,-14.69 c -5.52,-10 -9.7,-14.8 -12.56,-14.39 -1.84,-7.96 -3.06,-12.55 -3.67,-13.78 -0.61,-1.22 -2.04,-2.34 -4.29,-3.36 -2.24,-1.02 -3.97,-2.81 -5.19,-5.36 -1.23,-2.56 -2.56,-4.44 -3.99,-5.66 l -5.51,-11.33 c -3.27,-1.43 -5.61,-4.08 -7.04,-7.96 -3.27,-0.82 -5.31,-3.58 -6.12,-8.26 -0.82,-0.82 -1.84,-2.66 -3.07,-5.51 l -10.71,-10.72 c -5.51,-3.88 -8.47,-8.31 -8.88,-13.31 -0.41,-5 -3.05,-7.5 -7.96,-7.5 -3.46,0 -8.56,1.53 -15.3,4.59 h -0.61 c -0.61,-2.87 -2.04,-6.03 -4.29,-9.5 l 1.23,-8.26 c 0,-1.02 -1.64,-7.45 -4.9,-19.28 1.63,-3.06 2.45,-5.21 2.45,-6.43 l -0.62,-6.74 1.54,-8.26 c 1.01,-6.74 3.46,-10.11 7.34,-10.11 l 7.34,-1.22 c 0.41,0 2.96,1.53 7.65,4.59 l 11.32,6.12 c 0.41,0 0.61,-0.2 0.61,-0.6 2.05,-0.82 3.68,-1.23 4.9,-1.23 2.04,0 3.05,1.63 3.05,4.9 v 3.98 c 1.23,2.04 2.71,3.26 4.44,3.67 1.74,0.41 3.32,1.33 4.74,2.75 1.43,1.43 2.55,2.15 3.37,2.15 h 3.06 c 3.06,0 4.59,3.56 4.59,10.71 0.81,0.41 1.84,1.22 3.06,2.45 h 3.67 c 1.63,0 3.42,2 5.35,5.97 1.93,3.98 3.31,6.38 4.13,7.2 3.67,0.4 6.22,1.01 7.65,1.83 6.52,11.84 11.52,17.76 14.99,17.76 h 1.83 c 3.47,3.26 5.36,6.17 5.67,8.72 0.3,2.55 1.32,4.24 3.05,5.05 1.73,0.82 3.31,1.84 4.75,3.06 1.43,1.22 2.34,1.84 2.75,1.84 3.06,0 4.59,-1.12 4.59,-3.37 l -0.92,-8.57 2.14,-9.18 c 0,-0.82 -0.87,-2.41 -2.6,-4.75 -1.73,-2.34 -2.59,-4.95 -2.59,-7.8 0,-5.92 -1.03,-9.08 -3.07,-9.49 -2.04,-0.41 -3.72,-1.79 -5.05,-4.14 -1.32,-2.35 -3.51,-4.49 -6.58,-6.42 -3.06,-1.94 -5.4,-4.75 -7.03,-8.42 l -5.2,-1.23 -3.05,-1.84 c -2.45,-6.32 -5.06,-10.2 -7.81,-11.63 -2.76,-1.42 -6.18,-5.71 -10.25,-12.86 -0.61,0 -0.92,-0.2 -0.92,-0.6 l -4.89,0.6 c -1.83,-3.26 -3.67,-5.19 -5.51,-5.81 -1.83,-0.61 -3.37,-1.79 -4.59,-3.52 -1.22,-1.73 -3.41,-3.22 -6.57,-4.44 -3.16,-1.23 -5.16,-2.65 -5.97,-4.28 -0.82,-1.64 -2.04,-2.56 -3.67,-2.76 -1.63,-0.2 -3.16,-0.98 -4.59,-2.29 -1.42,-1.33 -2.64,-2 -3.67,-2 -0.41,0 -1.84,0.21 -4.29,0.62 h -1.22 c -3.46,-2.45 -6.33,-3.67 -8.56,-3.67 -2.66,0 -4.59,-0.42 -5.81,-1.23 -1.22,0.81 -3.12,1.42 -5.67,1.83 -2.55,0.41 -5.46,1.43 -8.72,3.07 -3.46,-0.82 -5.6,-1.23 -6.41,-1.23 -3.48,0 -7.86,3.42 -13.16,10.25 -5.31,6.84 -7.96,13.53 -7.96,20.06 0,0.2 -1.17,1.78 -3.51,4.75 -2.36,2.95 -3.53,6.16 -3.53,9.64 v 3.05 l 0.62,3.68 v 5.82 l 0.61,1.83 c 3.06,0.41 4.59,0.82 4.59,1.23 l -3.98,5.51"
         style="fill:#cc2271;fill-opacity:1;fill-rule:nonzero;stroke:none"
         transform="matrix(0.13333333,0,0,-0.13333333,0,1133.8533)" />
      <path
         id="path25"
         d="m 6089.79,3523.69 3.68,3.67 v 2.45 c 0,0.81 1.01,3.32 3.06,7.5 2.04,4.18 3.93,6.99 5.67,8.42 1.74,1.42 3.01,3.11 3.83,5.05 0.82,1.94 2.66,3.11 5.52,3.52 -1.23,2.04 -1.84,3.67 -1.84,4.89 l -1.22,5.82 c 0,0.41 0.6,1.22 1.83,2.46 l 1.84,2.45 c 1.02,0.81 2.34,1.83 3.98,3.05 1.63,1.22 2.55,2.91 2.76,5.05 0.2,2.15 1.69,5.1 4.44,8.88 2.76,3.78 4.85,5.66 6.29,5.66 1.42,0 2.65,0.41 3.67,1.23 1.03,0.81 1.94,1.22 2.76,1.22 1.23,0 2.3,-0.91 3.22,-2.75 0.92,-1.84 1.58,-2.75 1.99,-2.75 1.64,0 2.45,1.01 2.45,3.05 0,1.03 -0.97,1.79 -2.91,2.3 -1.94,0.51 -3.22,1.58 -3.83,3.21 -0.61,1.63 -1.23,3.02 -1.83,4.14 -0.62,1.11 -0.92,1.89 -0.92,2.3 0,1.63 0.97,3.46 2.9,5.5 1.94,2.05 3.73,3.06 5.37,3.06 1.63,0 3.27,0.92 4.9,2.76 -2.45,1.23 -3.68,2.65 -3.68,4.28 2.45,2.45 4.85,6.08 7.21,10.87 2.34,4.8 4.95,7.2 7.81,7.2 0.4,0 1.43,-0.41 3.07,-1.23 0.4,0.82 1.53,3.57 3.37,8.27 l -2.15,6.12 c 3.87,5.51 6.64,8.67 8.28,9.49 l 2.45,1.84 c 1.22,5.7 6.02,10.51 14.4,14.39 10.82,11.42 17.36,17.13 19.61,17.13 0.4,0 1.22,-0.71 2.45,-2.13 l 3.06,0.91 c 1.23,0 1.85,-0.72 1.85,-2.15 -6.55,-6.11 -9.81,-9.38 -9.81,-9.79 h 0.31 c 0.61,0.41 1.37,1.03 2.29,1.84 0.92,0.82 2.51,2.24 4.76,4.28 0,-0.81 0.4,-1.22 1.22,-1.22 2.24,2.85 3.37,5.82 3.37,8.88 0,0.41 -1.13,1.22 -3.37,2.45 l -0.62,1.84 c 0,1.22 3.63,5 10.88,11.32 7.26,6.32 15.18,11.94 23.75,16.84 l 3.02,3.67 c 0.8,1.02 1.9,1.54 3.31,1.54 1.61,0 4.02,-1.13 7.24,-3.37 l 1.2,0.6 c -0.4,0.82 -0.61,2.35 -0.61,4.6 0,1.22 0.81,2.03 2.41,2.44 2.01,3.07 6.36,5.72 13.06,7.96 6.69,2.25 11.27,4.4 13.71,6.44 l 6.44,2.45 c 3.26,0.4 6.06,1.01 8.41,1.83 2.35,0.81 5.15,1.23 8.42,1.23 0.62,0 2.25,0.66 4.89,1.99 2.66,1.32 4.6,1.98 5.82,1.98 1.23,0 3.47,-1.33 6.74,-3.97 0,-0.42 0.4,-0.62 1.22,-0.62 l 3.98,2.75 h 0.61 c 2.87,-2.64 5.92,-5.19 9.19,-7.64 8.57,-6.33 12.85,-13.99 12.85,-22.96 l -1.53,-12.86 0.62,-10.72 c 0,-3.47 -1.63,-6.53 -4.9,-9.18 -1.43,-9.19 -3.27,-15.77 -5.51,-19.74 -2.25,-3.99 -4.04,-9.45 -5.35,-16.38 -1.33,-6.94 -7.31,-16.64 -17.92,-29.08 0,-0.41 -1.27,-2.2 -3.82,-5.36 -2.55,-3.17 -5.67,-8.72 -9.34,-16.68 -5.71,-6.12 -9.34,-10.98 -10.87,-14.54 -1.52,-3.58 -4.43,-6.28 -8.72,-8.12 h -1.23 l 1.23,-6.73 c -7.76,-12.65 -15.38,-18.98 -22.87,-18.98 -4.62,0 -9.2,2.09 -13.71,6.28 -4.52,4.18 -6.78,8.42 -6.78,12.7 0,9.99 11.59,22.14 34.79,36.43 0.41,0 1.23,-0.21 2.45,-0.62 l 2.45,4.29 c -0.82,1.63 -1.23,2.65 -1.23,3.06 0,2.86 3.16,6.23 9.49,10.11 2.85,5.91 5.92,9.08 9.18,9.49 l 11.94,18.67 1.22,3.06 v 4.59 c 0,0.82 2.15,2.65 6.44,5.51 l 0.61,1.22 v 6.43 c 0,2.45 1.63,4.49 4.9,6.12 0.81,1.03 1.68,4.34 2.6,9.95 0.91,5.62 2.6,10.67 5.05,15.16 -0.82,9.59 -1.99,15.46 -3.52,17.6 -1.53,2.15 -3.94,3.21 -7.2,3.21 -2.85,0 -7.64,-1.79 -14.38,-5.35 -6.73,-3.57 -11.13,-5.36 -13.17,-5.36 -0.82,0 -1.63,0.31 -2.45,0.92 -0.81,0.61 -1.63,0.91 -2.44,0.91 -1.03,0 -2.04,-1.06 -3.07,-3.21 -1.02,-2.14 -2.24,-3.42 -3.67,-3.83 -1.42,-0.41 -3.21,-1.52 -5.36,-3.37 -2.14,-1.83 -5.05,-3.56 -8.72,-5.19 l -4.89,-6.44 -5.2,-3.67 c -0.61,-4.29 -3.26,-6.42 -7.95,-6.42 -1.02,0 -2.75,-2.46 -5.2,-7.35 l -2.45,-2.45 h -4.9 l -0.6,-2.75 v -3.07 c 0,-1.22 -0.71,-2.25 -2.14,-3.06 l -11.62,-12.55 -2.14,-1.23 h -2.45 l -1.22,-0.61 c -0.62,-7.34 -2.66,-11.12 -6.12,-11.32 0,-2.66 -2.95,-6.23 -8.87,-10.72 l -2.44,-3.06 h -3.98 l -0.61,-0.61 c 1.42,-1.22 2.13,-2.05 2.13,-2.45 0,-1.23 -1.17,-3.52 -3.51,-6.89 -2.34,-3.37 -4.13,-4.84 -5.35,-4.43 -0.81,-5.73 -2.76,-10.72 -5.81,-15 l -2.44,-4.59 c -1.23,-2.05 -2.46,-3.69 -3.68,-4.91 v -2.45 c 0,-5.3 -5,-10.09 -14.98,-14.38 l 1.83,-7.66 c -0.81,-1.63 -2.44,-4.08 -4.89,-7.34 l -2.75,-5.82 c -1.23,-3.67 -2.65,-5.92 -4.28,-6.73 -0.61,-1.84 -1.59,-3.48 -2.9,-4.9 -1.33,-1.43 -2,-2.55 -2,-3.37 l 0.62,-4.28 c -3.07,-5.52 -4.89,-9.44 -5.51,-11.79 -0.6,-2.35 -1.63,-4.55 -3.06,-6.58 -1.42,-2.04 -2.54,-4.34 -3.37,-6.89 -0.81,-2.55 -2.75,-5.26 -5.81,-8.11 -2.44,-8.78 -3.66,-13.57 -3.66,-14.39 l -4.29,-3.67 c 0,-0.42 -0.6,-1.95 -1.83,-4.59 l -0.61,-2.46 v -4.28 c 0,-2.65 -2.56,-5.81 -7.65,-9.49 2.45,-0.82 3.67,-2.45 3.67,-4.9 0,-4.7 -0.92,-8.26 -2.75,-10.71 -1.84,-2.45 -3.17,-4.95 -3.99,-7.5 -0.81,-2.55 -2.34,-5.87 -4.59,-9.95 2.25,-1.43 3.37,-3.17 3.37,-5.21 l -2.75,-20.5 2.13,-5.82 c -0.41,-0.42 -1.72,-1.02 -3.97,-1.83 0.4,-2.45 1.63,-4.55 3.67,-6.28 2.04,-1.74 5.21,-6.79 9.49,-15.16 0.81,-0.81 2.55,-1.22 5.21,-1.22 2.44,0 4.28,0.2 5.51,0.62 1.22,0.4 3.92,0.86 8.11,1.37 4.18,0.51 8.63,2.4 13.32,5.67 h 4.9 c 4.9,0 8.32,1.78 10.26,5.35 1.93,3.56 3.92,5.36 5.97,5.36 1.83,0 4.79,0.81 8.87,2.44 h 1.85 c 0.81,1.63 1.63,2.77 2.44,3.37 0.82,0.62 2.5,2.5 5.06,5.67 2.55,3.16 4.84,4.74 6.88,4.74 7.15,4.7 12.66,8.88 16.54,12.55 0.41,0.41 1.53,0.71 3.37,0.92 1.83,0.2 3.26,1.23 4.28,3.07 1.02,1.83 5.61,6.12 13.77,12.85 8.17,6.74 13.07,12.09 14.7,16.07 1.64,3.99 3.57,5.97 5.83,5.97 0.81,0 2.24,-0.21 4.28,-0.61 h 0.61 c 0.81,0 1.43,0.92 1.84,2.76 0.41,1.83 4.59,5.09 12.56,9.79 0.19,4.08 3.37,7.65 9.49,10.71 l 10.71,10.41 4.9,-0.61 c 1.23,0.81 1.94,2.65 2.14,5.51 0.21,2.86 1.84,4.79 4.91,5.82 h 2.45 l 1.83,1.22 c 1.43,6.74 3.77,10.11 7.04,10.11 h 2.46 c 1.63,0 2.45,1.93 2.45,5.81 0,3.67 4.38,6.53 13.16,8.57 l 6.12,3.06 c 0.41,0.61 1.33,0.91 2.76,0.91 5.3,0 7.96,-4.17 7.96,-12.54 0,-2.25 -0.82,-3.98 -2.45,-5.21 l -4.29,-3.67 -0.61,-5.21 -11.01,-10.09 c -1.84,-1.44 -2.86,-3.32 -3.07,-5.67 -0.2,-2.35 -0.81,-3.52 -1.84,-3.52 -0.6,-1.02 -1.88,-1.89 -3.82,-2.6 -1.94,-0.71 -3.22,-1.79 -3.82,-3.21 -2.86,-6.74 -7.35,-10.82 -13.47,-12.25 -3.48,-7.96 -6.74,-12.7 -9.79,-14.24 -3.07,-1.52 -4.8,-3.1 -5.21,-4.73 -0.81,-5.32 -3.57,-7.77 -8.26,-7.36 -7.55,-7.34 -12.34,-13.05 -14.39,-17.14 0,-0.41 -0.2,-0.61 -0.61,-0.61 l -4.28,0.61 c -0.42,-0.41 -1.48,-1.64 -3.22,-3.67 -1.73,-2.05 -4.08,-3.17 -7.03,-3.37 -2.96,-0.2 -5.05,-1.99 -6.28,-5.36 -1.22,-3.37 -2.35,-5.46 -3.36,-6.27 -1.03,-0.82 -2.15,-2.2 -3.37,-4.14 -1.23,-1.93 -2.45,-2.9 -3.67,-2.9 -1.84,0 -3.17,1.73 -3.98,5.21 -1.64,-0.82 -3.27,-2.36 -4.9,-4.6 l 1.84,-4.28 c 0,-0.82 -0.41,-1.53 -1.22,-2.15 -0.82,-0.61 -2.3,-2.6 -4.45,-5.97 -2.14,-3.37 -7.18,-5.66 -15.14,-6.88 -0.41,0 -1.22,-1.39 -2.45,-4.14 -1.23,-2.76 -4.09,-4.34 -8.57,-4.75 -4.29,-6.33 -7.86,-9.48 -10.71,-9.48 l -13.17,-4.29 c -2.24,0 -4.19,0.2 -5.81,0.62 -1.22,-2.86 -2.65,-4.29 -4.28,-4.29 l -4.29,-1.23 c -1.43,-2.04 -3.16,-3.06 -5.21,-3.06 -2.86,0 -4.28,0.81 -4.28,2.45 0,0.41 0.2,1.02 0.61,1.84 v 1.22 c 0,1.22 -0.41,1.84 -1.22,1.84 0,-8.78 -2.35,-13.17 -7.04,-13.17 -0.81,0 -3.06,0.82 -6.73,2.45 h -0.61 l -5.82,-3.05 c -0.41,-0.42 -1.22,-0.62 -2.45,-0.62 -7.54,0 -15.09,2.35 -22.64,7.04 h -3.07 c -6.33,0 -11.12,3.68 -14.38,11.02 l -0.61,1.23 c -4.9,1.22 -7.65,4.38 -8.26,9.48 -0.82,1.23 -2.86,3.37 -6.12,6.44 -0.41,2.85 -1.33,5.46 -2.76,7.8 -1.43,2.34 -2.15,3.72 -2.15,4.13 l -7.04,22.96 c -0.82,6.74 -1.22,12.25 -1.22,16.53 l -0.61,2.45 v 1.84 l 1.22,8.26 -0.61,3.07 c 0,1.63 1.89,7.65 5.67,18.06 3.77,10.41 6.17,18.16 7.18,23.26 1.03,5.1 1.95,8.27 2.76,9.49 l 8.89,23.88"
         style="fill:#cc2271;fill-opacity:1;fill-rule:nonzero;stroke:none"
         transform="matrix(0.13333333,0,0,-0.13333333,0,1133.8533)" />
      <path
         id="path26"
         d="m 6365.01,3482.06 4.3,-1.84 c 0.41,3.47 2.36,6.43 5.85,8.88 h 2.46 c 2.04,0 4.7,2.75 7.99,8.26 l 5.22,3.06 c 0.82,-0.41 2.05,-0.61 3.7,-0.61 1.22,0 2.39,0.81 3.53,2.45 1.13,1.63 3.94,4.8 8.45,9.49 h 1.23 c 1.24,0 2.73,0.92 4.47,2.76 1.74,1.83 4.04,2.75 6.91,2.75 l 10.46,2.75 c 3.26,0.81 5.1,1.22 5.51,1.22 1.84,0.62 6.33,-3.1 13.48,-11.17 7.13,-8.05 10.71,-15.87 10.71,-23.41 0,-4.29 -2.25,-6.84 -6.74,-7.65 l -1.53,-1.23 v -6.12 l -5.2,-11.33 c -1.43,-3.06 -3.17,-5 -5.2,-5.81 -1.84,-3.28 -3.18,-5.51 -3.99,-6.74 l -4.29,-0.61 -1.83,-1.83 v -7.66 c -1.84,-2.45 -4.49,-7.8 -7.96,-16.07 -3.47,-8.27 -5.21,-13.52 -5.21,-15.77 0,-3.87 0.82,-5.82 2.46,-5.82 1.23,0 2.45,0.51 3.67,1.54 1.23,1.01 2.91,2.18 5.05,3.51 2.14,1.33 3.73,2.71 4.74,4.14 1.02,1.43 3.17,2.7 6.43,3.82 3.26,1.13 6.32,3.22 9.18,6.28 2.85,3.07 4.89,5.1 6.11,6.12 1.22,1.02 2.55,2.4 3.99,4.14 1.41,1.72 2.34,2.6 2.74,2.6 1.23,0 3.16,0.4 5.82,1.22 0.4,2.25 0.81,3.88 1.22,4.91 l 7.33,3.67 17.76,15.92 2.44,3.05 c 3.26,0.81 5.3,1.43 6.11,1.84 1.63,5.51 4.39,9.49 8.27,11.94 0,0.81 1.01,1.43 3.06,1.84 1.62,3.26 3.71,5.86 6.26,7.8 2.55,1.94 4.64,4.34 6.28,7.2 l 7.03,5.81 c 2.04,0.82 3.47,2.04 4.29,3.68 10.6,9.38 17.18,14.74 19.73,16.06 2.54,1.33 6.68,2 12.39,2 5.7,0 10.35,-2.2 13.91,-6.59 3.57,-4.39 7.46,-7.7 11.63,-9.95 4.18,-2.24 6.28,-6.53 6.28,-12.85 0,-5.93 -4.59,-17.24 -13.78,-33.98 -5.91,-17.55 -8.98,-28.31 -9.17,-32.3 -0.21,-3.97 -1.13,-6.27 -2.76,-6.88 -1.64,-0.62 -2.45,-1.33 -2.45,-2.15 v -1.22 c 0,-4.89 0.81,-7.35 2.45,-7.35 1.22,0 2.9,1.02 5.05,3.06 2.14,2.04 6.47,4.29 12.99,6.74 l 2.74,-0.62 c 5.9,8.99 9.87,13.83 11.9,14.55 2.04,0.71 4.07,2.54 6.1,5.5 2.03,2.96 4.52,4.54 7.47,4.75 2.95,0.2 4.84,0.71 5.65,1.53 0.2,4.9 4.21,10.41 12.05,16.54 7.82,6.12 12.35,9.18 13.57,9.18 2.03,0 3.66,-1.54 4.88,-4.59 1.22,-3.07 2.49,-5.16 3.81,-6.28 1.32,-1.13 1.98,-2.09 1.98,-2.9 v -5.52 c 0,-2.66 -1.31,-4.39 -3.96,-5.21 -2.04,-4.49 -3.88,-7.14 -5.5,-7.96 l -5.5,0.62 c -1.02,-1.22 -1.89,-2.34 -2.6,-3.37 -0.72,-1.03 -1.18,-1.43 -1.37,-1.22 -1.63,-0.41 -4.53,-3.12 -8.71,-8.12 -4.17,-5 -7.89,-9.13 -11.14,-12.39 l -1.23,-1.83 c -1.63,-1.23 -3.16,-2.06 -4.58,-2.46 l -5.5,-4.59 c -2.03,1.23 -3.25,1.84 -3.67,1.84 -0.41,0 -1.27,-0.82 -2.59,-2.45 -1.33,-1.64 -3.98,-3.73 -7.94,-6.28 -3.98,-2.55 -6.98,-5.46 -9.02,-8.72 l -4.88,-4.9 -6.41,-0.92 c -0.62,0 -1.64,-0.92 -3.06,-2.75 l -5.5,-7.05 c -2.65,-3.46 -6.83,-5.2 -12.53,-5.2 -1.22,0 -2.8,1.07 -4.73,3.21 -1.93,2.15 -3.76,3.99 -5.49,5.52 -1.74,1.52 -5.61,6.12 -11.62,13.77 -6.03,7.66 -9.03,11.68 -9.03,12.1 l 1.84,10.71 -0.62,7.35 c 0,1.42 0.97,3.62 2.91,6.58 1.94,2.96 2.91,4.54 2.91,4.74 l -0.61,11.94 c 0.41,0.41 0.81,1.02 1.23,1.83 l 4.28,7.04 c -0.41,2.05 -0.61,4.29 -0.61,6.74 l 1.22,10.1 c -3.67,-1.63 -6.89,-4.95 -9.65,-9.94 -2.75,-5.01 -6.37,-7.5 -10.87,-7.5 -3.87,-6.94 -6.84,-10.31 -8.87,-10.11 -0.82,-0.82 -1.44,-1.63 -1.84,-2.45 l -4.29,-2.44 -5.2,0.6 -1.85,-7.64 c -4.49,-2.45 -7.39,-4.65 -8.72,-6.58 -1.33,-1.95 -3.42,-3.94 -6.28,-5.98 l -5.2,-4.89 h -4.89 c -0.83,-5.51 -3.99,-10.1 -9.51,-13.78 l -2.45,-3.06 -5.51,0.62 c -2.04,-6.54 -4.59,-10.52 -7.65,-11.95 -3.47,0 -8.22,-3.16 -14.24,-9.49 -6.03,-6.33 -10.25,-9.48 -12.71,-9.48 -17.76,0 -32.14,11.11 -43.17,33.36 -0.41,0.82 -1.38,2.34 -2.91,4.6 -1.52,2.23 -2.29,5.7 -2.29,10.4 0,7.96 1.07,13.37 3.22,16.23 2.14,2.85 4.89,8.21 8.26,16.06 3.37,7.86 5.86,11.28 7.5,10.27 0.4,0.81 0.62,2.03 0.62,3.67 3.26,3.86 4.89,6.83 4.89,8.87 0,0.82 -0.41,1.23 -1.22,1.23 -0.41,0 -1.64,-0.62 -3.67,-1.84 l -4.31,-1.84 c -1.85,-0.41 -3.19,-1.22 -4.01,-2.45 -0.82,-1.22 -2.25,-2.4 -4.3,-3.51 -2.05,-1.13 -3.69,-2.1 -4.92,-2.91 h -0.92 c -1.23,1.22 -2.05,1.83 -2.46,1.83 -1.24,-3.27 -2.26,-5.31 -3.08,-6.12 l -3.69,-0.62 c -4.52,-4.69 -7.39,-7.04 -8.61,-7.04 -0.83,0 -2.68,0.72 -5.55,2.15 -2.87,1.43 -4.3,2.85 -4.3,4.29 l 2.15,11.93 v 5.51 c 0,0.41 0.82,1.23 2.46,2.45 0.41,0 2.05,2.2 4.92,6.58 2.87,4.39 6.25,6.59 10.15,6.59"
         style="fill:#cc2271;fill-opacity:1;fill-rule:nonzero;stroke:none"
         transform="matrix(0.13333333,0,0,-0.13333333,0,1133.8533)" />
      <path
         id="path27"
         d="m 6737.63,3634.51 4.27,1.22 3.07,3.06 h 0.62 l 2.75,-1.23 h 0.61 c 4.9,0 9.24,0.97 13.05,2.91 3.8,1.94 6.99,3.31 9.57,4.13 2.58,0.81 4.18,1.43 4.8,1.84 0.62,0.41 1.13,0.62 1.55,0.62 l 4.94,-0.62 c 1.63,0 3.83,2.91 6.58,8.73 2.76,5.81 5.86,10.05 9.33,12.7 3.47,2.65 6.93,7.65 10.4,15 0.82,1.02 1.74,2.6 2.75,4.74 1.03,2.15 1.85,3.21 2.46,3.21 3.05,0 5.5,1.95 7.34,5.83 6.11,7.13 11.11,10.71 14.99,10.71 5.1,0 8.66,-4.89 10.7,-14.69 l 3.07,-11.64 c 0,-0.21 -0.52,-1.68 -1.53,-4.43 -1.03,-2.76 -1.49,-5.51 -1.38,-8.28 0.1,-2.75 0,-4.59 -0.3,-5.5 -0.32,-0.92 -0.47,-1.99 -0.47,-3.22 0,-1.63 1.74,-2.45 5.2,-2.45 1.23,0 3.47,0.82 6.74,2.45 l 1.84,0.62 c 2.04,-1.23 3.78,-1.84 5.2,-1.84 0.41,0 3.31,1.02 8.72,3.06 5.41,2.04 8.83,3.16 10.26,3.37 1.42,0.2 3.87,1.01 7.35,2.45 h 3.67 l 2.45,-0.92 c 0.81,0 2.49,0.86 5.05,2.6 2.55,1.73 7.39,2.8 14.54,3.21 l 4.29,1.84 h 1.22 c 6.74,0 10.11,-2.96 10.11,-8.88 0,-1.22 -0.98,-3.36 -2.91,-6.42 -1.95,-3.06 -3.53,-6.54 -4.75,-10.41 l -14.08,-17.76 c -4.7,-6.12 -9.38,-9.18 -14.08,-9.18 -0.82,0 -3.37,2.76 -7.66,8.26 0,0.41 -0.41,0.62 -1.22,0.62 -2.04,0 -4.19,-0.41 -6.42,-1.23 -2.26,-0.81 -4.1,-1.22 -5.52,-1.22 -0.61,0 -6.02,-1.54 -16.22,-4.59 l -7.35,-1.23 c -0.82,0 -2.75,-0.41 -5.82,-1.22 l -15.62,-3.06 c -5.31,-2.66 -9.5,-7.66 -12.56,-15 0,-0.41 -1.03,-1.34 -3.07,-2.75 l -13.79,-25.11 c -4.5,-1.22 -7.46,-3.88 -8.88,-7.96 l -1.23,-1.84 c -2.25,-0.41 -4.3,-1.68 -6.14,-3.82 -1.84,-2.14 -3.57,-3.83 -5.21,-5.05 l -5.52,-8.26 c -2.25,-2.87 -4.5,-5.98 -6.75,-9.34 -2.24,-3.37 -3.88,-6.94 -4.91,-10.72 -1.02,-3.78 -1.83,-5.97 -2.45,-6.59 -0.62,-0.6 -0.92,-1.72 -0.92,-3.35 l -0.92,-2.46 c -2.46,-2.45 -3.68,-5.2 -3.68,-8.26 l 1.23,-4.9 c -2.87,-9.79 -4.29,-15 -4.29,-15.61 0,-0.42 0.19,-1.53 0.61,-3.37 v -1.84 c 0,-4.49 -1.64,-10.1 -4.91,-16.84 l 0.61,-4.89 -1.83,-13.78 c 0,-1.83 0.6,-5.2 1.83,-10.1 -0.82,-0.82 -1.23,-1.43 -1.23,-1.83 0,-5.72 3.02,-11.99 9.06,-18.83 6.02,-6.85 9.04,-17.5 9.04,-31.99 0,-1.22 -0.31,-3.01 -0.92,-5.35 -0.61,-2.36 -1.02,-4.91 -1.23,-7.66 -0.2,-2.75 -1.79,-5.46 -4.75,-8.11 -2.96,-2.66 -5.46,-3.98 -7.51,-3.98 -10.83,0 -18.92,7.85 -24.23,23.57 -5.32,15.71 -7.97,25.82 -7.97,30.31 l 0.61,11.93 -1.84,6.12 1.84,26.95 -1.23,6.42 7.05,26.33 v 9.49 c 0,0.4 1.44,2.03 4.3,4.9 0,0.41 -0.41,0.61 -1.23,0.61 -1.22,0 -2.86,-1.23 -4.9,-3.67 -2.05,-2.45 -4.6,-4.81 -7.67,-7.04 l -2.46,-4.29 c -0.41,0.4 -1.22,0.81 -2.45,1.22 -1.03,-0.41 -4.39,-5.2 -10.12,-14.38 -4.29,-0.62 -7.66,-3.07 -10.12,-7.35 -2.46,-4.28 -5.82,-6.43 -10.11,-6.43 l -1.23,-0.61 c -0.82,-5.93 -3.68,-8.87 -8.6,-8.87 l -1.22,-0.62 c -3.06,-6.94 -6.24,-10.31 -9.51,-10.11 -2.04,-6.12 -7.05,-10.3 -15.03,-12.55 -1.22,-2.45 -3.01,-4.28 -5.36,-5.5 -2.35,-1.22 -4.03,-2.36 -5.06,-3.37 -1.02,-1.03 -1.94,-1.54 -2.76,-1.54 -2.66,0 -3.99,2.87 -3.99,8.58 0,1.63 0.67,3.42 2,5.36 1.33,1.93 1.99,3.31 1.99,4.13 0,0.4 -1.02,1.63 -3.07,3.67 0,6.33 1.64,10.31 4.9,11.95 3.28,1.63 5.73,3.97 7.36,7.03 1.02,2.45 3.06,4.19 6.13,5.2 3.07,1.03 4.6,2.35 4.6,3.99 0,1.42 2.66,4.28 7.97,8.57 5.31,4.28 9.19,8 11.64,11.17 2.45,3.16 4.5,4.75 6.13,4.75 l 1.23,1.22 c 0.4,5.1 2.35,7.66 5.82,7.66 l 3.07,1.83 0.62,2.45 1.83,1.22 h 2.45 l 1.54,1.22 c 0.4,5.1 2.8,9.09 7.19,11.95 4.4,2.85 12.41,10.87 24.07,24.03 11.64,13.15 18.18,21.57 19.6,25.25 1.44,3.68 4.05,8.62 7.83,14.85 3.77,6.22 5.87,12.09 6.28,17.6 -0.41,0.82 -1.03,1.63 -1.84,2.45 l -13.16,-6.43 c 0,0.62 -2.04,1.53 -6.13,2.76 -3.05,-1.84 -5.3,-3.68 -6.73,-5.51 -1.43,-1.84 -2.55,-2.76 -3.36,-2.76 l -4.29,0.61 -13.47,-1.52 c -12.05,-1.03 -21.12,-3.48 -27.24,-7.36 l -12.55,-3.67 h -2.76 c -1.64,0 -4.09,-1.03 -7.35,-3.06 l -7.04,0.61 c -6.53,-3.47 -11.33,-5.21 -14.39,-5.21 -0.41,0 -1.63,0.21 -3.67,0.62 l -31.23,-8.58 c -2.44,-0.81 -7.96,-5 -16.52,-12.54 l -2.45,-0.61 c -2.04,0 -4.45,2.3 -7.2,6.89 -2.75,4.59 -4.13,8.72 -4.13,12.39 0,20.2 17.35,31.94 52.04,35.2 l 12.55,4.91 h 0.61 l 3.37,-1.24 h 1.22 c 1.23,0 3.17,0.78 5.82,2.3 2.65,1.53 8.57,3.42 17.76,5.66 l 12.55,3.37 3.98,-0.61 c 2.03,0 4.33,0.82 6.89,2.45 2.54,1.63 6.42,2.8 11.63,3.52 5.2,0.72 8.82,1.48 10.87,2.3 l 4.89,1.22 c 0.82,0 2.5,0.71 5.06,2.15 2.55,1.42 5.86,2.14 9.94,2.14 0.61,0 2.15,-0.41 4.6,-1.22"
         style="fill:#cc2271;fill-opacity:1;fill-rule:nonzero;stroke:none"
         transform="matrix(0.13333333,0,0,-0.13333333,0,1133.8533)" />
      <path
         id="path28"
         d="m 6952.97,3617.06 -1.84,11.93 v 1.84 c 0,9.59 3.27,14.9 9.8,15.92 1.42,0.2 5.71,1.53 12.86,3.98 3.67,-0.82 7.5,-4.04 11.47,-9.64 3.99,-5.62 5.98,-10.57 5.98,-14.86 0,-0.41 -0.31,-1.32 -0.92,-2.75 -0.61,-1.42 -1.02,-4.13 -1.23,-8.1 -0.2,-3.99 -2.19,-7.47 -5.96,-10.41 -3.78,-2.96 -7.81,-4.45 -12.09,-4.45 -2.87,0 -6.49,1.99 -10.87,5.97 -4.4,3.98 -6.79,7.5 -7.2,10.57 z M 6820.73,3464 l 4.91,4.28 h 1.83 c 1.43,0 3.58,1.53 6.44,4.6 l 3.06,1.22 c 4.09,6.12 7.66,9.68 10.73,10.71 l 4.91,3.67 c 0.81,0.82 1.98,1.53 3.51,2.15 1.54,0.6 3.99,2.6 7.36,5.97 3.37,3.37 6.07,5.05 8.12,5.05 2.04,0 3.68,-0.21 4.9,-0.61 1.23,2.44 3.68,4.84 7.36,7.19 3.68,2.34 6.64,5.15 8.88,8.42 l 3.99,1.83 c 3.27,1.63 6.18,3.72 8.73,6.28 2.56,2.55 5.88,3.83 9.96,3.83 5.93,0 12.11,-3.02 18.54,-9.03 6.42,-6.03 9.63,-11.79 9.63,-17.3 l -5.2,-23.88 c -3.47,-17.56 -7.34,-26.73 -11.63,-27.55 l -1.22,-6.43 c -2.86,-2.04 -4.29,-3.67 -4.29,-4.89 l 1.84,-7.35 c 0,-1.02 -1.13,-2.56 -3.37,-4.6 -0.41,0 -0.61,-0.6 -0.61,-1.83 v -12.55 c 0,-2.25 -1.43,-4.08 -4.29,-5.51 0.41,-0.41 1.02,-0.82 1.84,-1.23 1.22,1.23 3.98,1.85 8.26,1.85 l 4.9,-0.62 6.72,6.73 c 1.43,0.41 3.41,1.39 5.96,2.91 2.55,1.53 6.89,3.52 13,5.98 l 40.05,30.6 c 5.5,5.51 9.68,8.27 12.53,8.27 3.05,0 4.59,-1.94 4.59,-5.82 0,-4.49 -0.87,-8.21 -2.61,-11.17 -1.73,-2.96 -3.31,-6.53 -4.74,-10.71 -1.43,-4.19 -3.11,-7.1 -5.06,-8.73 -1.93,-1.63 -3.51,-3.42 -4.73,-5.35 -1.22,-1.95 -4.54,-4.75 -9.95,-8.42 -5.41,-3.67 -10,-7.4 -13.77,-11.17 -3.78,-3.78 -6.89,-6.49 -9.34,-8.12 l -13.15,-9.49 -1.84,-3.06 c -0.42,-0.41 -2.3,-1.28 -5.66,-2.61 -3.37,-1.32 -6.39,-3 -9.04,-5.04 l -5.5,-3.06 c -1.22,-0.82 -3.22,-1.34 -5.97,-1.53 -2.75,-0.21 -5.16,-1.38 -7.2,-3.53 -2.04,-2.14 -3.67,-3.21 -4.89,-3.21 l -4.59,0.61 -6.12,-1.83 c -3.47,0 -7.71,2.09 -12.71,6.27 -5,4.18 -7.5,8.62 -7.5,13.32 v 1.83 l 0.62,4.29 c 0,0.81 -0.62,2.91 -1.84,6.28 -1.23,3.36 -1.84,5.24 -1.84,5.65 l 0.61,4.29 -0.61,1.84 c 0,5.51 0.41,8.98 1.23,10.41 0.81,1.42 1.42,3.41 1.83,5.96 0.41,2.55 0.81,4.65 1.23,6.28 l 1.53,7.66 c 0.82,2.44 1.83,4.07 3.06,4.89 0.4,1.63 1.22,4.39 2.45,8.27 l 1.22,5.51 3.06,4.29 c 1.63,1.63 2.61,3.83 2.91,6.58 0.31,2.75 1.38,5.66 3.21,8.72 1.84,3.06 2.76,4.9 2.76,5.51 0,2.45 -1.22,3.67 -3.67,3.67 -0.82,0 -3.36,-1.63 -7.65,-4.89 l -5.52,1.83 c -0.41,0 -1.53,-1.02 -3.37,-3.06 0,-0.81 -0.92,-1.43 -2.75,-1.84 -1.84,-0.41 -3.58,-1.93 -5.21,-4.59 l -2.45,-0.61 -3.98,1.84 h -1.22 c -2.04,0 -3.27,-2.25 -3.68,-6.74 -2.24,-3.27 -5.21,-5.41 -8.88,-6.42 l -6.73,-1.84 c -2.26,-0.82 -3.89,-2.65 -4.9,-5.52 -1.03,-2.86 -3.07,-5.45 -6.13,-7.8 -3.06,-2.34 -5.1,-3.51 -6.12,-3.51 -5.72,0 -8.57,3.15 -8.57,9.48 l 2.45,14.39 -0.62,1.84"
         style="fill:#cc2271;fill-opacity:1;fill-rule:nonzero;stroke:none"
         transform="matrix(0.13333333,0,0,-0.13333333,0,1133.8533)" />
      <path
         id="path29"
         d="m 7117.02,3501.04 -3.67,-1.84 c -0.82,-0.42 -3.21,-2.19 -7.2,-5.36 -3.97,-3.16 -7.85,-5.71 -11.63,-7.65 -3.78,-1.95 -7.64,-7 -11.63,-15.15 -3.97,-8.16 -5.97,-12.86 -5.97,-14.08 0,-1.23 0.61,-1.84 1.84,-1.84 l 10.41,4.59 c 3.87,1.84 7.5,4.18 10.86,7.04 3.37,2.85 8.21,6.32 14.54,10.41 l 2.45,2.44 c 0.41,0.82 2.3,2.3 5.67,4.45 3.37,2.14 5.87,4.23 7.5,6.27 l 3.06,1.23 c 3.47,5.51 6.98,8.87 10.56,10.1 3.56,1.23 5.36,2.45 5.36,3.67 0,2.45 -1.94,3.68 -5.82,3.68 -1.64,0 -4.08,-1.03 -7.34,-3.07 h -7.04 c -0.82,0 -3.07,-1.22 -6.74,-3.67 z m -64.73,-18.37 6.42,5.21 c 4.89,0.4 7.55,2.94 7.95,7.64 0.41,4.7 3.78,8.78 10.1,12.25 l 3.67,5.2 c 3.06,3.07 11.42,7.04 25.09,11.95 3.46,2.03 5.81,3.86 7.04,5.5 0.4,0.4 0.81,0.62 1.22,0.62 l 4.89,-1.23 c 2.66,0 6.07,0.71 10.25,2.15 4.18,1.42 8.21,2.14 12.09,2.14 l 12.85,0.61 c 0.81,0 2.49,-0.61 5.04,-1.83 2.55,-1.23 5.66,-1.84 9.33,-1.84 4.49,0 8.62,-2.05 12.39,-6.12 3.78,-4.1 5.66,-7.86 5.66,-11.33 0,-6.33 -3.26,-12.76 -9.78,-19.29 -6.51,-6.53 -11.7,-10.2 -15.58,-11.02 -3.46,-3.47 -6.1,-5.66 -7.94,-6.58 -1.84,-0.92 -3.72,-2.35 -5.66,-4.28 -1.93,-1.95 -3.51,-2.91 -4.73,-2.91 -0.82,0 -1.43,0.25 -1.84,0.76 -0.41,0.51 -1.01,0.77 -1.83,0.77 -3.27,0 -6.82,-3.98 -10.69,-11.94 l -5.5,0.61 c -3.46,-2.24 -5.71,-4.7 -6.72,-7.35 -1.02,-2.65 -3.16,-3.98 -6.42,-3.98 -7.54,-7.55 -12.63,-11.32 -15.27,-11.32 -0.41,0 -1.84,0.41 -4.29,1.23 -1.63,-2.06 -2.44,-4.19 -2.44,-6.44 0,-2.45 -1.63,-3.88 -4.89,-4.29 l -3.97,-3.67 -3.06,0.62 -6.11,-6.43 c -3.06,0 -6.21,-1.02 -9.47,-3.07 -0.41,-2.45 -1.03,-5.55 -1.84,-9.33 -0.82,-3.78 -1.22,-5.87 -1.22,-6.27 0,-5.93 5.4,-8.89 16.22,-8.89 l 14.7,2.15 c 3.88,0 7.5,1.02 10.87,3.06 3.37,2.04 6.99,3.06 10.87,3.06 1.23,0 3.06,0.4 5.52,1.22 l 3.05,-1.22 c 1.43,3.06 4.08,5.81 7.96,8.27 3.88,2.45 6.94,3.67 9.19,3.67 l 3.06,1.83 c 0.82,2.45 2.04,4.09 3.68,4.91 l 2.44,2.13 c 1.63,1.63 3.16,2.46 4.6,2.46 h 4.28 l 1.23,0.61 c 2.45,5.3 5.86,8.42 10.25,9.34 4.4,0.91 7.15,2.39 8.27,4.43 1.12,2.04 3.11,3.26 5.97,3.68 2.85,0.4 5.25,1.78 7.2,4.13 1.93,2.35 4.32,4.54 7.18,6.58 2.87,2.04 4.86,3.57 5.98,4.59 1.12,1.02 2.09,1.54 2.91,1.54 1.22,0 1.84,-0.92 1.84,-2.76 0,-1.84 0.41,-2.76 1.22,-2.76 0.82,0 1.23,0.41 1.23,1.23 0,0.81 -0.21,1.84 -0.62,3.06 v 2.15 c 0,3.05 1.63,5.09 4.91,6.12 l 13.77,8.88 c 0.41,4.28 1.58,6.77 3.52,7.5 1.93,0.71 3.42,1.52 4.44,2.44 1.02,0.92 2.14,1.38 3.36,1.38 2.66,0 3.99,-1.53 3.99,-4.6 l -1.54,-7.95 1.54,-8.27 c 0,-1.22 -0.97,-2.91 -2.91,-5.05 -1.95,-2.14 -3.43,-5.41 -4.45,-9.79 -1.02,-4.39 -2.34,-6.79 -3.98,-7.2 h -1.84 c -3.68,-3.87 -6.59,-6.17 -8.73,-6.88 -2.14,-0.73 -3.83,-1.99 -5.06,-3.83 l -10.41,-11.94 c -2.05,-2.04 -3.78,-3.88 -5.21,-5.51 -1.44,-1.63 -2.56,-2.45 -3.37,-2.45 l -2.45,2.45 c 0,0.41 -0.41,0.61 -1.22,0.61 -2.05,0 -3.33,-1.23 -3.83,-3.67 -0.52,-2.45 -1.59,-4.6 -3.22,-6.43 -6.12,-2.87 -10.11,-5.51 -11.96,-7.96 l -1.83,-0.61 h -5.51 c -2.66,0 -4.49,-1.99 -5.52,-5.97 -1.02,-3.98 -3.93,-6.27 -8.73,-6.89 -4.8,-0.61 -8.22,-1.84 -10.26,-3.67 -0.41,-0.41 -1.33,-0.82 -2.76,-1.22 -1.43,-0.42 -4.29,-2.05 -8.58,-4.9 l -25.73,-9.18 c -2.05,-1.03 -3.37,-1.54 -3.99,-1.54 l -8.57,-1.23 c -1.23,0 -2.45,0.82 -3.68,2.45 -1.22,1.63 -2.04,2.45 -2.45,2.45 l -5.51,-1.83 c -4.09,-1.22 -7.97,-1.84 -11.64,-1.84 -2.05,0 -4.3,0.72 -6.75,2.14 -2.45,1.43 -4.39,2.45 -5.82,3.07 -5.92,0 -10.11,4.59 -12.56,13.77 l -3.67,-0.61 c -0.82,0 -3.57,7.24 -8.27,21.73 -1.23,1.63 -3.17,2.8 -5.82,3.53 -2.66,0.71 -3.98,2.7 -3.98,5.96 0,9.18 1.99,15.35 5.97,18.53 3.98,3.15 6.17,5.55 6.58,7.19 l 4.28,15.91 c 0.81,0.62 1.84,2.66 3.07,6.13 l 7.03,12.86 c 0.81,1.42 2.64,4.99 5.51,10.71"
         style="fill:#cc2271;fill-opacity:1;fill-rule:nonzero;stroke:none"
         transform="matrix(0.13333333,0,0,-0.13333333,0,1133.8533)" />
      <path
         id="path30"
         d="m 2392.19,5103.5 c 0,0 233.69,-81.27 251.22,-291.84 17.53,-210.56 -310.2,-273.7 -310.2,-273.7 l 28.43,380.01 30.55,185.53"
         style="fill:#cc2271;fill-opacity:1;fill-rule:nonzero;stroke:none"
         transform="matrix(0.13333333,0,0,-0.13333333,0,1133.8533)" />
    </g>
  </g>
</svg>
