<?xml version="1.0" encoding="UTF-8" standalone="no"?>
<!-- Created with Inkscape (http://www.inkscape.org/) -->

<svg
   version="1.1"
   id="svg1"
   width="1133.8533"
   height="1133.8533"
   viewBox="0 0 1133.8533 1133.8533"
   sodipodi:docname="logo-new.eps"
   xmlns:inkscape="http://www.inkscape.org/namespaces/inkscape"
   xmlns:sodipodi="http://sodipodi.sourceforge.net/DTD/sodipodi-0.dtd"
   xmlns="http://www.w3.org/2000/svg"
   xmlns:svg="http://www.w3.org/2000/svg">
  <defs
     id="defs1" />
  <sodipodi:namedview
     id="namedview1"
     pagecolor="#ffffff"
     bordercolor="#000000"
     borderopacity="0.25"
     inkscape:showpageshadow="2"
     inkscape:pageopacity="0.0"
     inkscape:pagecheckerboard="0"
     inkscape:deskcolor="#d1d1d1">
    <inkscape:page
       x="0"
       y="0"
       inkscape:label="1"
       id="page1"
       width="1133.8533"
       height="1133.8533"
       margin="0"
       bleed="0" />
  </sodipodi:namedview>
  <g
     id="g1"
     inkscape:groupmode="layer"
     inkscape:label="1">
    <path
       id="path1"
       d="M 8500,3.9375 H 0 V 8503.94 H 8500 V 3.9375"
       style="fill:#f1c9d9;fill-opacity:1;fill-rule:nonzero;stroke:none"
       transform="matrix(0.13333333,0,0,-0.13333333,0,1133.8533)" />
    <path
       id="path2"
       d="m 3001.45,4196.8 c -44.32,61.09 -76.66,130.56 -100.61,213.21 -20.37,-74.27 -50.31,-142.55 -89.84,-203.63 -62.29,-97.02 -149.73,-174.88 -255.14,-226.39 88.64,87.44 159.32,206.03 208.43,324.61 43.12,101.82 70.67,204.83 80.25,289.87 h -264.72 v 80.26 h 269.51 v 252.73 h -245.55 v 80.25 h 591.72 v -80.25 h -245.55 v -252.73 h 269.5 v -80.26 h -265.91 c 11.98,-93.43 46.71,-204.83 97.02,-313.83 50.31,-107.8 117.39,-213.21 197.64,-300.65 -106.6,64.69 -186.86,132.96 -246.75,216.81"
       style="fill:#cc2271;fill-opacity:1;fill-rule:nonzero;stroke:none"
       transform="matrix(0.13333333,0,0,-0.13333333,0,1133.8533)" />
    <path
       id="path3"
       d="m 3554.86,3997.96 h -97.03 v 676.77 c -21.56,-21.57 -45.52,-41.93 -73.07,-61.09 41.92,74.26 67.08,144.93 82.65,219.2 13.18,63.48 20.36,129.36 22.76,202.43 h 104.21 c -3.6,-65.88 -14.38,-125.77 -31.15,-180.88 -19.16,-58.69 -46.71,-111.39 -86.24,-158.1 h 77.87 z m 317.41,949.87 h 182.07 v -75.47 h -182.07 v -81.45 h 173.69 v -225.19 c 0,-43.11 -8.39,-76.66 -26.36,-104.2 -19.16,-27.56 -46.71,-47.92 -86.24,-64.69 7.19,20.37 10.78,39.53 14.37,61.09 h -75.46 c -2.39,-97.02 -25.15,-192.85 -69.48,-274.29 69.48,-83.85 162.91,-149.73 265.92,-202.44 -122.18,20.36 -226.39,69.47 -306.64,141.34 -50.3,-62.28 -118.59,-112.6 -208.42,-142.54 73.07,49.11 125.78,116.19 160.51,190.45 -53.91,62.29 -93.43,137.76 -117.38,220.4 h 103.01 c 10.78,-46.71 27.55,-89.83 49.1,-129.36 19.17,65.88 28.75,134.16 29.95,196.44 h -80.25 v -29.94 h -93.43 v 391.68 h 93.43 v -28.75 h 80.25 v 81.45 h -186.86 v 75.47 h 186.86 v 87.44 h 93.43 z m -173.68,-414.44 h 80.25 v 182.06 h -80.25 z m 173.68,182.06 v -182.06 h 80.25 v 182.06 h -80.25"
       style="fill:#cc2271;fill-opacity:1;fill-rule:nonzero;stroke:none"
       transform="matrix(0.13333333,0,0,-0.13333333,0,1133.8533)" />
    <path
       id="path4"
       d="m 4292.71,4390.84 c 8.4,59.89 9.59,116.19 9.59,178.48 v 364.13 h 98.22 v -335.38 c 0,-89.84 -9.58,-171.29 -33.54,-245.56 -28.75,-87.44 -76.66,-162.9 -154.52,-221.59 46.72,105.4 69.47,185.66 80.25,259.92 z m 311.44,3.59 c 0,-83.84 -10.78,-167.68 -44.33,-239.55 -38.32,-80.26 -103,-143.75 -212.01,-177.28 55.1,47.91 95.83,110.19 122.18,180.87 21.56,59.89 33.55,124.57 33.55,190.45 v 686.35 h 100.61 z m 140.14,-41.92 c -23.96,74.27 -37.13,155.72 -37.13,245.56 v 335.38 h 98.22 v -364.13 c 0,-62.29 1.2,-118.59 9.58,-178.48 10.78,-74.26 33.54,-154.52 80.25,-259.92 -77.85,58.69 -122.17,134.15 -150.92,221.59"
       style="fill:#cc2271;fill-opacity:1;fill-rule:nonzero;stroke:none"
       transform="matrix(0.13333333,0,0,-0.13333333,0,1133.8533)" />
    <path
       id="path5"
       d="m 5631.88,4931.05 v -530.62 c 0,-98.23 -10.79,-178.48 -43.13,-249.15 -29.94,-64.69 -79.05,-118.58 -155.71,-171.29 47.91,67.08 73.07,132.96 86.24,202.43 13.17,67.08 14.37,137.75 14.37,215.61 v 533.02 h -482.71 v 76.66 h 656.4 v -76.66 z m -419.24,-95.82 h 235.97 v -468.34 c 0,-38.34 -9.59,-74.26 -31.15,-104.21 -19.16,-26.36 -47.91,-47.91 -87.44,-61.09 8.39,20.36 13.18,41.92 16.78,62.29 h -134.16 v -44.32 h -98.23 v 649.21 h 98.23 z m 0,-76.66 v -418.03 h 137.75 v 418.03 h -137.75"
       style="fill:#cc2271;fill-opacity:1;fill-rule:nonzero;stroke:none"
       transform="matrix(0.13333333,0,0,-0.13333333,0,1133.8533)" />
    <path
       id="path6"
       d="m 6154.12,4638.79 c -1.19,-25.15 -3.59,-52.7 -7.19,-79.05 h 379.71 v -80.26 h -390.49 c -3.59,-20.36 -8.38,-39.53 -13.17,-59.89 h 353.36 c -9.59,-110.2 -75.47,-215.61 -174.88,-295.86 70.67,-61.08 152.11,-105.41 249.14,-144.93 -124.58,14.38 -226.39,49.1 -307.83,103.01 -80.26,-49.11 -174.89,-83.85 -276.71,-103.01 81.46,43.11 158.12,92.23 221.61,144.93 -45.52,40.72 -82.66,88.65 -111.4,143.73 -47.92,-117.37 -117.39,-223.98 -216.81,-287.47 57.49,94.63 99.42,186.86 131.76,288.68 20.36,65.88 35.94,134.15 46.72,210.81 h -152.13 v 80.26 h 161.71 c 2.39,25.15 4.78,51.5 7.19,79.05 z m 366.54,396.48 c -29.95,-79.06 -196.45,-106.61 -275.5,-116.19 -119.79,-13.17 -255.14,-7.19 -359.35,15.57 106.61,11.98 220.4,25.15 312.63,43.12 85.04,15.58 140.15,32.34 177.28,57.5 z m -542.61,-287.48 h 547.4 v -51.5 c 0,-34.74 -13.18,-58.7 -32.34,-76.66 -20.36,-17.97 -46.72,-28.75 -75.47,-37.14 9.59,26.35 15.57,64.69 15.57,88.64 h -455.16 v -81.45 h -92.24 v 180.87 h 92.24 z m -4.8,58.69 c -22.75,17.97 -38.33,43.13 -46.71,77.86 h 113.79 c 2.4,-41.92 28.75,-86.24 55.1,-118.58 -47.91,2.4 -91.04,14.37 -122.18,40.72 z m 274.3,-628.85 c 53.91,53.91 93.43,112.6 112.59,164.1 h -258.72 l -14.38,-46.71 h 74.27 c 26.36,-44.32 55.1,-83.85 86.24,-117.39 z m -83.85,633.65 c -19.16,17.97 -32.33,41.92 -37.13,73.06 h 113.79 c 0,-49.11 7.19,-79.05 38.33,-118.58 -45.51,5.99 -86.24,19.16 -114.99,45.52 z m 325.81,73.06 c -7.19,-35.93 -23.95,-63.48 -46.72,-81.45 -31.14,-25.16 -74.25,-34.73 -120.97,-37.13 37.13,31.14 53.9,68.28 53.9,118.58 h 113.79"
       style="fill:#cc2271;fill-opacity:1;fill-rule:nonzero;stroke:none"
       transform="matrix(0.13333333,0,0,-0.13333333,0,1133.8533)" />
    <path
       id="path7"
       d="m 2428.61,3430.58 10.03,1.88 9.72,4.71 c 7.1,3.35 13.58,5.02 19.44,5.02 1.25,0 2.51,-0.64 3.76,-1.89 l 14.12,9.42 c 6.05,3.14 12.21,4.71 18.49,4.71 0.42,0 1.83,1.83 4.23,5.48 2.4,3.66 4.66,6.55 6.74,8.64 l 6.9,9.72 c 5.01,6.7 8.26,12.03 9.72,16 v 3.14 c 0,0.63 1.2,2.93 3.61,6.91 2.4,3.97 4.54,6.47 6.42,7.53 1.89,1.04 3.03,2.4 3.45,4.08 v 3.45 c 0,0.83 0.84,2.6 2.51,5.34 1.67,2.71 3.91,5.17 6.74,7.36 2.81,2.21 6,6.75 9.55,13.65 l 3.76,4.4 3.14,1.87 c 0.41,0.43 0.62,1.26 0.62,2.52 0,1.67 -0.21,3.03 -0.62,4.09 2.29,2.09 3.65,3.96 4.06,5.64 l 2.51,8.48 3.13,1.87 v 5.65 c 0,1.25 1.62,3.92 4.86,8 3.23,4.09 6.73,11.24 10.5,21.49 l 9.71,18.83 v 1.25 c -3.77,-1.66 -6.58,-3.13 -8.46,-4.39 l -8.77,-4.71 c -0.42,0 -2.35,-1.57 -5.8,-4.69 -3.45,-3.15 -6.63,-4.83 -9.55,-5.03 -5.23,-5.65 -10.71,-8.94 -16.45,-9.89 -5.75,-0.94 -9.77,-2.35 -12.06,-4.22 l -3.76,-1.9 c -0.84,0 -2.1,-0.62 -3.77,-1.87 -1.68,-1.26 -2.93,-1.89 -3.77,-1.89 -1.88,0 -4.5,1.26 -7.84,3.76 h -1.26 v -2.5 c 0,-3.36 -0.89,-5.23 -2.66,-5.65 -1.79,-0.42 -3.61,-1 -5.5,-1.73 -1.88,-0.73 -3.24,-1.09 -4.07,-1.09 -6.07,0 -9.53,1.51 -10.36,4.55 -0.84,3.02 -1.88,5.06 -3.14,6.11 -1.26,1.05 -1.88,2.3 -1.88,3.77 0,5.43 2.61,11.03 7.84,16.78 5.23,5.76 9.62,8.84 13.18,9.26 0.42,0 2.2,0.74 5.34,2.2 h 1.25 l 5.97,-1.57 c 4.6,-1.05 7.31,-2.15 8.15,-3.29 0.84,-1.15 1.89,-1.73 3.14,-1.73 l 5.33,0.62 4.39,-0.62 c 0.83,0 2.55,1.61 5.17,4.86 2.61,3.24 6.01,5.07 10.18,5.5 9.81,3.13 20.05,8.05 30.7,14.75 0.83,2.09 2.61,3.55 5.32,4.39 l 3.76,4.7 c 0,0.83 2.35,1.93 7.05,3.29 4.69,1.37 8.87,5.12 12.53,11.31 3.66,6.16 5.48,9.67 5.48,10.51 0,0.41 -0.2,1.25 -0.62,2.5 0.42,0.84 1.25,1.46 2.51,1.89 2.5,8.58 4.69,13.44 6.58,14.59 1.88,1.14 6.06,5.06 12.54,11.76 v 1.26 l -1.25,3.13 v 1.26 c 0,9.41 4.28,16.52 12.85,21.34 1.89,11.08 5.13,17.46 9.73,19.14 l 3.75,1.88 -1.25,9.72 c 0,1.68 2.19,2.93 6.59,3.77 l 1.88,0.94 11.6,20.4 c 2.3,4.39 5.22,6.59 8.78,6.59 0.42,0 0.94,-0.31 1.57,-0.95 h 1.26 c 1.66,0 2.5,0.95 2.5,2.83 0,0.42 -0.2,1.05 -0.62,1.88 v 1.89 c 0,4.59 3.7,9.82 11.12,15.68 7.43,5.86 16.16,8.79 26.19,8.79 2.09,0 6.11,-2.56 12.07,-7.69 5.96,-5.12 8.94,-12.92 8.94,-23.38 l -3.76,-11.92 c 1.25,-4.8 1.88,-7.42 1.88,-7.84 0,-1.67 -1.68,-2.93 -5.02,-3.76 -0.41,-0.43 -0.62,-1.79 -0.62,-4.08 0,-2.09 -0.47,-4.19 -1.41,-6.28 -0.95,-2.09 -1.83,-5.34 -2.66,-9.73 -0.43,0 -1.06,-0.42 -1.89,-1.26 l -5.63,-1.87 c -0.64,-5.45 -1.26,-8.26 -1.89,-8.48 h -1.56 l -3.46,-1.25 c -2.71,-0.84 -4.07,-2.09 -4.07,-3.77 0,-0.42 0.21,-1.68 0.63,-3.77 0.42,-0.41 0.63,-1.05 0.63,-1.87 0,-5.02 -5.12,-8.48 -15.36,-10.36 0.21,-3.35 -1.36,-6.23 -4.7,-8.63 -3.34,-2.4 -5.43,-4.45 -6.27,-6.11 l -15.04,-15.07 c -4.61,-4.6 -13.48,-10.57 -26.64,-17.88 -0.84,-1.47 -1.78,-4.19 -2.82,-8.16 -1.05,-3.98 -2.31,-6.8 -3.77,-8.47 l -11.3,-26.36 v -2.51 c 0,-2.1 -1.37,-4.08 -4.08,-5.97 v -4.39 c 0,-0.84 -1.26,-3.45 -3.77,-7.84 l -10.36,-25.42 c -2.51,-5.23 -4.76,-9.47 -6.75,-12.7 -1.99,-3.25 -3.51,-6.6 -4.55,-10.05 -1.05,-3.44 -2.62,-6.53 -4.71,-9.24 -2.1,-2.74 -3.56,-5.39 -4.4,-8.01 -0.84,-2.62 -4.5,-4.55 -10.99,-5.8 0.42,-0.84 1.36,-1.68 2.83,-2.52 1.47,-0.84 2.2,-1.67 2.2,-2.5 -0.84,-1.47 -1.46,-2.62 -1.89,-3.46 -0.42,-0.84 -0.89,-2.46 -1.41,-4.86 -0.52,-2.4 -1.21,-4.29 -2.04,-5.65 -0.84,-1.36 -1.78,-2.67 -2.82,-3.92 -1.05,-1.25 -1.99,-2.56 -2.83,-3.93 -0.84,-1.36 -1.89,-2.46 -3.14,-3.29 l -2.51,-6.59 -3.14,-2.5 c -0.43,0 -0.64,-0.64 -0.64,-1.9 0,-0.41 0.21,-1.04 0.64,-1.87 -2.73,-6.08 -5.15,-10.16 -7.24,-12.25 -0.42,-0.41 -0.63,-3.02 -0.63,-7.83 3.56,0 6.19,-0.43 7.87,-1.26 5.02,2.3 7.74,3.45 8.16,3.45 1.26,0 2.77,-0.37 4.55,-1.1 1.78,-0.74 2.88,-1.09 3.29,-1.09 l 5.02,2.19 7.22,-2.19 3.76,0.63 8.48,-0.63 5.02,1.56 5.34,-0.93 5.02,1.56 h 2.5 c 1.26,0 5.96,-0.74 14.12,-2.19 h 0.63 c 0.83,0 2.83,0.94 5.97,2.81 h 0.62 c 0.83,0 2.41,-0.36 4.71,-1.09 2.3,-0.73 4.07,-1.09 5.33,-1.09 l 7.85,0.93 14.74,-2.82 3.77,1.26 c 0.42,0 0.94,-0.21 1.57,-0.64 11.08,-1.46 23.42,-4.18 37.02,-8.15 l 9.73,-1.88 c 0.42,-0.42 1.46,-0.64 3.14,-0.64 2.09,0 4.71,0.84 7.85,2.52 10.66,-2.3 17.66,-4.92 21.02,-7.85 0.41,-0.41 1.72,-1.15 3.91,-2.19 2.2,-1.05 3.93,-2.2 5.19,-3.45 1.25,-1.25 3.92,-3.3 7.99,-6.12 4.09,-2.83 6.12,-6.12 6.12,-9.88 0,-11.52 -1.57,-19.88 -4.7,-25.11 -3.14,-5.22 -6.28,-7.84 -9.41,-7.84 -7.75,0 -17.58,3.87 -29.5,11.6 -1.67,2.52 -3.72,4.55 -6.12,6.12 -2.41,1.58 -3.82,3.82 -4.23,6.75 l -1.26,1.25 h -9.1 c -0.84,0 -2.09,0.63 -3.77,1.89 l -6.27,1.26 c -4.39,2.29 -7.01,3.86 -7.84,4.7 -0.85,0.83 -2.26,1.36 -4.24,1.57 -1.99,0.21 -3.82,0.93 -5.49,2.2 -3.35,0.2 -6.7,1.25 -10.04,3.13 h -6.59 l -1.88,1.26 c -0.84,2.71 -2.31,4.08 -4.4,4.08 H 2691 l -2.52,0.62 h -5.64 l -4.7,3.14 h -1.26 l -4.4,-1.87 -6.58,2.5 -4.4,-1.88 c -7.32,0 -12.23,0.63 -14.74,1.88 l -5.02,-0.63 c -2.31,1.68 -3.67,2.52 -4.08,2.52 l -16.64,-2.52 -6.89,0.63 -6.59,-0.63 -2.52,1.88 c -0.21,-0.62 -1.62,-1.62 -4.23,-2.97 -2.62,-1.37 -7.8,-2.78 -15.55,-4.24 l -10.38,-1.88 -5.98,0.63 -3.77,-1.26 c -3.57,-7.12 -7.45,-11.61 -11.64,-13.49 -0.84,0 -1.46,-1.26 -1.88,-3.77 -0.42,-2.51 -1.83,-4.66 -4.23,-6.43 -2.4,-1.78 -4.22,-3.4 -5.47,-4.87 -1.26,-1.46 -2.62,-2.51 -4.08,-3.13 -1.46,-0.63 -3.39,-3.61 -5.79,-8.95 -2.41,-5.33 -6.32,-8 -11.74,-8 l -4.69,1.27 c 0.41,-0.84 1.04,-1.74 1.87,-2.68 0.84,-0.94 1.25,-1.84 1.25,-2.67 0,-3.76 -2.71,-5.64 -8.14,-5.64 -0.41,0 -1.93,-1 -4.53,-2.98 -2.61,-1.99 -6,-3.61 -10.18,-4.86 l -2.5,-2.51 c -1.05,-0.84 -3.03,-1.26 -5.95,-1.26 l -18.47,-7.22 h -0.64 l -4.69,0.94 c -0.42,0 -1.25,-0.32 -2.5,-0.94 h -6.26 c -1.46,0 -3.65,0.94 -6.57,2.82 l -4.39,-2.82 c -0.42,0.62 -2.82,1.57 -7.2,2.82 -5.43,0 -9.03,0.84 -10.81,2.51 -1.77,1.68 -3.07,2.51 -3.91,2.51 l -3.13,1.26 c -2.09,0.83 -4.54,1.36 -7.36,1.56 -2.81,0.22 -6.78,3.67 -11.89,10.37 -5.11,6.68 -7.67,11.7 -7.67,15.06 0,2.09 0.84,4.08 2.51,5.95 1.67,1.9 4.39,3.66 8.15,5.33 3.76,1.68 7.83,3.56 12.23,5.66 z m -4.82,-17.89 -11.59,-5.33 c -2.5,-0.84 -3.75,-1.88 -3.75,-3.14 0.41,-0.42 0.83,-1.04 1.25,-1.88 3.55,-0.84 6.47,-2.04 8.76,-3.61 2.3,-1.57 4.8,-2.35 7.52,-2.35 l 8.76,-1.89 8.45,0.64 2.51,-1.26 c 0.83,0.42 3.44,2.2 7.82,5.33 0,0.42 0.21,0.64 0.64,0.64 l 7.5,-0.64 c 1.25,0.83 2.82,2.04 4.7,3.6 1.88,1.59 4.38,2.88 7.52,3.93 2.08,3.56 5.32,7.01 9.7,10.35 0.83,2.52 1.67,4.4 2.51,5.65 l 1.88,6.6 c -9.82,-0.84 -15.56,-1.47 -17.23,-1.89 l -23.16,-7.21 c -14.2,-4.4 -22.13,-6.91 -23.79,-7.54 z m 300.67,342.97 9.09,5.95 c 1.66,1.05 5.59,7.11 11.74,18.21 6.16,11.07 9.24,19.76 9.24,26.03 0,1.68 -0.21,3.34 -0.62,5.02 -6.06,-2.5 -9.61,-4.71 -10.65,-6.58 -1.05,-1.89 -5.33,-7.54 -12.85,-16.95 -7.52,-9.42 -11.38,-15.33 -11.58,-17.73 -0.2,-2.41 -1.88,-6.59 -5.01,-12.55 -3.14,-5.95 -4.8,-9.52 -5.02,-10.66 -0.21,-1.15 -1.2,-3.2 -2.97,-6.13 -1.78,-2.93 -2.66,-4.81 -2.66,-5.65 0,-0.83 0.42,-1.25 1.26,-1.25 9.8,8.79 15.45,14.59 16.9,17.42 1.46,2.82 2.51,4.44 3.13,4.87"
       style="fill:#cc2271;fill-opacity:1;fill-rule:nonzero;stroke:none"
       transform="matrix(0.13333333,0,0,-0.13333333,0,1133.8533)" />
    <path
       id="path8"
       d="m 2812.01,3510.91 5.03,4.39 h 1.88 c 1.46,0 3.66,1.57 6.59,4.71 l 3.15,1.25 c 4.18,6.27 7.84,9.93 10.99,10.98 l 5.03,3.77 c 0.83,0.84 2.04,1.56 3.61,2.19 1.57,0.63 4.09,2.67 7.53,6.13 3.46,3.44 6.23,5.17 8.33,5.17 2.1,0 3.77,-0.21 5.03,-0.62 1.25,2.5 3.77,4.96 7.53,7.36 3.77,2.4 6.81,5.28 9.11,8.64 l 4.09,1.88 c 3.35,1.67 6.33,3.82 8.95,6.44 2.62,2.6 6.02,3.91 10.21,3.91 6.07,0 12.41,-3.09 18.99,-9.25 6.59,-6.18 9.89,-12.09 9.89,-17.73 l -5.34,-24.47 c -3.56,-18 -7.53,-27.41 -11.92,-28.25 l -1.26,-6.59 c -2.93,-2.09 -4.39,-3.76 -4.39,-5.02 l 1.89,-7.53 c 0,-1.05 -1.16,-2.61 -3.46,-4.7 -0.42,0 -0.62,-0.63 -0.62,-1.88 v -12.87 c 0,-2.3 -1.47,-4.19 -4.4,-5.64 0.42,-0.43 1.05,-0.84 1.89,-1.27 1.25,1.27 4.07,1.89 8.47,1.89 l 5.01,-0.62 6.9,6.89 c 1.46,0.42 3.49,1.41 6.1,2.99 2.61,1.56 7.06,3.6 13.32,6.11 l 41.06,31.39 c 5.64,5.64 9.91,8.46 12.84,8.46 3.13,0 4.71,-1.99 4.71,-5.96 0,-4.6 -0.9,-8.42 -2.68,-11.45 -1.77,-3.04 -3.39,-6.7 -4.86,-10.98 -1.46,-4.29 -3.19,-7.28 -5.17,-8.94 -1.99,-1.68 -3.61,-3.51 -4.86,-5.5 -1.26,-1.99 -4.66,-4.86 -10.2,-8.62 -5.55,-3.77 -10.25,-7.6 -14.12,-11.46 -3.87,-3.87 -7.06,-6.65 -9.56,-8.32 l -13.49,-9.72 -1.88,-3.14 c -0.43,-0.43 -2.36,-1.3 -5.81,-2.67 -3.45,-1.36 -6.54,-3.09 -9.26,-5.18 l -5.64,-3.12 c -1.26,-0.84 -3.29,-1.37 -6.12,-1.58 -2.83,-0.21 -5.29,-1.41 -7.37,-3.61 -2.09,-2.2 -3.77,-3.29 -5.02,-3.29 l -4.71,0.63 -6.27,-1.89 c -3.56,0 -7.9,2.14 -13.02,6.44 -5.13,4.27 -7.69,8.82 -7.69,13.65 v 1.87 l 0.63,4.4 c 0,0.84 -0.63,2.99 -1.88,6.43 -1.26,3.45 -1.89,5.38 -1.89,5.81 l 0.63,4.39 -0.63,1.88 c 0,5.65 0.42,9.2 1.26,10.67 0.83,1.46 1.46,3.5 1.88,6.12 0.42,2.61 0.84,4.76 1.25,6.44 l 1.57,7.84 c 0.84,2.51 1.89,4.18 3.14,5.02 0.42,1.67 1.26,4.5 2.51,8.46 l 1.26,5.66 3.14,4.38 c 1.67,1.68 2.66,3.93 2.97,6.76 0.32,2.81 1.42,5.8 3.3,8.94 1.89,3.13 2.82,5.01 2.82,5.65 0,2.5 -1.25,3.76 -3.76,3.76 -0.84,0 -3.45,-1.67 -7.84,-5.02 l -5.66,1.89 c -0.42,0 -1.56,-1.06 -3.45,-3.15 0,-0.84 -0.94,-1.46 -2.82,-1.87 -1.89,-0.43 -3.66,-2 -5.34,-4.71 l -2.51,-0.63 -4.08,1.88 h -1.25 c -2.1,0 -3.36,-2.3 -3.77,-6.89 -2.3,-3.36 -5.34,-5.55 -9.11,-6.61 l -6.9,-1.87 c -2.31,-0.84 -3.97,-2.73 -5.03,-5.65 -1.05,-2.94 -3.13,-5.6 -6.27,-8 -3.14,-2.41 -5.23,-3.62 -6.27,-3.62 -5.86,0 -8.8,3.25 -8.8,9.73 l 2.52,14.75 z m 135.55,156.88 -1.88,12.24 v 1.88 c 0,9.84 3.34,15.27 10.03,16.32 1.47,0.2 5.86,1.57 13.18,4.07 3.77,-0.82 7.69,-4.12 11.77,-9.88 4.08,-5.75 6.12,-10.83 6.12,-15.22 0,-0.41 -0.32,-1.36 -0.94,-2.81 -0.63,-1.47 -1.05,-4.24 -1.26,-8.32 -0.21,-4.09 -2.24,-7.64 -6.12,-10.67 -3.87,-3.04 -8,-4.55 -12.39,-4.55 -2.93,0 -6.64,2.03 -11.14,6.11 -4.5,4.09 -6.96,7.7 -7.37,10.83"
       style="fill:#cc2271;fill-opacity:1;fill-rule:nonzero;stroke:none"
       transform="matrix(0.13333333,0,0,-0.13333333,0,1133.8533)" />
    <path
       id="path9"
       d="m 3098.01,3685.68 4.4,1.25 3.13,3.14 h 0.63 l 2.83,-1.25 h 0.63 c 5.01,0 9.47,0.98 13.37,2.98 3.9,1.98 7.17,3.39 9.81,4.23 2.64,0.84 4.28,1.46 4.92,1.89 0.63,0.41 1.16,0.63 1.58,0.63 l 5.08,-0.63 c 1.67,0 3.91,2.97 6.74,8.94 2.82,5.96 6,10.3 9.56,13.02 3.55,2.71 7.11,7.85 10.66,15.37 0.84,1.05 1.78,2.67 2.83,4.87 1.04,2.2 1.88,3.29 2.5,3.29 3.14,0 5.65,1.99 7.53,5.96 6.27,7.32 11.39,10.99 15.36,10.99 5.23,0 8.89,-5.03 10.98,-15.07 l 3.14,-11.92 c 0,-0.21 -0.53,-1.72 -1.57,-4.55 -1.05,-2.82 -1.52,-5.64 -1.41,-8.48 0.1,-2.81 0,-4.7 -0.32,-5.64 -0.31,-0.94 -0.47,-2.03 -0.47,-3.29 0,-1.67 1.78,-2.51 5.34,-2.51 1.26,0 3.55,0.84 6.9,2.51 l 1.88,0.62 c 2.09,-1.26 3.87,-1.88 5.34,-1.88 0.42,0 3.39,1.05 8.94,3.14 5.54,2.09 9.04,3.25 10.51,3.45 1.46,0.21 3.97,1.05 7.53,2.51 h 3.77 l 2.51,-0.94 c 0.83,0 2.56,0.88 5.17,2.67 2.62,1.77 7.58,2.87 14.91,3.29 l 4.39,1.88 h 1.25 c 6.91,0 10.36,-3.03 10.36,-9.09 0,-1.26 -0.99,-3.45 -2.98,-6.6 -1.99,-3.12 -3.61,-6.69 -4.86,-10.66 l -14.44,-18.21 c -4.81,-6.27 -9.62,-9.41 -14.43,-9.41 -0.84,0 -3.45,2.83 -7.85,8.48 0,0.41 -0.41,0.62 -1.25,0.62 -2.09,0 -4.29,-0.41 -6.59,-1.25 -2.3,-0.84 -4.19,-1.25 -5.64,-1.25 -0.64,0 -6.18,-1.58 -16.64,-4.71 l -7.52,-1.26 c -0.84,0 -2.83,-0.42 -5.97,-1.26 l -16.02,-3.13 c -5.44,-2.72 -9.73,-7.84 -12.87,-15.38 0,-0.41 -1.05,-1.36 -3.14,-2.81 l -14.13,-25.74 c -4.62,-1.26 -7.66,-3.97 -9.12,-8.15 l -1.25,-1.89 c -2.31,-0.41 -4.41,-1.72 -6.29,-3.92 -1.89,-2.2 -3.67,-3.92 -5.35,-5.18 l -5.66,-8.46 c -2.31,-2.94 -4.61,-6.13 -6.91,-9.57 -2.31,-3.46 -3.99,-7.12 -5.04,-10.99 -1.04,-3.88 -1.88,-6.12 -2.51,-6.75 -0.62,-0.62 -0.94,-1.78 -0.94,-3.45 l -0.94,-2.5 c -2.52,-2.52 -3.77,-5.34 -3.77,-8.48 l 1.26,-5.02 c -2.94,-10.04 -4.41,-15.37 -4.41,-16.01 0,-0.42 0.21,-1.57 0.63,-3.44 v -1.89 c 0,-4.6 -1.68,-10.36 -5.03,-17.25 l 0.63,-5.02 -1.89,-14.13 c 0,-1.88 0.63,-5.33 1.89,-10.35 -0.84,-0.84 -1.26,-1.46 -1.26,-1.88 0,-5.86 3.09,-12.3 9.27,-19.3 6.19,-7.01 9.28,-17.94 9.28,-32.79 0,-1.26 -0.32,-3.09 -0.95,-5.49 -0.62,-2.41 -1.05,-5.02 -1.26,-7.84 -0.2,-2.83 -1.82,-5.61 -4.87,-8.32 -3.04,-2.72 -5.6,-4.08 -7.69,-4.08 -11.11,0 -19.39,8.05 -24.84,24.16 -5.45,16.11 -8.17,26.46 -8.17,31.07 l 0.63,12.23 -1.89,6.27 1.89,27.61 -1.26,6.61 7.23,26.97 v 9.72 c 0,0.43 1.47,2.09 4.4,5.02 0,0.43 -0.43,0.64 -1.25,0.64 -1.27,0 -2.94,-1.26 -5.04,-3.76 -2.09,-2.52 -4.71,-4.92 -7.86,-7.23 l -2.51,-4.39 c -0.43,0.42 -1.26,0.84 -2.52,1.26 -1.04,-0.42 -4.5,-5.34 -10.37,-14.75 -4.4,-0.63 -7.86,-3.13 -10.38,-7.53 -2.51,-4.39 -5.97,-6.59 -10.36,-6.59 l -1.26,-0.63 c -0.84,-6.06 -3.77,-9.1 -8.81,-9.1 l -1.25,-0.62 c -3.14,-7.12 -6.39,-10.57 -9.75,-10.36 -2.1,-6.27 -7.23,-10.57 -15.4,-12.87 -1.26,-2.5 -3.09,-4.38 -5.5,-5.64 -2.41,-1.26 -4.14,-2.41 -5.19,-3.45 -1.04,-1.05 -1.98,-1.58 -2.83,-1.58 -2.72,0 -4.08,2.93 -4.08,8.79 0,1.68 0.68,3.51 2.04,5.49 1.37,1.99 2.04,3.4 2.04,4.24 0,0.42 -1.04,1.68 -3.14,3.77 0,6.48 1.68,10.56 5.03,12.23 3.35,1.67 5.86,4.08 7.54,7.22 1.04,2.51 3.14,4.29 6.28,5.33 3.14,1.05 4.71,2.41 4.71,4.08 0,1.47 2.72,4.4 8.17,8.79 5.44,4.4 9.42,8.21 11.94,11.45 2.5,3.24 4.6,4.86 6.28,4.86 l 1.25,1.26 c 0.42,5.23 2.41,7.84 5.98,7.84 l 3.13,1.89 0.64,2.51 1.88,1.25 h 2.52 l 1.56,1.26 c 0.42,5.22 2.88,9.3 7.38,12.23 4.5,2.93 12.72,11.14 24.66,24.63 11.94,13.5 18.64,22.13 20.11,25.89 1.46,3.76 4.14,8.84 8.01,15.23 3.87,6.36 6.02,12.38 6.44,18.03 -0.42,0.83 -1.05,1.67 -1.88,2.51 l -13.49,-6.58 c 0,0.63 -2.1,1.56 -6.28,2.81 -3.14,-1.87 -5.44,-3.76 -6.9,-5.64 -1.47,-1.88 -2.62,-2.82 -3.45,-2.82 l -4.4,0.62 -13.8,-1.57 c -12.34,-1.05 -21.65,-3.55 -27.93,-7.52 l -12.86,-3.77 h -2.82 c -1.68,0 -4.19,-1.05 -7.54,-3.14 l -7.22,0.63 c -6.68,-3.56 -11.6,-5.34 -14.74,-5.34 -0.42,0 -1.67,0.21 -3.77,0.63 l -32,-8.79 c -2.51,-0.82 -8.16,-5.12 -16.95,-12.86 l -2.51,-0.62 c -2.09,0 -4.55,2.34 -7.37,7.05 -2.82,4.71 -4.24,8.94 -4.24,12.71 0,20.71 17.79,32.74 53.34,36.09 l 12.87,5.02 h 0.63 l 3.45,-1.26 h 1.25 c 1.26,0 3.25,0.78 5.96,2.36 2.72,1.56 8.79,3.5 18.2,5.8 l 12.87,3.45 4.08,-0.63 c 2.09,0 4.44,0.83 7.06,2.51 2.61,1.67 6.59,2.88 11.92,3.62 5.34,0.72 9.05,1.5 11.14,2.34 l 5.02,1.26 c 0.84,0 2.56,0.73 5.18,2.2 2.61,1.46 6.01,2.19 10.19,2.19 0.64,0 2.2,-0.41 4.71,-1.25"
       style="fill:#cc2271;fill-opacity:1;fill-rule:nonzero;stroke:none"
       transform="matrix(0.13333333,0,0,-0.13333333,0,1133.8533)" />
    <path
       id="path10"
       d="m 3275.92,3685.68 4.4,1.25 3.13,3.14 h 0.63 l 2.82,-1.25 h 0.64 c 5.01,0 9.47,0.98 13.37,2.98 3.9,1.98 7.17,3.39 9.81,4.23 2.64,0.84 4.28,1.46 4.92,1.89 0.63,0.41 1.16,0.63 1.58,0.63 l 5.08,-0.63 c 1.67,0 3.91,2.97 6.74,8.94 2.82,5.96 6,10.3 9.56,13.02 3.55,2.71 7.11,7.85 10.66,15.37 0.84,1.05 1.78,2.67 2.83,4.87 1.04,2.2 1.88,3.29 2.5,3.29 3.14,0 5.65,1.99 7.54,5.96 6.26,7.32 11.38,10.99 15.35,10.99 5.23,0 8.89,-5.03 10.98,-15.07 l 3.14,-11.92 c 0,-0.21 -0.53,-1.72 -1.57,-4.55 -1.05,-2.82 -1.52,-5.64 -1.41,-8.48 0.1,-2.81 0,-4.7 -0.32,-5.64 -0.31,-0.94 -0.47,-2.03 -0.47,-3.29 0,-1.67 1.78,-2.51 5.34,-2.51 1.26,0 3.55,0.84 6.9,2.51 l 1.88,0.62 c 2.09,-1.26 3.87,-1.88 5.34,-1.88 0.42,0 3.39,1.05 8.94,3.14 5.54,2.09 9.04,3.25 10.51,3.45 1.46,0.21 3.97,1.05 7.53,2.51 h 3.77 l 2.51,-0.94 c 0.83,0 2.56,0.88 5.17,2.67 2.62,1.77 7.58,2.87 14.91,3.29 l 4.39,1.88 h 1.25 c 6.91,0 10.35,-3.03 10.35,-9.09 0,-1.26 -0.98,-3.45 -2.97,-6.6 -1.99,-3.12 -3.61,-6.69 -4.86,-10.66 l -14.44,-18.21 c -4.81,-6.27 -9.62,-9.41 -14.43,-9.41 -0.84,0 -3.45,2.83 -7.85,8.48 0,0.41 -0.41,0.62 -1.25,0.62 -2.09,0 -4.29,-0.41 -6.59,-1.25 -2.3,-0.84 -4.19,-1.25 -5.64,-1.25 -0.64,0 -6.18,-1.58 -16.64,-4.71 l -7.52,-1.26 c -0.84,0 -2.83,-0.42 -5.97,-1.26 l -16.02,-3.13 c -5.44,-2.72 -9.73,-7.84 -12.87,-15.38 0,-0.41 -1.05,-1.36 -3.14,-2.81 l -14.13,-25.74 c -4.62,-1.26 -7.66,-3.97 -9.12,-8.15 l -1.25,-1.89 c -2.31,-0.41 -4.41,-1.72 -6.29,-3.92 -1.89,-2.2 -3.67,-3.92 -5.35,-5.18 l -5.66,-8.46 c -2.31,-2.94 -4.61,-6.13 -6.91,-9.57 -2.31,-3.46 -3.99,-7.12 -5.03,-10.99 -1.05,-3.88 -1.89,-6.12 -2.52,-6.75 -0.62,-0.62 -0.94,-1.78 -0.94,-3.45 l -0.94,-2.5 c -2.52,-2.52 -3.77,-5.34 -3.77,-8.48 l 1.26,-5.02 c -2.94,-10.04 -4.41,-15.37 -4.41,-16.01 0,-0.42 0.21,-1.57 0.63,-3.44 v -1.89 c 0,-4.6 -1.68,-10.36 -5.03,-17.25 l 0.63,-5.02 -1.89,-14.13 c 0,-1.88 0.63,-5.33 1.89,-10.35 -0.84,-0.84 -1.26,-1.46 -1.26,-1.88 0,-5.86 3.09,-12.3 9.27,-19.3 6.19,-7.01 9.28,-17.94 9.28,-32.79 0,-1.26 -0.32,-3.09 -0.95,-5.49 -0.62,-2.41 -1.05,-5.02 -1.25,-7.84 -0.21,-2.83 -1.83,-5.61 -4.88,-8.32 -3.04,-2.72 -5.6,-4.08 -7.69,-4.08 -11.11,0 -19.39,8.05 -24.84,24.16 -5.45,16.11 -8.17,26.46 -8.17,31.07 l 0.63,12.23 -1.89,6.27 1.89,27.61 -1.26,6.61 7.23,26.97 v 9.72 c 0,0.43 1.47,2.09 4.4,5.02 0,0.43 -0.42,0.64 -1.25,0.64 -1.27,0 -2.94,-1.26 -5.04,-3.76 -2.09,-2.52 -4.71,-4.92 -7.86,-7.23 l -2.51,-4.39 c -0.43,0.42 -1.26,0.84 -2.51,1.26 -1.05,-0.42 -4.51,-5.34 -10.38,-14.75 -4.4,-0.63 -7.86,-3.13 -10.38,-7.53 -2.51,-4.39 -5.97,-6.59 -10.36,-6.59 l -1.26,-0.63 c -0.84,-6.06 -3.77,-9.1 -8.81,-9.1 l -1.25,-0.62 c -3.14,-7.12 -6.39,-10.57 -9.75,-10.36 -2.1,-6.27 -7.23,-10.57 -15.4,-12.87 -1.26,-2.5 -3.09,-4.38 -5.5,-5.64 -2.41,-1.26 -4.14,-2.41 -5.19,-3.45 -1.04,-1.05 -1.98,-1.58 -2.83,-1.58 -2.72,0 -4.08,2.93 -4.08,8.79 0,1.68 0.68,3.51 2.04,5.49 1.37,1.99 2.04,3.4 2.04,4.24 0,0.42 -1.04,1.68 -3.14,3.77 0,6.48 1.68,10.56 5.03,12.23 3.35,1.67 5.86,4.08 7.54,7.22 1.04,2.51 3.14,4.29 6.28,5.33 3.14,1.05 4.71,2.41 4.71,4.08 0,1.47 2.72,4.4 8.17,8.79 5.44,4.4 9.42,8.21 11.94,11.45 2.5,3.24 4.6,4.86 6.28,4.86 l 1.25,1.26 c 0.42,5.23 2.41,7.84 5.97,7.84 l 3.14,1.89 0.64,2.51 1.88,1.25 h 2.52 l 1.56,1.26 c 0.42,5.22 2.88,9.3 7.38,12.23 4.5,2.93 12.72,11.14 24.66,24.63 11.94,13.5 18.64,22.13 20.11,25.89 1.46,3.76 4.14,8.84 8.01,15.23 3.87,6.36 6.02,12.38 6.44,18.03 -0.42,0.83 -1.05,1.67 -1.88,2.51 l -13.49,-6.58 c 0,0.63 -2.1,1.56 -6.28,2.81 -3.14,-1.87 -5.44,-3.76 -6.9,-5.64 -1.47,-1.88 -2.62,-2.82 -3.45,-2.82 l -4.4,0.62 -13.8,-1.57 c -12.35,-1.05 -21.65,-3.55 -27.93,-7.52 l -12.86,-3.77 h -2.82 c -1.68,0 -4.19,-1.05 -7.54,-3.14 l -7.22,0.63 c -6.68,-3.56 -11.6,-5.34 -14.74,-5.34 -0.42,0 -1.67,0.21 -3.76,0.63 l -32.01,-8.79 c -2.51,-0.82 -8.16,-5.12 -16.95,-12.86 l -2.51,-0.62 c -2.09,0 -4.55,2.34 -7.37,7.05 -2.82,4.71 -4.24,8.94 -4.24,12.71 0,20.71 17.79,32.74 53.34,36.09 l 12.87,5.02 h 0.63 l 3.45,-1.26 h 1.25 c 1.26,0 3.25,0.78 5.97,2.36 2.71,1.56 8.78,3.5 18.19,5.8 l 12.87,3.45 4.08,-0.63 c 2.09,0 4.44,0.83 7.06,2.51 2.61,1.67 6.59,2.88 11.92,3.62 5.34,0.72 9.05,1.5 11.14,2.34 l 5.02,1.26 c 0.84,0 2.56,0.73 5.18,2.2 2.61,1.46 6.01,2.19 10.19,2.19 0.64,0 2.2,-0.41 4.71,-1.25"
       style="fill:#cc2271;fill-opacity:1;fill-rule:nonzero;stroke:none"
       transform="matrix(0.13333333,0,0,-0.13333333,0,1133.8533)" />
    <path
       id="path11"
       d="m 3393.22,3476.71 v 2.19 c 0,2.93 0.21,5.23 0.63,6.9 -1.26,3.35 -1.88,6.38 -1.88,9.1 0,0.42 1.04,3.35 3.13,8.78 l 2.83,9.73 c 1.46,3.77 2.3,5.76 2.51,5.97 -1.26,3.35 -1.89,5.22 -1.89,5.65 0,4.81 1.36,8.78 4.08,11.92 2.72,3.14 5.02,7.53 6.9,13.18 l 6.27,19.14 10.35,25.1 c 0.2,0.62 1.2,2.3 2.98,5.02 1.77,2.71 3.23,5.07 4.39,7.07 1.14,1.97 2.77,4.86 4.86,8.62 l 3.14,0.62 c 0.84,0.84 1.25,1.68 1.25,2.51 0,0.42 -0.41,2.09 -1.25,5.02 l 10.98,18.21 6.59,13.49 c 2.09,3.56 4.39,5.85 6.9,6.9 4.19,7.73 7.84,12.44 10.98,14.12 1.25,3.97 3.56,8.26 6.92,12.87 l 5.95,0.63 c 1.04,2.93 2.09,5.11 3.13,6.58 l 0.64,6.27 c 0,-1.25 0.51,-0.88 1.57,1.11 1.03,1.98 2.61,5.69 4.7,11.13 l 8.48,9.73 2.5,4.39 c 1.05,1.47 2.71,4.29 5.02,8.48 3.14,1.25 5.76,3.56 7.85,6.9 l 6.58,5.33 c -0.41,2.3 2.09,7.43 7.54,15.38 3.56,1.45 6.8,3.35 9.73,5.65 l 4.39,1.25 c 0,7.33 2.6,12.35 7.83,15.06 l 3.77,2.52 c 3.34,1.66 5.24,2.5 5.65,2.5 l 2.21,0.63 c 2.5,0.84 5.43,1.25 8.78,1.25 7.74,0 14.75,-2.88 21.02,-8.62 6.27,-5.76 9.41,-12.29 9.41,-19.61 0,-2.94 -1.56,-5.97 -4.7,-9.1 l -1.25,-2.52 c -2.93,-11.5 -5.02,-17.24 -6.29,-17.24 -0.84,0 -1.99,-0.64 -3.44,-1.9 -0.43,-6.89 -0.84,-10.77 -1.27,-11.6 -3.75,-0.63 -5.64,-5.33 -5.64,-14.12 -0.41,-1.25 -1.94,-3.4 -4.55,-6.44 -2.62,-3.03 -4.65,-7.21 -6.12,-12.55 -1.46,-5.33 -3.02,-8 -4.7,-8 h -3.46 l 0.94,-4.71 c 0,-2.93 -1.41,-5.8 -4.22,-8.63 -2.83,-2.82 -4.55,-5.8 -5.2,-8.93 -0.62,-3.14 -3.12,-6.91 -7.52,-11.31 l -3.14,-5.02 c -1.25,-2.09 -2.93,-4.27 -5.02,-6.58 -2.09,-2.3 -3.87,-5.86 -5.33,-10.66 l -8.17,-15.07 c -5.64,-10.25 -9.92,-15.17 -12.85,-14.75 -1.89,-8.15 -3.14,-12.86 -3.77,-14.12 -0.62,-1.26 -2.09,-2.41 -4.39,-3.45 -2.31,-1.05 -4.09,-2.88 -5.34,-5.48 -1.25,-2.62 -2.61,-4.56 -4.08,-5.82 l -5.64,-11.61 c -3.36,-1.46 -5.76,-4.18 -7.23,-8.15 -3.34,-0.84 -5.43,-3.66 -6.27,-8.47 -0.84,-0.84 -1.87,-2.73 -3.14,-5.65 l -10.97,-10.99 c -5.65,-3.96 -8.68,-8.51 -9.11,-13.65 -0.41,-5.12 -3.13,-7.68 -8.16,-7.68 -3.56,0 -8.78,1.57 -15.68,4.71 h -0.63 c -0.63,-2.93 -2.09,-6.17 -4.39,-9.73 l 1.25,-8.47 c 0,-1.06 -1.67,-7.64 -5.02,-19.77 1.67,-3.14 2.51,-5.33 2.51,-6.59 l -0.62,-6.9 1.56,-8.48 c 1.05,-6.9 3.56,-10.35 7.54,-10.35 l 7.52,-1.25 c 0.42,0 3.03,1.56 7.84,4.7 l 11.6,6.27 c 0.42,0 0.63,-0.21 0.63,-0.62 2.09,-0.84 3.76,-1.25 5.01,-1.25 2.09,0 3.14,1.66 3.14,5.02 v 4.08 c 1.25,2.08 2.77,3.34 4.55,3.76 1.78,0.42 3.4,1.36 4.87,2.82 1.44,1.47 2.59,2.2 3.43,2.2 h 3.15 c 3.12,0 4.7,3.66 4.7,10.99 0.82,0.41 1.88,1.25 3.13,2.5 h 3.77 c 1.66,0 3.49,2.05 5.49,6.12 1.97,4.08 3.4,6.53 4.22,7.37 3.77,0.42 6.38,1.05 7.85,1.89 6.68,12.12 11.81,18.19 15.37,18.19 h 1.87 c 3.56,3.35 5.49,6.33 5.8,8.95 0.32,2.61 1.35,4.33 3.13,5.17 1.78,0.84 3.4,1.88 4.86,3.15 1.47,1.25 2.4,1.87 2.83,1.87 3.13,0 4.71,-1.15 4.71,-3.45 l -0.96,-8.78 2.21,-9.41 c 0,-0.84 -0.9,-2.46 -2.67,-4.86 -1.78,-2.42 -2.66,-5.08 -2.66,-8.01 0,-6.07 -1.06,-9.31 -3.14,-9.73 -2.09,-0.42 -3.81,-1.83 -5.16,-4.24 -1.37,-2.4 -3.61,-4.6 -6.76,-6.58 -3.12,-1.99 -5.53,-4.86 -7.21,-8.63 l -5.33,-1.25 -3.12,-1.89 c -2.52,-6.49 -5.18,-10.45 -8.01,-11.92 -2.83,-1.46 -6.33,-5.86 -10.51,-13.18 -0.62,0 -0.94,-0.22 -0.94,-0.63 l -5.02,0.63 c -1.87,-3.34 -3.75,-5.33 -5.64,-5.96 -1.88,-0.62 -3.44,-1.84 -4.71,-3.61 -1.25,-1.78 -3.49,-3.3 -6.74,-4.55 -3.24,-1.25 -5.27,-2.72 -6.11,-4.4 -0.84,-1.67 -2.09,-2.62 -3.76,-2.81 -1.67,-0.22 -3.24,-1 -4.7,-2.36 -1.46,-1.36 -2.71,-2.03 -3.76,-2.03 -0.42,0 -1.88,0.19 -4.4,0.62 h -1.25 c -3.55,-2.51 -6.48,-3.77 -8.77,-3.77 -2.72,0 -4.71,-0.42 -5.96,-1.25 -1.25,0.83 -3.2,1.47 -5.81,1.88 -2.61,0.41 -5.59,1.46 -8.93,3.14 -3.56,-0.84 -5.76,-1.25 -6.59,-1.25 -3.55,0 -8.05,3.5 -13.48,10.51 -5.44,7 -8.16,13.85 -8.16,20.54 0,0.22 -1.2,1.84 -3.6,4.87 -2.41,3.03 -3.61,6.33 -3.61,9.88 v 3.15 l 0.63,3.75 v 5.97 l 0.62,1.88 c 3.14,0.41 4.71,0.84 4.71,1.25 z m 63.67,83.15 6.59,3.77 c 0.84,3.33 3.56,7.36 8.16,12.07 4.59,4.7 7.85,7.07 9.73,7.07 h 2.52 c 0,1.45 0.31,2.91 0.93,4.39 0.63,1.45 0.94,3.44 0.94,5.96 0,1.25 2.81,4.7 8.48,10.35 l 2.5,5.64 c 1.89,5.44 6.6,9.94 14.12,13.5 2.93,6.06 5.12,9.1 6.58,9.1 l 2.52,0.63 c 0.84,3.14 2.52,5.95 5.02,8.47 l 1.25,1.88 v 5.02 c 0,0.42 1.43,2.15 4.24,5.17 2.83,3.04 4.86,5.86 6.11,8.48 1.27,2.62 2.99,4.65 5.2,6.11 2.18,1.47 3.71,4.08 4.53,7.85 l 5.04,0.63 c 0,2.71 0.19,4.49 0.62,5.33 l 0.63,3.15 c 1.03,2.5 4.7,9.1 10.97,19.76 l 5.02,11.61 c 0,1.26 0.9,2.77 2.68,4.54 1.78,1.78 2.66,4.35 2.66,7.7 l 2.52,10.35 c 0,4.81 -0.84,7.22 -2.52,7.22 -2.09,-1.47 -4.03,-2.51 -5.8,-3.14 -1.78,-0.62 -3.5,-4.39 -5.18,-11.3 -6.27,-1.46 -9.88,-4.44 -10.82,-8.93 -0.94,-4.51 -3.52,-8.32 -7.7,-11.47 l -2.18,-3.76 c -0.43,-2.3 -2.43,-4.71 -5.98,-7.21 -3.56,-2.51 -6.89,-6.8 -10.04,-12.87 -10.45,-14.43 -16.21,-22.17 -17.25,-23.22 l -3.14,-3.76 -4.71,0.63 c 0.84,-3.35 1.25,-5.24 1.25,-5.65 0,-1.26 -0.62,-2.46 -1.87,-3.61 -1.25,-1.15 -2.19,-2.56 -2.83,-4.24 -0.63,-1.68 -1.88,-3.61 -3.75,-5.8 -1.9,-2.2 -3.62,-5.76 -5.18,-10.66 -1.58,-4.92 -2.99,-7.81 -4.24,-8.64 l -4.39,0.63 c -2.74,-1.68 -4.08,-3.35 -4.08,-5.02 l 0.93,-4.39 c 0,-0.84 -0.58,-1.84 -1.72,-2.99 -1.15,-1.15 -2.24,-3.4 -3.3,-6.74 -1.05,-3.35 -3.66,-8.42 -7.84,-15.22 -4.19,-6.79 -7.48,-14.02 -9.89,-21.66 -2.4,-7.63 -4.76,-12.5 -7.05,-14.59 0.41,-0.41 1.04,-0.62 1.88,-0.62 2.71,0 5.34,2.83 7.84,8.48"
       style="fill:#cc2271;fill-opacity:1;fill-rule:nonzero;stroke:none"
       transform="matrix(0.13333333,0,0,-0.13333333,0,1133.8533)" />
    <path
       id="path12"
       d="m 3575.55,3530.05 6.59,5.33 c 5.01,0.41 7.72,3.03 8.14,7.84 0.42,4.82 3.87,9 10.36,12.55 l 3.75,5.34 c 3.14,3.14 11.72,7.22 25.72,12.24 3.55,2.09 5.95,3.97 7.21,5.65 0.43,0.41 0.83,0.62 1.25,0.62 l 5.02,-1.25 c 2.72,0 6.22,0.72 10.5,2.19 4.29,1.46 8.42,2.21 12.39,2.21 l 13.18,0.62 c 0.83,0 2.56,-0.62 5.16,-1.89 2.62,-1.25 5.81,-1.88 9.57,-1.88 4.61,0 8.83,-2.09 12.7,-6.27 3.87,-4.19 5.8,-8.06 5.8,-11.62 0,-6.48 -3.34,-13.07 -10.02,-19.77 -6.68,-6.69 -12,-10.46 -15.97,-11.28 -3.55,-3.56 -6.26,-5.8 -8.14,-6.75 -1.88,-0.95 -3.82,-2.41 -5.8,-4.4 -1.98,-1.98 -3.6,-2.98 -4.85,-2.98 -0.84,0 -1.47,0.26 -1.88,0.79 -0.42,0.52 -1.04,0.78 -1.88,0.78 -3.34,0 -6.99,-4.08 -10.96,-12.23 l -5.64,0.63 c -3.55,-2.31 -5.85,-4.82 -6.89,-7.54 -1.05,-2.72 -3.23,-4.08 -6.57,-4.08 -7.73,-7.74 -12.95,-11.61 -15.66,-11.61 -0.43,0 -1.89,0.42 -4.39,1.25 -1.67,-2.09 -2.51,-4.27 -2.51,-6.58 0,-2.51 -1.67,-3.98 -5.01,-4.39 l -4.06,-3.77 -3.14,0.63 -6.27,-6.59 c -3.13,0 -6.36,-1.05 -9.7,-3.14 -0.42,-2.5 -1.05,-5.7 -1.89,-9.57 -0.84,-3.87 -1.25,-6.02 -1.25,-6.43 0,-6.07 5.54,-9.1 16.63,-9.1 l 15.07,2.19 c 3.96,0 7.69,1.05 11.13,3.14 3.46,2.09 7.17,3.14 11.15,3.14 1.25,0 3.14,0.41 5.65,1.25 l 3.14,-1.25 c 1.46,3.14 4.18,5.96 8.15,8.48 3.97,2.5 7.12,3.76 9.42,3.76 l 3.14,1.89 c 0.83,2.5 2.09,4.18 3.77,5.01 l 2.51,2.19 c 1.67,1.68 3.23,2.52 4.71,2.52 h 4.38 l 1.26,0.63 c 2.51,5.43 6,8.63 10.5,9.57 4.51,0.93 7.33,2.46 8.48,4.55 1.15,2.09 3.2,3.34 6.13,3.77 2.92,0.41 5.38,1.81 7.37,4.22 1.98,2.41 4.44,4.66 7.37,6.75 2.93,2.09 4.97,3.66 6.13,4.71 1.14,1.04 2.13,1.56 2.97,1.56 1.26,0 1.89,-0.93 1.89,-2.81 0,-1.89 0.42,-2.83 1.26,-2.83 0.83,0 1.25,0.42 1.25,1.26 0,0.83 -0.21,1.88 -0.63,3.13 v 2.2 c 0,3.14 1.67,5.23 5.02,6.28 l 14.12,9.1 c 0.42,4.38 1.62,6.95 3.62,7.68 1.98,0.74 3.49,1.57 4.55,2.52 1.04,0.93 2.2,1.4 3.45,1.4 2.71,0 4.07,-1.56 4.07,-4.7 l -1.57,-8.16 1.57,-8.46 c 0,-1.27 -0.99,-2.99 -2.98,-5.19 -1.99,-2.2 -3.51,-5.54 -4.55,-10.04 -1.05,-4.5 -2.4,-6.96 -4.08,-7.37 h -1.89 c -3.77,-3.98 -6.76,-6.33 -8.94,-7.06 -2.2,-0.74 -3.94,-2.04 -5.19,-3.92 l -10.67,-12.25 c -2.1,-2.08 -3.88,-3.97 -5.34,-5.64 -1.47,-1.68 -2.62,-2.51 -3.46,-2.51 l -2.51,2.51 c 0,0.41 -0.42,0.63 -1.25,0.63 -2.1,0 -3.41,-1.25 -3.93,-3.77 -0.53,-2.5 -1.63,-4.71 -3.3,-6.59 -6.28,-2.93 -10.37,-5.64 -12.25,-8.16 l -1.88,-0.63 h -5.65 c -2.73,0 -4.6,-2.03 -5.66,-6.11 -1.04,-4.08 -4.03,-6.44 -8.94,-7.07 -4.92,-0.62 -8.43,-1.87 -10.52,-3.76 -0.43,-0.42 -1.37,-0.83 -2.83,-1.26 -1.47,-0.41 -4.4,-2.09 -8.79,-5.02 l -26.38,-9.41 c -2.1,-1.05 -3.45,-1.56 -4.08,-1.56 l -8.8,-1.25 c -1.26,0 -2.51,0.82 -3.77,2.5 -1.25,1.68 -2.09,2.52 -2.51,2.52 l -5.65,-1.89 c -4.18,-1.26 -8.17,-1.88 -11.94,-1.88 -2.09,0 -4.39,0.73 -6.9,2.19 -2.51,1.46 -4.5,2.51 -5.97,3.14 -6.07,0 -10.36,4.7 -12.87,14.12 l -3.77,-0.63 c -0.84,0 -3.66,7.43 -8.48,22.28 -1.25,1.67 -3.25,2.88 -5.96,3.6 -2.72,0.74 -4.08,2.78 -4.08,6.12 0,9.42 2.04,15.74 6.12,18.99 4.08,3.24 6.33,5.69 6.75,7.37 l 4.38,16.32 c 0.83,0.62 1.89,2.71 3.14,6.28 l 7.21,13.17 c 0.83,1.46 2.72,5.13 5.65,10.99 z m 66.35,18.83 -3.76,-1.9 c -0.84,-0.41 -3.3,-2.24 -7.38,-5.48 -4.07,-3.25 -8.05,-5.86 -11.92,-7.85 -3.87,-1.99 -7.84,-7.17 -11.93,-15.53 -4.07,-8.36 -6.11,-13.18 -6.11,-14.44 0,-1.25 0.63,-1.87 1.89,-1.87 l 10.66,4.71 c 3.97,1.87 7.69,4.27 11.14,7.21 3.45,2.92 8.42,6.48 14.9,10.66 l 2.51,2.52 c 0.42,0.84 2.36,2.35 5.81,4.55 3.45,2.19 6.01,4.33 7.69,6.43 l 3.14,1.26 c 3.55,5.65 7.15,9.09 10.82,10.35 3.66,1.25 5.5,2.5 5.5,3.76 0,2.51 -2,3.77 -5.97,3.77 -1.68,0 -4.19,-1.04 -7.53,-3.13 h -7.22 c -0.84,0 -3.13,-1.26 -6.91,-3.77 l -5.33,-1.25"
       style="fill:#cc2271;fill-opacity:1;fill-rule:nonzero;stroke:none"
       transform="matrix(0.13333333,0,0,-0.13333333,0,1133.8533)" />
    <path
       id="path13"
       d="m 3985.06,3558.61 0.62,6.89 v 2.52 l 2.82,8.46 c 4.18,12.76 8.62,22.17 13.32,28.24 4.7,6.07 7.25,10.36 7.67,12.87 0.42,2.51 2.03,5.27 4.86,8.32 2.82,3.03 4.85,5.8 6.11,8.31 l 2.51,3.76 c 0,3.77 2.34,7.89 7.04,12.4 4.7,4.5 7.31,8 7.83,10.51 0.53,2.51 3.71,7.11 9.56,13.81 0,1.87 2.14,5.27 6.43,10.19 4.28,4.91 7.04,8.42 8.29,10.51 1.26,2.09 3.86,3.98 7.84,5.65 0.83,4.39 2.92,8.05 6.26,10.98 3.34,2.93 5.9,5.5 7.67,7.69 1.79,2.21 3.92,3.92 6.43,5.17 l 3.14,3.77 c 1.46,2.09 4.96,5.24 10.49,9.42 5.53,4.18 9.14,7.32 10.81,9.41 l 7.83,3.15 1.26,1.25 0.62,3.77 c 0.83,0.41 2.3,1.81 4.39,4.22 2.09,2.41 3.96,4.24 5.64,5.5 l 8.46,8.47 c 3.47,2.09 6.4,3.76 8.82,5.02 2.4,1.26 3.91,2.87 4.55,4.86 0.62,1.98 4.38,4.02 11.29,6.13 3.77,5.02 9.1,7.94 16.01,8.77 2.5,4.4 10.03,9.26 22.58,14.6 12.56,5.34 21.34,7.99 26.36,7.99 4.6,0 8.89,-0.62 12.87,-1.87 l 5.02,0.62 c 0.83,-0.42 2.82,-1.25 5.96,-2.51 h 0.63 l 2.51,-0.62 c 7.32,-8.37 10.98,-17.26 10.98,-26.67 0,-4.4 -0.21,-9.63 -0.63,-15.7 -2.3,-7.32 -3.45,-13.17 -3.45,-17.56 0,-2.93 -1.05,-6.49 -3.14,-10.67 l -2.51,-8.47 c -1.25,-12.35 -5.54,-18.52 -12.86,-18.52 -11.51,0 -17.26,5.33 -17.26,16 0,6.91 2.92,12.65 8.78,17.26 10.25,6.49 15.39,16.94 15.39,31.38 0,3.97 -1.68,5.97 -5.02,5.97 h -0.64 c -2.09,-1.27 -3.76,-1.89 -5.02,-1.89 l -5.96,1.89 h -0.63 l -2.51,-1.27 c -0.42,0.43 -1.94,-0.26 -4.55,-2.04 -2.62,-1.77 -6.17,-3.39 -10.67,-4.86 -4.5,-1.46 -8.99,-4.66 -13.49,-9.57 -4.49,-4.92 -9.52,-8.48 -15.06,-10.66 -5.55,-2.2 -10.41,-6.23 -14.59,-12.09 0,-0.41 -0.2,-0.63 -0.63,-0.63 l -6.59,0.63 c -0.84,0 -2.3,-2.62 -4.39,-7.83 l -1.89,-1.27 h -2.18 c -0.84,-0.41 -2.31,-1.66 -4.4,-3.75 l -3.77,-3.15 c -1.25,-3.98 -3.66,-6.8 -7.22,-8.48 l -3.76,-6.58 c -1.66,-0.84 -3.6,-2.09 -5.78,-3.77 -2.2,-1.68 -4.03,-2.82 -5.5,-3.45 -1.46,-0.63 -2.91,-2.97 -4.38,-7.05 -1.46,-4.09 -6.26,-7.59 -14.41,-10.51 -0.84,-0.84 -1.25,-1.58 -1.25,-2.21 0,-0.41 0.2,-1.25 0.62,-2.5 v -0.62 c 0,-4.2 -5.43,-10.57 -16.29,-19.15 v -1.26 c 0,-2.3 -1.77,-6.65 -5.33,-13.01 -3.55,-6.39 -6.63,-10.78 -9.24,-13.19 -2.62,-2.4 -3.91,-4.02 -3.91,-4.86 v -4.39 c 0,-3.36 -1.47,-5.45 -4.39,-6.27 -2.72,-2.31 -4.69,-4.09 -5.96,-5.35 0,-4.18 -1.77,-7.37 -5.33,-9.56 -3.54,-2.2 -5.63,-3.92 -6.26,-5.18 l 2.2,-3.76 v -1.26 c 0,-6.07 -3.04,-9.93 -9.09,-11.61 v -1.25 c 0,-2.09 -1.52,-5.18 -4.54,-9.26 -3.03,-4.08 -5.8,-6.86 -8.3,-8.32 -0.43,0 -0.84,-0.42 -1.25,-1.25 l 1.25,-8.79 c -5.43,-11.5 -10.77,-20.51 -15.99,-26.98 -2.08,-0.42 -3.12,-1.36 -3.12,-2.82 l 1.25,-5.02 v -1.27 c 0,-5.22 -0.89,-8.89 -2.67,-10.98 -1.78,-2.09 -2.67,-3.34 -2.67,-3.76 l 1.89,-4.4 c 0,-1.88 -0.84,-3.24 -2.51,-4.07 -1.68,-0.84 -2.51,-1.68 -2.51,-2.52 0,-0.41 0.21,-1.04 0.62,-1.87 v -1.89 c 0,-1.68 -1.46,-7.52 -4.39,-17.56 v -4.4 l -1.25,-4.39 c 0,-0.42 0.52,-1.72 1.56,-3.93 1.05,-2.19 1.57,-4.13 1.57,-5.8 l -1.88,-4.39 c -0.42,-0.43 -0.63,-1.06 -0.63,-1.88 0,-3.98 0.89,-9.06 2.67,-15.23 1.78,-6.17 4.76,-9.25 8.95,-9.25 7.11,0 11.44,0.83 13.01,2.51 1.56,1.68 6.07,5.39 13.49,11.14 7.42,5.75 12.33,9.83 14.74,12.24 2.4,2.4 4.28,3.92 5.64,4.55 1.36,0.62 7.06,7.17 17.1,19.61 10.03,12.44 18.82,23.58 26.35,33.42 0.41,0.41 0.98,1.82 1.72,4.23 0.73,2.41 3.02,5.43 6.9,9.11 3.87,3.65 9.56,10.82 17.09,21.48 l 5.96,5.64 c 4.59,6.49 7.26,10.52 8,12.09 0.73,1.57 2.24,3.14 4.55,4.71 2.3,1.56 4.08,3.65 5.33,6.27 1.26,2.62 3.09,4.13 5.49,4.55 2.4,0.42 3.61,1.47 3.61,3.15 l -0.64,6.58 c 2.93,4.6 6.27,7.63 10.04,9.1 -0.41,0.84 -0.62,2.09 -0.62,3.77 0,5.02 2.14,8.2 6.42,9.57 4.29,1.35 6.54,2.76 6.75,4.24 0.21,1.45 0.73,3.23 1.57,5.33 l 0.94,2.5 c 1.67,3.55 3.34,6.17 5.02,7.85 l 3.76,5.65 6.59,6.59 c 0,0.42 0.21,0.83 0.63,1.26 l -1.26,7.2 c 0,1.26 2.72,2.93 8.15,5.02 l 0.64,1.26 v 5.66 c 0,1.87 1.98,3.86 5.95,5.95 1.04,4.4 3.14,7.43 6.28,9.11 0.41,5.43 2.35,10.08 5.8,13.96 3.45,3.87 6.49,7.74 9.11,11.6 2.61,3.87 6.43,5.8 11.46,5.8 2.72,0 7.59,-1.93 14.6,-5.8 7.01,-3.86 10.52,-9.46 10.52,-16.77 0,-0.84 -1.06,-3.36 -3.15,-7.54 -2.09,-4.18 -4.07,-12.55 -5.95,-25.1 -4.4,-11.72 -7.33,-18.63 -8.79,-20.72 1.26,-2.93 1.88,-5.22 1.88,-6.9 0,-2.71 -1.77,-5.96 -5.33,-9.73 -0.63,-3.97 -1.47,-7.21 -2.51,-9.72 v -5.02 c 0,-3.98 -2.94,-6.8 -8.79,-8.48 -0.62,0 -1.46,-2.56 -2.51,-7.67 -1.05,-5.14 -1.57,-7.91 -1.57,-8.32 l 1.26,-8.48 c 0,-2.93 -0.84,-5.23 -2.51,-6.89 -1.68,-1.68 -3.93,-4.56 -6.75,-8.64 -2.82,-4.08 -4.23,-6.54 -4.23,-7.37 0,-3.57 -0.43,-6.39 -1.25,-8.47 -0.85,-2.1 -1.37,-4.35 -1.58,-6.76 -0.21,-2.4 -1.15,-4.64 -2.82,-6.73 -1.68,-2.09 -2.73,-3.77 -3.14,-5.02 1.25,-2.73 1.88,-4.3 1.88,-4.71 0,-1.26 -0.63,-3.77 -1.88,-7.54 -2.3,-2.09 -3.45,-3.87 -3.45,-5.33 0,-0.22 0.73,-1.68 2.2,-4.4 -0.43,-2.5 -1.58,-5.95 -3.45,-10.35 l -0.64,-1.87 1.26,-17.89 c 0,-0.42 -0.84,-1.68 -2.51,-3.77 v -1.57 c 0,-2.08 0.63,-3.14 1.89,-3.14 0.83,0 4.07,1.62 9.72,4.86 5.65,3.25 8.78,5.5 9.42,6.76 1.87,3.76 10.56,9.92 26.03,18.51 l 40.84,34.52 c 2.73,2.71 4.72,4.07 5.97,4.07 3.56,0 5.35,-1.67 5.35,-5.02 0,-4.81 -1.15,-10.36 -3.45,-16.63 v -4.71 c 0,-5.44 -2.95,-10.56 -8.81,-15.37 -0.41,-1.68 -1.82,-3.04 -4.23,-4.08 -2.41,-1.05 -4.13,-2.56 -5.18,-4.55 -1.05,-1.99 -3.41,-3.82 -7.07,-5.49 -3.66,-1.68 -6.54,-3.55 -8.63,-5.64 l -2.52,-1.26 c -3.14,-1.47 -5.24,-3.76 -6.28,-6.91 -1.05,-3.13 -2.2,-4.7 -3.46,-4.7 -4.81,0 -11.3,-4.09 -19.46,-12.24 l -3.77,-1.26 -3.77,-2.5 c -2.1,-1.89 -3.77,-2.83 -5.02,-2.83 l -4.71,0.62 -16.65,-3.13 c -2.51,0 -4.92,1.98 -7.23,5.96 h -5.01 l -4.41,5.02 c -5.02,1.67 -9.52,7.38 -13.49,17.1 -3.98,9.73 -5.96,18.15 -5.96,25.27 0,4.38 0.99,11.18 2.98,20.39 1.98,9.2 2.98,15.99 2.98,20.39 0,4.61 0.84,9.15 2.5,13.65 1.68,4.49 2.52,8.2 2.52,11.13 0,0.84 0.84,3.71 2.51,8.64 1.67,4.92 2.51,9.99 2.51,15.21 0,0.43 -0.42,0.63 -1.25,0.63 -10.9,-15.9 -18.23,-24.89 -22,-26.98 -1.47,-0.84 -3.15,-2.3 -5.02,-4.39 2.29,-3.56 3.44,-5.55 3.44,-5.96 0,-3.36 -4.08,-9.1 -12.23,-17.26 l -3.46,-7.22 c -1.25,-1.26 -2.09,-1.88 -2.51,-1.88 l -6.9,0.62 -1.88,-2.5 1.88,-6.28 c -2.3,-4.81 -5.12,-7.64 -8.46,-8.47 l -1.26,-1.26 -0.63,-3.13 -3.14,-2.21 c -0.42,0 -0.63,-0.2 -0.63,-0.62 l 1.26,-6.27 c -0.84,-1.25 -2.04,-2.46 -3.61,-3.62 -1.57,-1.15 -3.08,-3.8 -4.55,-8 -1.47,-4.18 -3.87,-6.27 -7.22,-6.27 l -2.82,1.26 h -0.62 l -0.63,-5.97 0.63,-2.5 c 0,-1.68 -1.69,-3.57 -5.02,-5.66 l -3.14,-3.44 c 0,-2.52 -2.36,-6.13 -7.06,-10.83 -4.71,-4.71 -8.21,-8.94 -10.51,-12.71 -3.56,-1.88 -7.32,-5.33 -11.3,-10.35 -6.9,-5.86 -11.03,-9.57 -12.39,-11.14 -1.37,-1.57 -3.93,-2.57 -7.69,-2.98 -2.72,-2.93 -6.28,-4.76 -10.67,-5.49 -4.4,-0.74 -8.2,-1.74 -11.45,-2.99 -3.24,-1.25 -5.28,-1.87 -6.12,-1.87 -7.73,0 -15.47,3.03 -23.21,9.09 -5.23,0.21 -8.89,2.09 -10.98,5.66 l -13.49,12.22 c -8.58,12.76 -12.86,26.47 -12.86,41.12 0,2.93 0.46,5.48 1.4,7.68 0.95,2.2 1.42,3.71 1.42,4.55 0,0.83 -0.58,1.77 -1.73,2.82 -1.15,1.05 -1.73,2 -1.73,2.82 0,1.89 1.78,3.87 5.34,5.97 -2.51,2.5 -3.77,4.81 -3.77,6.9 0,1.88 0.84,4.28 2.51,7.22 1.67,2.92 2.93,4.4 3.77,4.4 0.83,0 2.3,-1.06 4.4,-3.15 0,-0.42 0.2,-0.62 0.62,-0.62 0.83,0 1.25,0.41 1.25,1.25 0,2.09 -1.15,3.77 -3.45,5.02 -2.3,1.26 -3.66,3.66 -4.08,7.23 -0.84,0.82 -1.25,1.45 -1.25,1.87 l 5.65,23.85 c 1.46,6.27 4.91,12.03 10.34,17.25 l 3.76,5.35"
       style="fill:#cc2271;fill-opacity:1;fill-rule:nonzero;stroke:none"
       transform="matrix(0.13333333,0,0,-0.13333333,0,1133.8533)" />
    <path
       id="path14"
       d="m 4560.54,3463.84 h 1.25 l 3.15,-1.25 c 0.41,0 0.83,0.2 1.25,0.62 0,3.56 1.68,6.59 5.04,9.11 1.04,3.96 3.41,7 7.07,9.1 3.67,2.08 9.49,5.53 17.46,10.35 l 7.87,6.89 3.76,1.9 2.52,3.12 c 2.31,2.72 4.5,4.09 6.61,4.09 3.14,0 4.71,-1.16 4.71,-3.45 l -2.83,-6.28 1.26,-10.35 c 0,-3.77 -1.31,-7.11 -3.93,-10.04 -2.62,-2.93 -6.65,-7.22 -12.09,-12.87 l -16.02,-16.94 -8.49,-4.39 c -2.1,-1.26 -3.99,-2.73 -5.65,-4.4 l -12.26,-10.35 c 0,-2.94 -0.94,-5.13 -2.82,-6.6 h -5.03 l -2.51,-1.25 c -1.47,-3.97 -5.77,-7.84 -12.88,-11.6 l -4.41,-3.14 c -1.46,-1.25 -2.82,-1.89 -4.08,-1.89 l -8.8,1.26 -5.96,-1.26 c -1.68,0 -3.94,0.83 -6.76,2.51 -2.83,1.68 -5.7,2.99 -8.65,3.93 -2.93,0.93 -6.64,4.8 -11.14,11.6 -4.51,6.79 -6.97,11.25 -7.39,13.34 0,0.84 -0.47,2.24 -1.41,4.24 -0.94,1.99 -1.41,3.18 -1.41,3.61 0,0.41 0.94,2.5 2.82,6.27 v 0.62 c 0,0.63 -0.58,2.09 -1.73,4.4 -1.15,2.3 -1.72,5.12 -1.72,8.47 0,1.88 -0.63,4.28 -1.88,7.22 1.67,1.67 2.51,2.92 2.51,3.76 0,0.84 -0.33,2.04 -0.95,3.61 -0.63,1.57 -0.93,2.78 -0.93,3.62 l 1.88,15.37 -1.25,7.84 0.62,7.53 c 0,4.39 -1.88,6.59 -5.63,6.59 -1.67,0 -3.75,-1.15 -6.25,-3.45 l -2.19,-0.63 c -5.63,-2.72 -9.59,-4.97 -11.88,-6.75 -2.3,-1.78 -4.69,-2.67 -7.19,-2.67 -1.26,-1.25 -3.65,-2.41 -7.2,-3.44 l -2.5,-1.89 c -0.83,-0.84 -2.5,-2.1 -5,-3.76 0,-0.63 -3.91,-4.14 -11.73,-10.52 -7.81,-6.37 -14.85,-12.39 -21.1,-18.03 -6.26,-5.66 -10.79,-8.74 -13.6,-9.26 -2.82,-0.53 -4.22,-3.19 -4.22,-8.01 0,-0.84 -1.88,-2.5 -5.63,-5.02 -0.42,0 -2.61,-2.3 -6.57,-6.89 -3.33,2.5 -5.2,3.76 -5.63,3.76 -2.72,0 -4.72,-3.45 -5.97,-10.36 -1.26,-2.72 -4.61,-4.39 -10.07,-5.02 -0.42,-0.21 -1.15,-1.78 -2.21,-4.71 l -1.25,-1.25 h -3.14 c -0.43,0 -1.9,-1.21 -4.4,-3.61 -2.52,-2.4 -4.73,-3.92 -6.62,-4.55 -2.72,-5.65 -5.04,-8.47 -6.91,-8.47 -0.85,0 -2.05,0.42 -3.63,1.26 -1.57,0.83 -3.5,1.56 -5.8,2.19 -2.31,0.63 -4.87,3.19 -7.7,7.69 -2.82,4.5 -4.23,8.32 -4.23,11.45 0,23.22 4.5,35.88 13.49,37.97 l 0.63,1.26 v 2.51 c 0,2.71 1.2,4.65 3.61,5.8 2.4,1.15 4.86,3.45 7.37,6.91 2.51,3.44 4.18,5.37 5.02,5.8 h 4.08 c 0.83,0 1.25,2.19 1.25,6.58 0,1.26 0.53,2.41 1.57,3.46 1.05,1.04 1.67,2.56 1.89,4.55 0.2,1.98 1.73,5.23 4.55,9.73 2.82,4.49 4.24,7.17 4.24,8 l -0.64,1.26 c -5.22,-4.83 -8.99,-7.44 -11.29,-7.85 -2.3,-0.43 -5.45,-3.45 -9.41,-9.11 l -5.02,0.95 c -8.8,-6.49 -14.25,-10.15 -16.35,-10.99 -2.1,-0.84 -4.4,-3.24 -6.92,-7.2 0,-1.26 -0.73,-2.1 -2.21,-2.52 -1.47,-0.42 -4.19,-2.09 -8.17,-5.02 h -1.89 c -5.24,0 -7.87,3.77 -7.87,11.3 l 6.59,17.88 c 1.88,5.65 6.31,10.41 13.32,14.28 7,3.86 12.91,7.57 17.71,11.14 4.8,3.55 9.62,5.44 14.42,5.65 l 2.2,3.13 c 7.1,2.72 11.9,7.01 14.42,12.87 2.5,5.86 5.95,8.79 10.34,8.79 11.5,0 20.28,-4.24 26.34,-12.72 6.06,-8.47 9.09,-15.21 9.09,-20.23 l 0.62,-8.48 c 0,-2.93 -0.62,-7.01 -1.87,-12.22 -2.51,-3.77 -3.77,-6.61 -3.77,-8.48 0,-1.68 1.04,-2.51 3.14,-2.51 1.25,0 2.92,0.89 5.01,2.66 2.09,1.78 4.44,3.4 7.05,4.87 2.62,1.46 4.13,2.71 4.55,3.77 2.09,5.02 5.75,8.46 10.97,10.35 5.23,1.87 8.46,3.44 9.73,4.71 l 3.13,2.5 2.51,4.7 c 5.63,2.52 9.39,4.82 11.28,6.92 1.88,2.09 4.38,3.44 7.52,4.08 3.14,0.62 6.7,2.5 10.66,5.64 l 4.71,1.25 4.38,2.51 c 0.43,0.42 1.68,0.95 3.77,1.58 2.09,0.62 5.17,1.71 9.24,3.29 4.07,1.57 6.85,2.35 8.31,2.35 10.66,0 19.07,-4.29 25.24,-12.86 6.17,-8.58 9.25,-15.48 9.25,-20.71 l -0.63,-5.65 1.26,-8.47 v -1.25 l -2.51,-17.27 0.63,-5.96 c 0,-9.83 -2.09,-16.62 -6.28,-20.39 -1.05,-0.43 -1.57,-1.46 -1.57,-3.14 v -2.83 l 6.27,-13.17 c 1.89,-4.61 3.35,-6.9 4.41,-6.9 l 10.06,2.82 c 2.93,0.84 5.34,3.03 7.23,6.59 1.68,0.83 4.61,3.34 8.81,7.53 1.25,3.34 3.25,5.02 5.98,5.02"
       style="fill:#cc2271;fill-opacity:1;fill-rule:nonzero;stroke:none"
       transform="matrix(0.13333333,0,0,-0.13333333,0,1133.8533)" />
    <path
       id="path15"
       d="m 4603.18,3212.19 -5.03,-3.45 c -2.09,-1.26 -4.28,-1.88 -6.59,-1.88 -5.22,0 -10.3,3.45 -15.21,10.35 -4.91,6.9 -7.37,14.02 -7.37,21.34 0,13.18 1.3,22.54 3.91,28.08 2.62,5.55 4.14,9.68 4.55,12.39 0,0.22 2.26,5.39 6.75,15.54 4.5,10.15 8.74,17.83 12.7,23.06 3.98,5.23 7.33,10.15 10.04,14.74 l 1.26,2.52 c 3.14,5.01 6.17,8.47 9.11,10.35 0,1.25 4.02,5.6 12.08,13.02 8.04,7.43 15.63,13.76 22.74,18.99 l 3.15,4.39 c 5.01,3.14 7.93,4.71 8.77,4.71 l 18.21,5.02 c 1.67,1.67 5.75,4.91 12.23,9.73 h 2.51 l 8.47,2.5 c 4.6,2.09 11.75,4.03 21.44,5.82 9.7,1.76 15.21,3.86 16.53,6.27 1.33,2.4 2.44,4.64 3.36,6.74 0.91,2.08 3.19,6.48 6.86,13.18 0.83,3.55 1.56,6.38 2.19,8.47 0.64,2.09 1.31,3.34 2.04,3.77 0.73,0.41 1.93,2.45 3.62,6.12 1.66,3.65 3.34,6.74 5.02,9.25 0.41,0 0.62,0.21 0.62,0.63 l -1.89,5.33 c 1.68,5.02 3.4,8.11 5.18,9.26 1.78,1.15 2.68,1.93 2.68,2.35 l -2.2,5.66 5.33,11.6 c 0,0.84 -0.42,1.26 -1.26,1.26 -11.09,-7.75 -17.57,-11.61 -19.45,-11.61 -1.05,-1.47 -3.34,-3.98 -6.9,-7.53 -3.55,-1.26 -5.95,-3.45 -7.2,-6.59 l -2.5,-0.63 -1.89,-3.14 c 0,-0.41 -0.73,-0.94 -2.2,-1.57 -1.45,-0.62 -4.38,-2.3 -8.75,-5.02 l -3.78,0.63 c -0.83,0 -1.87,-2.09 -3.12,-6.27 -3.55,-4.2 -6.96,-6.76 -10.19,-7.69 -3.24,-0.94 -5.27,-2.04 -6.11,-3.3 l -2.51,-3.13 -3.12,0.62 c -4.4,0 -6.58,-1.68 -6.58,-5.02 0,-1.88 -1.27,-4.08 -3.77,-6.59 -1.66,0 -3.76,-0.63 -6.26,-1.88 h -4.7 c -2.09,-4.6 -5.85,-7.42 -11.27,-8.48 l -9.09,-6.27 -5.32,-1.87 c -2.52,-1.27 -5.02,-2.79 -7.54,-4.55 -2.5,-1.79 -6.78,-2.89 -12.84,-3.3 -2.92,1.66 -7.42,3.3 -13.48,4.86 -6.07,1.56 -10.36,11.76 -12.86,30.58 h -0.63 c -1.67,0 -3.51,-0.62 -5.49,-1.87 -1.99,-1.25 -3.4,-1.89 -4.24,-1.89 -5.01,0 -7.53,2.09 -7.53,6.28 0,9.42 3.56,15.59 10.67,18.52 l 7.84,9.73 20.09,19.76 c 14.04,14.01 23.47,23.01 28.3,26.98 4.82,3.98 10.07,7.85 15.73,11.62 l 16.03,10.66 c 5.45,3.55 8.81,5.49 10.07,5.8 1.25,0.32 2.56,1 3.93,2.05 1.37,1.04 5.19,2.61 11.48,4.71 l 5.66,2.5 c 11.74,3.97 19.29,5.96 22.65,5.96 l 4.39,-0.63 c 2.3,0 4.51,0.84 6.61,2.52 2.93,0 7.44,2.29 13.53,6.89 l 11.32,3.15 c 3.14,1.04 5.76,1.56 7.86,1.56 h 5.96 c 4.4,0 7.27,-3.45 8.64,-10.35 1.35,-6.89 2.56,-10.35 3.6,-10.35 0.42,0 1.67,1.56 3.77,4.71 l 4.39,3.13 c 3.14,2.09 5.12,3.14 5.96,3.14 5.02,0 8.16,-2.09 9.41,-6.27 v -0.63 l 1.26,-1.57 c 1.88,-10.04 2.83,-16.21 2.83,-18.51 0,-10.05 -2.15,-17.89 -6.44,-23.53 -4.29,-5.66 -6.85,-9.63 -7.68,-11.94 -4.2,-16.93 -8.38,-29.7 -12.55,-38.28 -1.06,-2.3 -3.57,-8.36 -7.53,-18.19 l -3.15,-3.14 c -0.84,-0.43 -1.25,-1.05 -1.25,-1.88 l 0.63,-4.4 c -3.56,-5.64 -5.33,-10.14 -5.33,-13.48 0,-1.89 -1.68,-5.76 -5.04,-11.62 0.42,-0.41 2.25,-1.52 5.5,-3.28 3.25,-1.79 6.91,-5.14 10.99,-10.05 4.07,-4.91 6.11,-8.63 6.11,-11.15 0,-0.62 -1.15,-4.69 -3.44,-12.23 -7.53,-5.65 -13.93,-8.47 -19.16,-8.47 -2.1,0 -5.14,1.37 -9.12,4.08 l -1.89,-0.63 v 1.26 c -2.72,0.62 -4.87,1.41 -6.44,2.35 -1.58,0.94 -3.1,1.41 -4.56,1.41 -1.68,0 -2.52,-0.83 -2.52,-2.51 0,-0.83 0.21,-1.67 0.63,-2.51 -1.26,-1.05 -2.94,-2.61 -5.04,-4.71 0,-0.62 -1.47,-3.71 -4.4,-9.25 -2.93,-5.54 -5.56,-9.25 -7.86,-11.14 -4.6,-0.2 -7.75,-3.66 -9.42,-10.35 -1.68,-6.7 -3.66,-10.99 -5.95,-12.87 l -3.15,1.26 c -7.11,-14.23 -14.23,-24.47 -21.34,-30.76 -4.38,-1.04 -6.64,-1.82 -6.74,-2.35 -0.11,-0.52 -0.31,-1.88 -0.63,-4.08 -0.31,-2.2 -2.82,-5.64 -7.53,-10.35 -4.71,-4.71 -7.48,-7.06 -8.31,-7.06 l -3.14,-0.63 -1.88,-1.88 c 0.2,-4.18 -5.33,-10.87 -16.63,-20.08 -6.08,-3.35 -9.32,-5.66 -9.73,-6.91 -1.68,-3.97 -7.85,-8.67 -18.51,-14.12 l -5.96,-5.33 c -2.72,-2.51 -5.44,-4.28 -8.16,-5.33 z m 113.24,161.28 -9.42,-1.25 c -2.3,1.68 -4.08,2.51 -5.34,2.51 -0.83,0 -1.46,-0.63 -1.87,-1.89 -2.52,-3.34 -8.06,-6.16 -16.64,-8.46 -8.58,-2.31 -14.38,-4.66 -17.42,-7.06 -3.02,-2.41 -5.59,-3.71 -7.68,-3.93 -2.09,-0.21 -3.14,-0.62 -3.14,-1.25 -2.09,-1.68 -3.66,-3.14 -4.7,-4.39 -2.1,-0.84 -4.19,-2.15 -6.28,-3.93 -2.09,-1.78 -4.29,-2.87 -6.59,-3.29 -3.77,-8.17 -6.49,-12.24 -8.16,-12.24 -0.42,0 -1.47,0.21 -3.13,0.63 h -0.63 c -2.72,-5.44 -4.81,-8.58 -6.28,-9.42 -1.46,-0.83 -2.71,-2.04 -3.76,-3.61 -1.04,-1.56 -3.08,-3.29 -6.12,-5.18 -3.03,-1.87 -5.07,-5.07 -6.12,-9.57 -1.05,-4.49 -2.36,-7.53 -3.92,-9.09 -1.58,-1.57 -2.56,-5.08 -2.98,-10.51 l -1.88,-4.4 c -0.63,-1.25 -1.52,-4.86 -2.67,-10.82 -1.15,-5.97 -1.73,-9.04 -1.73,-9.26 0,-2.93 1.25,-5.54 3.77,-7.84 0.83,1.05 2.62,1.78 5.33,2.2 l 18.51,7.53 c 0.63,0.42 2.93,2.35 6.9,5.8 3.98,3.45 7.48,5.7 10.52,6.75 3.03,1.04 5.8,2.93 8.31,5.64 1.67,2.51 3.71,4.61 6.13,6.28 2.39,1.68 3.8,3.77 4.22,6.28 4.82,4.18 9.21,8.1 13.19,11.76 3.97,3.67 6.53,6.7 7.68,9.1 1.16,2.41 2.98,4.45 5.49,6.12 l 1.26,4.08 c 0.42,0.21 1.3,0.47 2.67,0.78 1.35,0.32 3.61,3.71 6.74,10.2 l 8.47,14.12 c 5.02,5.02 9.1,11.41 12.24,19.14 l 4.39,3.76 c 0.84,0.43 1.26,1.37 1.26,2.83 z m -5.61,100.1 3.76,5.33 c 1.26,1.68 3.4,2.93 6.44,3.77 3.02,0.83 5.49,2.62 7.37,5.33 5.02,7.11 10.98,12.34 17.88,15.68 l 3.14,2.21 c 3.14,6.06 5.96,9.36 8.47,9.88 2.51,0.52 4.71,2.41 6.59,5.65 1.89,3.24 2.83,5.9 2.83,8.01 0,0.82 -0.63,1.25 -1.89,1.25 -2.93,0 -5.49,-0.84 -7.69,-2.52 -2.19,-1.68 -3.71,-2.5 -4.55,-2.5 l -6.27,0.62 c -3.76,-2.09 -9,-4.61 -15.69,-7.53 l -5.64,-4.71 c -2.51,-1.68 -4.77,-2.72 -6.75,-3.13 -1.99,-0.43 -3.51,-1.73 -4.55,-3.93 -1.05,-2.19 -2.4,-3.3 -4.08,-3.3 l -2.51,-1.25 c -0.83,-0.84 -3.24,-1.25 -7.22,-1.25 -2.09,-1.26 -4.23,-3.04 -6.43,-5.33 -2.2,-2.3 -3.5,-3.46 -3.92,-3.46 -4.82,-5.23 -8.95,-8.47 -12.39,-9.72 -3.46,-1.25 -5.71,-3.04 -6.75,-5.33 -3.98,-1.06 -7.33,-3.41 -10.04,-7.07 -2.73,-3.66 -5.18,-6.18 -7.37,-7.52 -2.2,-1.37 -4.14,-3.09 -5.82,-5.18 l -3.13,-2.52 c -1.25,-0.84 -2.98,-3.6 -5.17,-8.31 -2.2,-4.71 -3.3,-8 -3.3,-9.88 0,-1.26 0.73,-1.89 2.2,-1.89 2.08,0 6.01,1.51 11.76,4.55 5.75,3.03 9.46,5.38 11.14,7.06 1.67,1.67 2.82,2.51 3.46,2.51 l 11.91,-0.62 c 1.26,2.71 3.4,4.49 6.44,5.33 3.02,0.83 5.38,2.62 7.06,5.33 1.67,2.72 6.38,5.65 14.12,8.79 l 3.45,5.65 h 3.14"
       style="fill:#cc2271;fill-opacity:1;fill-rule:nonzero;stroke:none"
       transform="matrix(0.13333333,0,0,-0.13333333,0,1133.8533)" />
    <path
       id="path16"
       d="m 4894.35,3530.05 6.59,5.33 c 5.01,0.41 7.72,3.03 8.14,7.84 0.42,4.82 3.87,9 10.35,12.55 l 3.76,5.34 c 3.14,3.14 11.71,7.22 25.72,12.24 3.55,2.09 5.95,3.97 7.22,5.65 0.41,0.41 0.82,0.62 1.25,0.62 l 5.01,-1.25 c 2.72,0 6.22,0.72 10.5,2.19 4.29,1.46 8.42,2.21 12.39,2.21 l 13.18,0.62 c 0.83,0 2.56,-0.62 5.17,-1.89 2.61,-1.25 5.8,-1.88 9.56,-1.88 4.6,0 8.83,-2.09 12.7,-6.27 3.87,-4.19 5.8,-8.06 5.8,-11.62 0,-6.48 -3.34,-13.07 -10.02,-19.77 -6.68,-6.69 -12,-10.46 -15.97,-11.28 -3.55,-3.56 -6.27,-5.8 -8.14,-6.75 -1.88,-0.95 -3.82,-2.41 -5.8,-4.4 -1.99,-1.98 -3.61,-2.98 -4.86,-2.98 -0.84,0 -1.46,0.26 -1.87,0.79 -0.42,0.52 -1.05,0.78 -1.89,0.78 -3.34,0 -6.99,-4.08 -10.95,-12.23 l -5.64,0.63 c -3.55,-2.31 -5.85,-4.82 -6.89,-7.54 -1.05,-2.72 -3.23,-4.08 -6.57,-4.08 -7.73,-7.74 -12.95,-11.61 -15.67,-11.61 -0.42,0 -1.88,0.42 -4.38,1.25 -1.67,-2.09 -2.51,-4.27 -2.51,-6.58 0,-2.51 -1.67,-3.98 -5.01,-4.39 l -4.06,-3.77 -3.14,0.63 -6.27,-6.59 c -3.13,0 -6.37,-1.05 -9.71,-3.14 -0.41,-2.5 -1.04,-5.7 -1.88,-9.57 -0.84,-3.87 -1.25,-6.02 -1.25,-6.43 0,-6.07 5.54,-9.1 16.63,-9.1 l 15.07,2.19 c 3.97,0 7.68,1.05 11.13,3.14 3.46,2.09 7.17,3.14 11.14,3.14 1.26,0 3.15,0.41 5.66,1.25 l 3.13,-1.25 c 1.47,3.14 4.18,5.96 8.16,8.48 3.97,2.5 7.12,3.76 9.42,3.76 l 3.14,1.89 c 0.83,2.5 2.08,4.18 3.77,5.01 l 2.5,2.19 c 1.68,1.68 3.24,2.52 4.71,2.52 h 4.39 l 1.26,0.63 c 2.5,5.43 6,8.63 10.5,9.57 4.5,0.93 7.33,2.46 8.48,4.55 1.15,2.09 3.2,3.34 6.13,3.77 2.93,0.41 5.37,1.81 7.37,4.22 1.98,2.41 4.44,4.66 7.37,6.75 2.93,2.09 4.97,3.66 6.12,4.71 1.16,1.04 2.14,1.56 2.98,1.56 1.26,0 1.89,-0.93 1.89,-2.81 0,-1.89 0.41,-2.83 1.26,-2.83 0.83,0 1.25,0.42 1.25,1.26 0,0.83 -0.21,1.88 -0.63,3.13 v 2.2 c 0,3.14 1.67,5.23 5.02,6.28 l 14.12,9.1 c 0.42,4.38 1.62,6.95 3.62,7.68 1.98,0.74 3.49,1.57 4.55,2.52 1.04,0.93 2.19,1.4 3.44,1.4 2.72,0 4.09,-1.56 4.09,-4.7 l -1.58,-8.16 1.58,-8.46 c 0,-1.27 -1,-2.99 -2.99,-5.19 -2,-2.2 -3.51,-5.54 -4.55,-10.04 -1.05,-4.5 -2.41,-6.96 -4.09,-7.37 h -1.88 c -3.77,-3.98 -6.76,-6.33 -8.94,-7.06 -2.2,-0.74 -3.94,-2.04 -5.19,-3.92 l -10.68,-12.25 c -2.1,-2.08 -3.87,-3.97 -5.34,-5.64 -1.46,-1.68 -2.61,-2.51 -3.45,-2.51 l -2.51,2.51 c 0,0.41 -0.42,0.63 -1.25,0.63 -2.1,0 -3.41,-1.25 -3.93,-3.77 -0.53,-2.5 -1.63,-4.71 -3.3,-6.59 -6.28,-2.93 -10.37,-5.64 -12.25,-8.16 l -1.88,-0.63 H 5009 c -2.73,0 -4.61,-2.03 -5.66,-6.11 -1.04,-4.08 -4.03,-6.44 -8.95,-7.07 -4.92,-0.62 -8.42,-1.87 -10.51,-3.76 -0.43,-0.42 -1.37,-0.83 -2.83,-1.26 -1.47,-0.41 -4.4,-2.09 -8.79,-5.02 l -26.38,-9.41 c -2.1,-1.05 -3.46,-1.56 -4.08,-1.56 l -8.8,-1.25 c -1.26,0 -2.51,0.82 -3.77,2.5 -1.25,1.68 -2.09,2.52 -2.51,2.52 l -5.66,-1.89 c -4.17,-1.26 -8.16,-1.88 -11.93,-1.88 -2.09,0 -4.4,0.73 -6.9,2.19 -2.51,1.46 -4.5,2.51 -5.97,3.14 -6.07,0 -10.36,4.7 -12.87,14.12 l -3.77,-0.63 c -0.84,0 -3.66,7.43 -8.48,22.28 -1.26,1.67 -3.25,2.88 -5.96,3.6 -2.72,0.74 -4.09,2.78 -4.09,6.12 0,9.42 2.05,15.74 6.13,18.99 4.08,3.24 6.33,5.69 6.74,7.37 l 4.39,16.32 c 0.83,0.62 1.88,2.71 3.13,6.28 l 7.22,13.17 c 0.83,1.46 2.72,5.13 5.65,10.99 z m 66.35,18.83 -3.77,-1.9 c -0.84,-0.41 -3.29,-2.24 -7.37,-5.48 -4.07,-3.25 -8.06,-5.86 -11.92,-7.85 -3.87,-1.99 -7.84,-7.17 -11.93,-15.53 -4.07,-8.36 -6.11,-13.18 -6.11,-14.44 0,-1.25 0.63,-1.87 1.88,-1.87 l 10.67,4.71 c 3.98,1.87 7.69,4.27 11.14,7.21 3.45,2.92 8.42,6.48 14.9,10.66 l 2.51,2.52 c 0.43,0.84 2.36,2.35 5.8,4.55 3.46,2.19 6.02,4.33 7.7,6.43 l 3.14,1.26 c 3.55,5.65 7.15,9.09 10.81,10.35 3.67,1.25 5.5,2.5 5.5,3.76 0,2.51 -1.99,3.77 -5.96,3.77 -1.68,0 -4.19,-1.04 -7.53,-3.13 h -7.22 c -0.84,0 -3.14,-1.26 -6.9,-3.77 l -5.34,-1.25"
       style="fill:#cc2271;fill-opacity:1;fill-rule:nonzero;stroke:none"
       transform="matrix(0.13333333,0,0,-0.13333333,0,1133.8533)" />
    <path
       id="path17"
       d="m 5090.11,3476.71 v 2.19 c 0,2.93 0.2,5.23 0.63,6.9 -1.26,3.35 -1.88,6.38 -1.88,9.1 0,0.42 1.04,3.35 3.13,8.78 l 2.82,9.73 c 1.47,3.77 2.31,5.76 2.51,5.97 -1.25,3.35 -1.87,5.22 -1.87,5.65 0,4.81 1.36,8.78 4.07,11.92 2.71,3.14 5.02,7.53 6.91,13.18 l 6.27,19.14 10.34,25.1 c 0.2,0.62 1.2,2.3 2.98,5.02 1.77,2.71 3.24,5.07 4.39,7.07 1.14,1.97 2.77,4.86 4.86,8.62 l 3.14,0.62 c 0.83,0.84 1.25,1.68 1.25,2.51 0,0.42 -0.42,2.09 -1.25,5.02 l 10.98,18.21 6.59,13.49 c 2.09,3.56 4.39,5.85 6.9,6.9 4.18,7.73 7.84,12.44 10.99,14.12 1.25,3.97 3.55,8.26 6.9,12.87 l 5.96,0.63 c 1.04,2.93 2.09,5.11 3.13,6.58 l 0.64,6.27 c 0,-1.25 0.52,-0.88 1.56,1.11 1.05,1.98 2.62,5.69 4.71,11.13 l 8.48,9.73 2.5,4.39 c 1.05,1.47 2.72,4.29 5.02,8.48 3.14,1.25 5.75,3.56 7.85,6.9 l 6.59,5.33 c -0.42,2.3 2.09,7.43 7.52,15.38 3.56,1.45 6.81,3.35 9.73,5.65 l 4.4,1.25 c 0,7.33 2.6,12.35 7.84,15.06 l 3.77,2.52 c 3.34,1.66 5.22,2.5 5.64,2.5 l 2.2,0.63 c 2.51,0.84 5.44,1.25 8.79,1.25 7.74,0 14.75,-2.88 21.02,-8.62 6.27,-5.76 9.41,-12.29 9.41,-19.61 0,-2.94 -1.56,-5.97 -4.71,-9.1 l -1.25,-2.52 c -2.93,-11.5 -5.02,-17.24 -6.28,-17.24 -0.84,0 -1.99,-0.64 -3.44,-1.9 -0.42,-6.89 -0.84,-10.77 -1.26,-11.6 -3.76,-0.63 -5.65,-5.33 -5.65,-14.12 -0.42,-1.25 -1.93,-3.4 -4.55,-6.44 -2.62,-3.03 -4.66,-7.21 -6.12,-12.55 -1.47,-5.33 -3.03,-8 -4.71,-8 h -3.45 l 0.94,-4.71 c 0,-2.93 -1.41,-5.8 -4.23,-8.63 -2.83,-2.82 -4.55,-5.8 -5.18,-8.93 -0.63,-3.14 -3.14,-6.91 -7.53,-11.31 l -3.14,-5.02 c -1.25,-2.09 -2.93,-4.27 -5.02,-6.58 -2.09,-2.3 -3.87,-5.86 -5.33,-10.66 l -8.16,-15.07 c -5.65,-10.25 -9.94,-15.17 -12.86,-14.75 -1.89,-8.15 -3.14,-12.86 -3.77,-14.12 -0.63,-1.26 -2.1,-2.41 -4.39,-3.45 -2.3,-1.05 -4.08,-2.88 -5.34,-5.48 -1.25,-2.62 -2.62,-4.56 -4.07,-5.82 l -5.65,-11.61 c -3.36,-1.46 -5.76,-4.18 -7.22,-8.15 -3.35,-0.84 -5.44,-3.66 -6.27,-8.47 -0.84,-0.84 -1.89,-2.73 -3.15,-5.65 l -10.97,-10.99 c -5.65,-3.96 -8.68,-8.51 -9.11,-13.65 -0.41,-5.12 -3.13,-7.68 -8.15,-7.68 -3.56,0 -8.79,1.57 -15.69,4.71 h -0.63 c -0.62,-2.93 -2.09,-6.17 -4.39,-9.73 l 1.26,-8.47 c 0,-1.06 -1.68,-7.64 -5.02,-19.77 1.67,-3.14 2.51,-5.33 2.51,-6.59 l -0.64,-6.9 1.57,-8.48 c 1.05,-6.9 3.56,-10.35 7.54,-10.35 l 7.52,-1.25 c 0.41,0 3.03,1.56 7.84,4.7 l 11.6,6.27 c 0.41,0 0.63,-0.21 0.63,-0.62 2.08,-0.84 3.76,-1.25 5.01,-1.25 2.09,0 3.14,1.66 3.14,5.02 v 4.08 c 1.26,2.08 2.77,3.34 4.55,3.76 1.78,0.42 3.4,1.36 4.86,2.82 1.46,1.47 2.61,2.2 3.45,2.2 h 3.13 c 3.14,0 4.71,3.66 4.71,10.99 0.83,0.41 1.88,1.25 3.13,2.5 h 3.77 c 1.66,0 3.49,2.05 5.48,6.12 1.98,4.08 3.4,6.53 4.23,7.37 3.77,0.42 6.38,1.05 7.84,1.89 6.69,12.12 11.82,18.19 15.38,18.19 h 1.87 c 3.55,3.35 5.48,6.33 5.8,8.95 0.31,2.61 1.36,4.33 3.13,5.17 1.78,0.84 3.4,1.88 4.87,3.15 1.46,1.25 2.4,1.87 2.82,1.87 3.13,0 4.7,-1.15 4.7,-3.45 l -0.94,-8.78 2.19,-9.41 c 0,-0.84 -0.88,-2.46 -2.66,-4.86 -1.78,-2.42 -2.66,-5.08 -2.66,-8.01 0,-6.07 -1.05,-9.31 -3.14,-9.73 -2.09,-0.42 -3.81,-1.83 -5.16,-4.24 -1.38,-2.4 -3.62,-4.6 -6.75,-6.58 -3.14,-1.99 -5.54,-4.86 -7.21,-8.63 l -5.33,-1.25 -3.14,-1.89 c -2.51,-6.49 -5.17,-10.45 -8,-11.92 -2.83,-1.46 -6.32,-5.86 -10.5,-13.18 -0.63,0 -0.94,-0.22 -0.94,-0.63 l -5.02,0.63 c -1.88,-3.34 -3.76,-5.33 -5.65,-5.96 -1.88,-0.62 -3.44,-1.84 -4.7,-3.61 -1.25,-1.78 -3.5,-3.3 -6.74,-4.55 -3.24,-1.25 -5.28,-2.72 -6.11,-4.4 -0.84,-1.67 -2.09,-2.62 -3.77,-2.81 -1.67,-0.22 -3.23,-1 -4.7,-2.36 -1.46,-1.36 -2.71,-2.03 -3.76,-2.03 -0.42,0 -1.88,0.19 -4.4,0.62 h -1.25 c -3.55,-2.51 -6.48,-3.77 -8.77,-3.77 -2.73,0 -4.71,-0.42 -5.96,-1.25 -1.26,0.83 -3.2,1.47 -5.81,1.88 -2.61,0.41 -5.59,1.46 -8.94,3.14 -3.55,-0.84 -5.75,-1.25 -6.58,-1.25 -3.56,0 -8.05,3.5 -13.49,10.51 -5.43,7 -8.14,13.85 -8.14,20.54 0,0.22 -1.21,1.84 -3.61,4.87 -2.41,3.03 -3.61,6.33 -3.61,9.88 v 3.15 l 0.63,3.75 v 5.97 l 0.62,1.88 c 3.14,0.41 4.71,0.84 4.71,1.25 z m 63.67,83.15 6.59,3.77 c 0.83,3.33 3.56,7.36 8.15,12.07 4.61,4.7 7.86,7.07 9.73,7.07 h 2.52 c 0,1.45 0.32,2.91 0.94,4.39 0.63,1.45 0.93,3.44 0.93,5.96 0,1.25 2.83,4.7 8.49,10.35 l 2.5,5.64 c 1.89,5.44 6.6,9.94 14.12,13.5 2.93,6.06 5.12,9.1 6.59,9.1 l 2.52,0.63 c 0.83,3.14 2.51,5.95 5.02,8.47 l 1.25,1.88 v 5.02 c 0,0.42 1.41,2.15 4.23,5.17 2.83,3.04 4.87,5.86 6.12,8.48 1.25,2.62 2.98,4.65 5.18,6.11 2.2,1.47 3.72,4.08 4.54,7.85 l 5.03,0.63 c 0,2.71 0.21,4.49 0.63,5.33 l 0.62,3.15 c 1.05,2.5 4.71,9.1 10.99,19.76 l 5.02,11.61 c 0,1.26 0.89,2.77 2.67,4.54 1.77,1.78 2.66,4.35 2.66,7.7 l 2.51,10.35 c 0,4.81 -0.84,7.22 -2.51,7.22 -2.09,-1.47 -4.03,-2.51 -5.8,-3.14 -1.79,-0.62 -3.5,-4.39 -5.18,-11.3 -6.28,-1.46 -9.89,-4.44 -10.82,-8.93 -0.94,-4.51 -3.51,-8.32 -7.69,-11.47 l -2.2,-3.76 c -0.42,-2.3 -2.41,-4.71 -5.97,-7.21 -3.55,-2.51 -6.9,-6.8 -10.03,-12.87 -10.46,-14.43 -16.22,-22.17 -17.26,-23.22 l -3.14,-3.76 -4.7,0.63 c 0.83,-3.35 1.25,-5.24 1.25,-5.65 0,-1.26 -0.63,-2.46 -1.89,-3.61 -1.25,-1.15 -2.18,-2.56 -2.82,-4.24 -0.62,-1.68 -1.88,-3.61 -3.76,-5.8 -1.88,-2.2 -3.61,-5.76 -5.17,-10.66 -1.58,-4.92 -3,-7.81 -4.25,-8.64 l -4.39,0.63 c -2.72,-1.68 -4.08,-3.35 -4.08,-5.02 l 0.95,-4.39 c 0,-0.84 -0.59,-1.84 -1.73,-2.99 -1.16,-1.15 -2.25,-3.4 -3.29,-6.74 -1.06,-3.35 -3.66,-8.42 -7.85,-15.22 -4.18,-6.79 -7.48,-14.02 -9.89,-21.66 -2.4,-7.63 -4.75,-12.5 -7.06,-14.59 0.42,-0.41 1.05,-0.62 1.89,-0.62 2.71,0 5.33,2.83 7.84,8.48"
       style="fill:#cc2271;fill-opacity:1;fill-rule:nonzero;stroke:none"
       transform="matrix(0.13333333,0,0,-0.13333333,0,1133.8533)" />
    <path
       id="path18"
       d="m 5481.05,3572.09 3.76,3.76 v 2.52 c 0,0.83 1.05,3.4 3.15,7.68 2.09,4.29 4.02,7.16 5.81,8.63 1.78,1.46 3.09,3.18 3.93,5.18 0.84,1.99 2.72,3.19 5.65,3.61 -1.26,2.09 -1.89,3.77 -1.89,5.02 l -1.25,5.96 c 0,0.43 0.62,1.25 1.88,2.51 l 1.89,2.5 c 1.04,0.84 2.4,1.9 4.08,3.15 1.67,1.25 2.62,2.99 2.83,5.18 0.2,2.19 1.72,5.23 4.55,9.1 2.82,3.86 4.97,5.8 6.45,5.8 1.45,0 2.71,0.42 3.75,1.26 1.06,0.83 2,1.26 2.84,1.26 1.25,0 2.35,-0.95 3.3,-2.83 0.93,-1.88 1.62,-2.83 2.04,-2.83 1.67,0 2.51,1.05 2.51,3.14 0,1.05 -1,1.83 -2.99,2.36 -1.98,0.51 -3.29,1.61 -3.93,3.28 -0.62,1.68 -1.25,3.09 -1.87,4.24 -0.63,1.15 -0.95,1.93 -0.95,2.36 0,1.66 1,3.56 2.98,5.65 1.99,2.09 3.83,3.13 5.51,3.13 1.67,0 3.35,0.95 5.02,2.83 -2.51,1.25 -3.77,2.71 -3.77,4.39 2.51,2.51 4.97,6.22 7.38,11.14 2.4,4.91 5.08,7.38 8.01,7.38 0.42,0 1.46,-0.43 3.14,-1.25 0.43,0.82 1.58,3.65 3.46,8.46 l -2.21,6.28 c 3.99,5.65 6.81,8.89 8.49,9.73 l 2.52,1.87 c 1.25,5.86 6.17,10.77 14.76,14.75 11.09,11.72 17.8,17.58 20.1,17.58 0.41,0 1.25,-0.74 2.51,-2.2 l 3.14,0.94 c 1.26,0 1.89,-0.73 1.89,-2.2 -6.71,-6.27 -10.06,-9.62 -10.06,-10.04 h 0.33 c 0.62,0.42 1.4,1.04 2.35,1.88 0.94,0.84 2.56,2.3 4.86,4.39 0,-0.83 0.42,-1.25 1.26,-1.25 2.31,2.93 3.46,5.96 3.46,9.1 0,0.41 -1.15,1.25 -3.46,2.51 l -0.63,1.89 c 0,1.25 3.72,5.11 11.15,11.6 7.43,6.48 15.55,12.24 24.35,17.26 l 3.08,3.77 c 0.83,1.04 1.97,1.57 3.4,1.57 1.65,0 4.12,-1.16 7.41,-3.46 l 1.23,0.63 c -0.41,0.83 -0.61,2.4 -0.61,4.71 0,1.26 0.83,2.08 2.47,2.51 2.06,3.13 6.51,5.86 13.37,8.15 6.87,2.3 11.56,4.51 14.07,6.6 l 6.59,2.5 c 3.34,0.43 6.22,1.05 8.63,1.89 2.4,0.83 5.28,1.25 8.62,1.25 0.63,0 2.3,0.68 5.03,2.04 2.71,1.36 4.71,2.04 5.96,2.04 1.25,0 3.56,-1.36 6.9,-4.08 0,-0.42 0.42,-0.62 1.26,-0.62 l 4.08,2.82 h 0.63 c 2.93,-2.73 6.06,-5.34 9.41,-7.84 8.79,-6.49 13.17,-14.34 13.17,-23.54 l -1.56,-13.18 0.62,-10.98 c 0,-3.55 -1.68,-6.7 -5.01,-9.41 -1.47,-9.42 -3.36,-16.16 -5.65,-20.24 -2.3,-4.08 -4.14,-9.68 -5.5,-16.79 -1.35,-7.11 -7.48,-17.05 -18.35,-29.81 0,-0.41 -1.31,-2.24 -3.92,-5.49 -2.62,-3.24 -5.8,-8.94 -9.57,-17.1 -5.86,-6.28 -9.57,-11.24 -11.14,-14.9 -1.57,-3.66 -4.56,-6.43 -8.94,-8.31 h -1.26 l 1.26,-6.91 c -7.96,-12.97 -15.77,-19.46 -23.45,-19.46 -4.73,0 -9.42,2.15 -14.05,6.44 -4.63,4.29 -6.94,8.62 -6.94,13.02 0,10.25 11.88,22.69 35.65,37.34 0.42,0 1.25,-0.21 2.51,-0.62 l 2.51,4.39 c -0.84,1.67 -1.25,2.71 -1.25,3.13 0,2.92 3.23,6.38 9.73,10.35 2.92,6.07 6.06,9.31 9.41,9.74 l 12.24,19.13 1.25,3.14 v 4.71 c 0,0.83 2.19,2.71 6.59,5.65 l 0.62,1.26 v 6.58 c 0,2.51 1.67,4.6 5.02,6.27 0.84,1.06 1.73,4.45 2.67,10.2 0.95,5.76 2.66,10.93 5.18,15.54 -0.84,9.83 -2.04,15.84 -3.61,18.04 -1.57,2.2 -4.03,3.29 -7.37,3.29 -2.93,0 -7.84,-1.83 -14.75,-5.49 -6.9,-3.66 -11.4,-5.49 -13.5,-5.49 -0.83,0 -1.67,0.32 -2.5,0.94 -0.84,0.63 -1.68,0.94 -2.51,0.94 -1.05,0 -2.09,-1.09 -3.14,-3.29 -1.05,-2.2 -2.3,-3.51 -3.77,-3.92 -1.46,-0.43 -3.29,-1.57 -5.49,-3.45 -2.19,-1.88 -5.17,-3.67 -8.94,-5.34 l -5.01,-6.59 -5.33,-3.76 c -0.63,-4.39 -3.35,-6.59 -8.15,-6.59 -1.05,0 -2.83,-2.51 -5.33,-7.53 l -2.51,-2.52 h -5.02 l -0.62,-2.81 v -3.15 c 0,-1.25 -0.74,-2.3 -2.2,-3.13 l -11.91,-12.86 -2.2,-1.26 h -2.5 l -1.25,-0.64 c -0.63,-7.52 -2.73,-11.39 -6.27,-11.6 0,-2.72 -3.03,-6.38 -9.1,-10.97 l -2.5,-3.15 h -4.08 l -0.62,-0.62 c 1.45,-1.27 2.2,-2.09 2.2,-2.52 0,-1.25 -1.22,-3.61 -3.62,-7.05 -2.4,-3.46 -4.22,-4.98 -5.47,-4.56 -0.84,-5.85 -2.83,-10.97 -5.96,-15.37 l -2.51,-4.7 c -1.25,-2.1 -2.51,-3.77 -3.76,-5.02 v -2.52 c 0,-5.44 -5.12,-10.35 -15.36,-14.75 l 1.88,-7.84 c -0.84,-1.67 -2.51,-4.19 -5.02,-7.53 l -2.82,-5.96 c -1.25,-3.77 -2.72,-6.07 -4.38,-6.91 -0.63,-1.88 -1.62,-3.56 -2.98,-5.02 -1.36,-1.47 -2.04,-2.62 -2.04,-3.45 l 0.63,-4.39 c -3.15,-5.65 -5.02,-9.68 -5.65,-12.08 -0.62,-2.4 -1.67,-4.66 -3.13,-6.74 -1.46,-2.1 -2.62,-4.45 -3.45,-7.07 -0.84,-2.62 -2.83,-5.39 -5.95,-8.31 -2.51,-9 -3.76,-13.92 -3.76,-14.75 l -4.4,-3.77 c 0,-0.42 -0.63,-1.98 -1.88,-4.69 l -0.63,-2.52 v -4.4 c 0,-2.71 -2.62,-5.96 -7.84,-9.72 2.51,-0.84 3.77,-2.5 3.77,-5.02 0,-4.81 -0.95,-8.47 -2.83,-10.98 -1.88,-2.52 -3.24,-5.08 -4.07,-7.7 -0.84,-2.61 -2.41,-6.01 -4.71,-10.19 2.3,-1.47 3.44,-3.24 3.44,-5.33 l -2.82,-21.02 2.2,-5.97 c -0.42,-0.42 -1.77,-1.04 -4.08,-1.88 0.42,-2.51 1.67,-4.66 3.77,-6.43 2.09,-1.79 5.33,-6.96 9.72,-15.54 0.83,-0.84 2.61,-1.25 5.33,-1.25 2.52,0 4.4,0.21 5.65,0.62 1.26,0.43 4.03,0.9 8.32,1.42 4.29,0.52 8.84,2.46 13.66,5.81 h 5.02 c 5.01,0 8.52,1.82 10.51,5.49 1.99,3.65 4.02,5.48 6.11,5.48 1.89,0 4.93,0.84 9.11,2.52 h 1.89 c 0.83,1.66 1.67,2.82 2.51,3.44 0.83,0.63 2.56,2.57 5.18,5.81 2.6,3.24 4.96,4.86 7.06,4.86 7.32,4.82 12.97,9.11 16.94,12.87 0.42,0.41 1.57,0.74 3.46,0.94 1.87,0.21 3.33,1.26 4.38,3.14 1.04,1.88 5.75,6.28 14.12,13.18 8.37,6.9 13.39,12.39 15.07,16.47 1.68,4.08 3.66,6.12 5.97,6.12 0.83,0 2.3,-0.2 4.39,-0.63 h 0.63 c 0.84,0 1.46,0.94 1.88,2.83 0.42,1.88 4.71,5.22 12.88,10.04 0.2,4.18 3.44,7.85 9.72,10.97 l 10.98,10.68 5.03,-0.63 c 1.26,0.83 1.98,2.72 2.19,5.64 0.21,2.93 1.89,4.92 5.02,5.97 h 2.51 l 1.89,1.25 c 1.45,6.91 3.87,10.36 7.21,10.36 h 2.51 c 1.69,0 2.51,1.99 2.51,5.96 0,3.76 4.51,6.69 13.5,8.78 l 6.28,3.15 c 0.42,0.62 1.36,0.93 2.82,0.93 5.44,0 8.16,-4.29 8.16,-12.86 0,-2.3 -0.83,-4.07 -2.5,-5.33 l -4.4,-3.77 -0.62,-5.33 -11.3,-10.36 c -1.88,-1.47 -2.93,-3.4 -3.14,-5.8 -0.2,-2.41 -0.84,-3.61 -1.88,-3.61 -0.63,-1.04 -1.94,-1.94 -3.92,-2.66 -1.99,-0.75 -3.3,-1.84 -3.93,-3.3 -2.92,-6.9 -7.52,-11.1 -13.79,-12.55 -3.57,-8.16 -6.91,-13.02 -10.04,-14.59 -3.15,-1.58 -4.92,-3.2 -5.33,-4.87 -0.84,-5.44 -3.67,-7.96 -8.48,-7.53 -7.74,-7.53 -12.65,-13.39 -14.74,-17.57 0,-0.41 -0.21,-0.63 -0.62,-0.63 l -4.39,0.63 c -0.43,-0.41 -1.53,-1.68 -3.31,-3.77 -1.77,-2.09 -4.18,-3.25 -7.21,-3.44 -3.03,-0.22 -5.17,-2.05 -6.43,-5.49 -1.25,-3.46 -2.4,-5.6 -3.45,-6.44 -1.05,-0.84 -2.19,-2.25 -3.46,-4.23 -1.25,-2 -2.5,-2.98 -3.75,-2.98 -1.89,0 -3.25,1.78 -4.08,5.33 -1.67,-0.84 -3.35,-2.4 -5.03,-4.71 l 1.89,-4.39 c 0,-0.84 -0.42,-1.56 -1.25,-2.2 -0.84,-0.62 -2.35,-2.66 -4.55,-6.12 -2.2,-3.45 -7.37,-5.8 -15.53,-7.05 -0.42,0 -1.26,-1.42 -2.51,-4.24 -1.26,-2.83 -4.19,-4.45 -8.79,-4.86 -4.39,-6.49 -8.05,-9.73 -10.97,-9.73 l -13.5,-4.39 c -2.29,0 -4.29,0.2 -5.96,0.62 -1.25,-2.93 -2.71,-4.39 -4.38,-4.39 l -4.4,-1.25 c -1.46,-2.09 -3.25,-3.15 -5.33,-3.15 -2.94,0 -4.4,0.84 -4.4,2.52 0,0.41 0.21,1.04 0.63,1.88 v 1.25 c 0,1.27 -0.42,1.89 -1.25,1.89 0,-9 -2.41,-13.5 -7.22,-13.5 -0.84,0 -3.13,0.84 -6.9,2.51 h -0.62 l -5.97,-3.13 c -0.42,-0.43 -1.25,-0.63 -2.5,-0.63 -7.74,0 -15.48,2.41 -23.21,7.21 h -3.15 c -6.48,0 -11.4,3.77 -14.74,11.31 l -0.63,1.25 c -5.02,1.25 -7.84,4.49 -8.47,9.73 -0.84,1.25 -2.93,3.45 -6.27,6.58 -0.43,2.93 -1.36,5.6 -2.83,8.01 -1.46,2.4 -2.19,3.81 -2.19,4.23 l -7.22,23.54 c -0.84,6.89 -1.25,12.54 -1.25,16.93 l -0.63,2.52 v 1.88 l 1.25,8.47 -0.62,3.14 c 0,1.67 1.93,7.84 5.8,18.51 3.87,10.68 6.33,18.62 7.37,23.85 1.05,5.23 2,8.47 2.82,9.73 l 9.12,24.47"
       style="fill:#cc2271;fill-opacity:1;fill-rule:nonzero;stroke:none"
       transform="matrix(0.13333333,0,0,-0.13333333,0,1133.8533)" />
    <path
       id="path19"
       d="m 5763.14,3529.43 4.41,-1.9 c 0.42,3.56 2.42,6.59 6,9.1 h 2.51 c 2.1,0 4.83,2.83 8.2,8.48 l 5.35,3.13 c 0.84,-0.42 2.1,-0.62 3.79,-0.62 1.26,0 2.46,0.83 3.62,2.51 1.16,1.67 4.04,4.91 8.67,9.73 h 1.26 c 1.26,0 2.78,0.93 4.57,2.82 1.78,1.88 4.14,2.82 7.09,2.82 l 10.72,2.83 c 3.35,0.83 5.23,1.25 5.65,1.25 1.89,0.63 6.48,-3.19 13.81,-11.45 7.32,-8.27 10.98,-16.26 10.98,-24.01 0,-4.38 -2.31,-7 -6.91,-7.84 l -1.56,-1.25 v -6.28 l -5.34,-11.61 c -1.47,-3.14 -3.25,-5.13 -5.33,-5.96 -1.89,-3.36 -3.25,-5.65 -4.08,-6.91 l -4.39,-0.63 -1.89,-1.87 v -7.85 c -1.88,-2.5 -4.61,-8 -8.16,-16.47 -3.56,-8.47 -5.33,-13.86 -5.33,-16.16 0,-3.97 0.84,-5.97 2.51,-5.97 1.26,0 2.51,0.53 3.77,1.57 1.25,1.05 2.98,2.25 5.17,3.61 2.2,1.37 3.82,2.77 4.87,4.24 1.03,1.46 3.23,2.77 6.58,3.92 3.34,1.16 6.47,3.29 9.4,6.43 2.93,3.14 5.02,5.23 6.27,6.28 1.26,1.04 2.62,2.45 4.08,4.24 1.47,1.77 2.41,2.66 2.83,2.66 1.25,0 3.24,0.41 5.95,1.25 0.42,2.31 0.83,3.98 1.25,5.02 l 7.53,3.77 18.19,16.32 2.51,3.14 c 3.33,0.84 5.44,1.46 6.27,1.88 1.67,5.65 4.49,9.73 8.46,12.24 0,0.84 1.05,1.46 3.14,1.88 1.67,3.35 3.81,6.01 6.42,8 2.62,1.99 4.76,4.44 6.44,7.38 l 7.21,5.96 c 2.08,0.83 3.55,2.09 4.39,3.77 10.87,9.61 17.61,15.1 20.21,16.46 2.62,1.37 6.86,2.04 12.71,2.04 5.85,0 10.61,-2.25 14.27,-6.74 3.65,-4.5 7.63,-7.89 11.92,-10.2 4.28,-2.3 6.43,-6.7 6.43,-13.18 0,-6.07 -4.71,-17.68 -14.12,-34.83 -6.07,-17.98 -9.21,-29.02 -9.42,-33.1 -0.2,-4.08 -1.14,-6.43 -2.82,-7.05 -1.67,-0.64 -2.51,-1.37 -2.51,-2.21 v -1.25 c 0,-5.02 0.84,-7.53 2.51,-7.53 1.26,0 2.99,1.05 5.18,3.14 2.19,2.09 6.64,4.39 13.32,6.9 l 2.81,-0.63 c 6.04,9.2 10.11,14.18 12.2,14.91 2.08,0.73 4.16,2.6 6.25,5.65 2.08,3.03 4.63,4.65 7.66,4.87 3.02,0.19 4.95,0.72 5.78,1.56 0.21,5.02 4.32,10.66 12.35,16.94 8.02,6.28 12.66,9.41 13.91,9.41 2.09,0 3.75,-1.57 5,-4.7 1.25,-3.14 2.56,-5.29 3.92,-6.44 1.35,-1.15 2.03,-2.15 2.03,-2.98 v -5.65 c 0,-2.72 -1.36,-4.49 -4.07,-5.33 -2.09,-4.6 -3.97,-7.33 -5.64,-8.16 l -5.63,0.64 c -1.05,-1.26 -1.93,-2.42 -2.67,-3.46 -0.73,-1.05 -1.2,-1.46 -1.4,-1.25 -1.68,-0.43 -4.65,-3.2 -8.93,-8.32 -4.28,-5.13 -8.09,-9.37 -11.43,-12.71 l -1.25,-1.88 c -1.66,-1.25 -3.23,-2.09 -4.7,-2.51 l -5.63,-4.71 c -2.09,1.26 -3.34,1.89 -3.76,1.89 -0.42,0 -1.31,-0.84 -2.66,-2.52 -1.36,-1.67 -4.07,-3.81 -8.14,-6.43 -4.07,-2.61 -7.15,-5.6 -9.24,-8.94 l -5.01,-5.02 -6.57,-0.94 c -0.62,0 -1.67,-0.94 -3.13,-2.83 l -5.64,-7.21 c -2.72,-3.56 -6.99,-5.33 -12.84,-5.33 -1.25,0 -2.87,1.09 -4.85,3.28 -1.98,2.21 -3.86,4.08 -5.63,5.65 -1.77,1.58 -5.75,6.28 -11.91,14.12 -6.17,7.85 -9.25,11.98 -9.25,12.4 l 1.87,10.98 -0.62,7.53 c 0,1.47 1,3.72 2.98,6.74 1.99,3.04 2.99,4.66 2.99,4.87 l -0.64,12.24 c 0.42,0.41 0.84,1.04 1.26,1.88 l 4.4,7.22 c -0.42,2.09 -0.63,4.4 -0.63,6.9 l 1.25,10.35 c -3.77,-1.67 -7.06,-5.07 -9.89,-10.2 -2.83,-5.11 -6.54,-7.68 -11.14,-7.68 -3.98,-7.12 -7.02,-10.56 -9.1,-10.35 -0.84,-0.84 -1.47,-1.68 -1.88,-2.51 l -4.39,-2.51 -5.34,0.62 -1.89,-7.84 c -4.6,-2.51 -7.58,-4.76 -8.94,-6.75 -1.37,-1.99 -3.5,-4.03 -6.44,-6.12 l -5.34,-5.02 h -5.01 c -0.84,-5.64 -4.09,-10.35 -9.73,-14.12 l -2.51,-3.14 -5.66,0.64 c -2.09,-6.7 -4.7,-10.78 -7.84,-12.25 -3.56,0 -8.43,-3.24 -14.6,-9.72 -6.17,-6.49 -10.5,-9.73 -13.02,-9.73 -18.21,0 -32.95,11.41 -44.25,34.2 -0.42,0.84 -1.41,2.4 -2.98,4.71 -1.57,2.3 -2.35,5.86 -2.35,10.67 0,8.15 1.09,13.7 3.29,16.63 2.2,2.93 5.02,8.42 8.47,16.47 3.45,8.05 6.01,11.56 7.69,10.51 0.42,0.83 0.63,2.09 0.63,3.76 3.34,3.98 5.02,7.02 5.02,9.11 0,0.84 -0.43,1.25 -1.25,1.25 -0.43,0 -1.68,-0.63 -3.77,-1.88 l -4.42,-1.87 c -1.89,-0.43 -3.25,-1.27 -4.09,-2.52 -0.85,-1.25 -2.32,-2.47 -4.42,-3.61 -2.11,-1.15 -3.79,-2.15 -5.04,-2.98 h -0.95 c -1.26,1.25 -2.1,1.88 -2.52,1.88 -1.27,-3.34 -2.31,-5.44 -3.15,-6.27 l -3.79,-0.63 c -4.62,-4.82 -7.57,-7.22 -8.83,-7.22 -0.84,0 -2.74,0.74 -5.68,2.2 -2.94,1.46 -4.41,2.92 -4.41,4.39 l 2.21,12.24 v 5.64 c 0,0.43 0.84,1.26 2.52,2.52 0.42,0 2.1,2.25 5.05,6.74 2.93,4.5 6.4,6.76 10.39,6.76"
       style="fill:#cc2271;fill-opacity:1;fill-rule:nonzero;stroke:none"
       transform="matrix(0.13333333,0,0,-0.13333333,0,1133.8533)" />
    <path
       id="path20"
       d="m 6145.07,3685.68 4.39,1.25 3.14,3.14 h 0.62 l 2.83,-1.25 h 0.63 c 5.02,0 9.47,0.98 13.38,2.98 3.9,1.98 7.17,3.39 9.82,4.23 2.63,0.84 4.27,1.46 4.91,1.89 0.63,0.41 1.16,0.63 1.58,0.63 l 5.08,-0.63 c 1.67,0 3.91,2.97 6.73,8.94 2.83,5.96 6.01,10.3 9.57,13.02 3.55,2.71 7.11,7.85 10.66,15.37 0.83,1.05 1.78,2.67 2.82,4.87 1.04,2.2 1.89,3.29 2.51,3.29 3.14,0 5.65,1.99 7.53,5.96 6.26,7.32 11.39,10.99 15.36,10.99 5.23,0 8.88,-5.03 10.98,-15.07 l 3.13,-11.92 c 0,-0.21 -0.53,-1.72 -1.57,-4.55 -1.04,-2.82 -1.51,-5.64 -1.4,-8.48 0.09,-2.81 0,-4.7 -0.32,-5.64 -0.31,-0.94 -0.47,-2.03 -0.47,-3.29 0,-1.67 1.77,-2.51 5.33,-2.51 1.25,0 3.56,0.84 6.91,2.51 l 1.87,0.62 c 2.09,-1.26 3.88,-1.88 5.35,-1.88 0.41,0 3.4,1.05 8.93,3.14 5.55,2.09 9.06,3.25 10.52,3.45 1.45,0.21 3.97,1.05 7.53,2.51 h 3.76 l 2.51,-0.94 c 0.84,0 2.57,0.88 5.19,2.67 2.6,1.77 7.57,2.87 14.89,3.29 l 4.4,1.88 h 1.25 c 6.9,0 10.35,-3.03 10.35,-9.09 0,-1.26 -0.98,-3.45 -2.98,-6.6 -1.99,-3.12 -3.6,-6.69 -4.86,-10.66 l -14.43,-18.21 c -4.82,-6.27 -9.62,-9.41 -14.44,-9.41 -0.84,0 -3.44,2.83 -7.84,8.48 0,0.41 -0.42,0.62 -1.26,0.62 -2.09,0 -4.28,-0.41 -6.58,-1.25 -2.31,-0.84 -4.19,-1.25 -5.65,-1.25 -0.63,0 -6.18,-1.58 -16.64,-4.71 l -7.53,-1.26 c -0.83,0 -2.82,-0.42 -5.95,-1.26 l -16.02,-3.13 c -5.45,-2.72 -9.73,-7.84 -12.88,-15.38 0,-0.41 -1.04,-1.36 -3.13,-2.81 l -14.13,-25.74 c -4.62,-1.26 -7.66,-3.97 -9.13,-8.15 l -1.26,-1.89 c -2.3,-0.41 -4.4,-1.72 -6.27,-3.92 -1.9,-2.2 -3.68,-3.92 -5.36,-5.18 l -5.65,-8.46 c -2.3,-2.94 -4.61,-6.13 -6.91,-9.57 -2.31,-3.46 -3.99,-7.12 -5.03,-10.99 -1.06,-3.88 -1.9,-6.12 -2.52,-6.75 -0.63,-0.62 -0.94,-1.78 -0.94,-3.45 l -0.95,-2.5 c -2.52,-2.52 -3.77,-5.34 -3.77,-8.48 l 1.26,-5.02 c -2.94,-10.04 -4.4,-15.37 -4.4,-16.01 0,-0.42 0.2,-1.57 0.62,-3.44 v -1.89 c 0,-4.6 -1.67,-10.36 -5.03,-17.25 l 0.64,-5.02 -1.89,-14.13 c 0,-1.88 0.63,-5.33 1.89,-10.35 -0.84,-0.84 -1.26,-1.46 -1.26,-1.88 0,-5.86 3.08,-12.3 9.27,-19.3 6.18,-7.01 9.28,-17.94 9.28,-32.79 0,-1.26 -0.33,-3.09 -0.95,-5.49 -0.63,-2.41 -1.05,-5.02 -1.25,-7.84 -0.22,-2.83 -1.84,-5.61 -4.88,-8.32 -3.04,-2.72 -5.6,-4.08 -7.7,-4.08 -11.1,0 -19.38,8.05 -24.83,24.16 -5.45,16.11 -8.18,26.46 -8.18,31.07 l 0.64,12.23 -1.89,6.27 1.89,27.61 -1.26,6.61 7.22,26.97 v 9.72 c 0,0.43 1.48,2.09 4.41,5.02 0,0.43 -0.42,0.64 -1.26,0.64 -1.27,0 -2.93,-1.26 -5.03,-3.76 -2.1,-2.52 -4.72,-4.92 -7.86,-7.23 l -2.51,-4.39 c -0.42,0.42 -1.26,0.84 -2.52,1.26 -1.05,-0.42 -4.51,-5.34 -10.37,-14.75 -4.41,-0.63 -7.87,-3.13 -10.37,-7.53 -2.53,-4.39 -5.98,-6.59 -10.38,-6.59 l -1.26,-0.63 c -0.84,-6.06 -3.77,-9.1 -8.79,-9.1 l -1.27,-0.62 c -3.14,-7.12 -6.38,-10.57 -9.74,-10.36 -2.1,-6.27 -7.23,-10.57 -15.4,-12.87 -1.26,-2.5 -3.1,-4.38 -5.51,-5.64 -2.4,-1.26 -4.13,-2.41 -5.19,-3.45 -1.04,-1.05 -1.98,-1.58 -2.82,-1.58 -2.72,0 -4.09,2.93 -4.09,8.79 0,1.68 0.68,3.51 2.04,5.49 1.37,1.99 2.05,3.4 2.05,4.24 0,0.42 -1.04,1.68 -3.14,3.77 0,6.48 1.67,10.56 5.02,12.23 3.36,1.67 5.87,4.08 7.55,7.22 1.04,2.51 3.13,4.29 6.28,5.33 3.13,1.05 4.71,2.41 4.71,4.08 0,1.47 2.72,4.4 8.17,8.79 5.44,4.4 9.42,8.21 11.93,11.45 2.51,3.24 4.61,4.86 6.29,4.86 l 1.25,1.26 c 0.42,5.23 2.41,7.84 5.98,7.84 l 3.13,1.89 0.64,2.51 1.87,1.25 h 2.52 l 1.57,1.26 c 0.41,5.22 2.88,9.3 7.38,12.23 4.5,2.93 12.72,11.14 24.66,24.63 11.94,13.5 18.64,22.13 20.1,25.89 1.47,3.76 4.14,8.84 8.02,15.23 3.86,6.36 6.02,12.38 6.43,18.03 -0.41,0.83 -1.04,1.67 -1.87,2.51 l -13.5,-6.58 c 0,0.63 -2.09,1.56 -6.28,2.81 -3.13,-1.87 -5.44,-3.76 -6.9,-5.64 -1.47,-1.88 -2.62,-2.82 -3.45,-2.82 l -4.39,0.62 -13.81,-1.57 c -12.34,-1.05 -21.65,-3.55 -27.92,-7.52 l -12.87,-3.77 h -2.83 c -1.66,0 -4.17,-1.05 -7.52,-3.14 l -7.22,0.63 c -6.69,-3.56 -11.61,-5.34 -14.74,-5.34 -0.43,0 -1.68,0.21 -3.77,0.63 l -32.01,-8.79 c -2.51,-0.82 -8.15,-5.12 -16.94,-12.86 l -2.51,-0.62 c -2.09,0 -4.55,2.34 -7.37,7.05 -2.83,4.71 -4.24,8.94 -4.24,12.71 0,20.71 17.78,32.74 53.34,36.09 l 12.87,5.02 h 0.63 l 3.44,-1.26 h 1.26 c 1.25,0 3.24,0.78 5.96,2.36 2.72,1.56 8.78,3.5 18.2,5.8 l 12.86,3.45 4.08,-0.63 c 2.09,0 4.45,0.83 7.07,2.51 2.61,1.67 6.59,2.88 11.92,3.62 5.33,0.72 9.04,1.5 11.14,2.34 l 5.02,1.26 c 0.83,0 2.56,0.73 5.18,2.2 2.6,1.46 6,2.19 10.19,2.19 0.62,0 2.2,-0.41 4.71,-1.25"
       style="fill:#cc2271;fill-opacity:1;fill-rule:nonzero;stroke:none"
       transform="matrix(0.13333333,0,0,-0.13333333,0,1133.8533)" />
    <path
       id="path21"
       d="m 6230.25,3510.91 5.04,4.39 h 1.88 c 1.46,0 3.66,1.57 6.6,4.71 l 3.14,1.25 c 4.18,6.27 7.85,9.93 10.99,10.98 l 5.03,3.77 c 0.83,0.84 2.04,1.56 3.61,2.19 1.57,0.63 4.09,2.67 7.54,6.13 3.45,3.44 6.22,5.17 8.32,5.17 2.1,0 3.77,-0.21 5.03,-0.62 1.25,2.5 3.76,4.96 7.53,7.36 3.77,2.4 6.82,5.28 9.12,8.64 l 4.08,1.88 c 3.36,1.67 6.33,3.82 8.95,6.44 2.62,2.6 6.03,3.91 10.21,3.91 6.07,0 12.41,-3.09 19,-9.25 6.58,-6.18 9.88,-12.09 9.88,-17.73 l -5.33,-24.47 c -3.57,-18 -7.54,-27.41 -11.92,-28.25 l -1.26,-6.59 c -2.93,-2.09 -4.4,-3.76 -4.4,-5.02 l 1.89,-7.53 c 0,-1.05 -1.16,-2.61 -3.45,-4.7 -0.43,0 -0.64,-0.63 -0.64,-1.88 v -12.87 c 0,-2.3 -1.46,-4.19 -4.38,-5.64 0.41,-0.43 1.04,-0.84 1.88,-1.27 1.25,1.27 4.08,1.89 8.47,1.89 l 5.01,-0.62 6.89,6.89 c 1.47,0.42 3.5,1.41 6.12,2.99 2.61,1.56 7.05,3.6 13.32,6.11 l 41.04,31.39 c 5.65,5.64 9.93,8.46 12.86,8.46 3.13,0 4.69,-1.99 4.69,-5.96 0,-4.6 -0.88,-8.42 -2.66,-11.45 -1.78,-3.04 -3.4,-6.7 -4.87,-10.98 -1.46,-4.29 -3.19,-7.28 -5.17,-8.94 -1.99,-1.68 -3.61,-3.51 -4.86,-5.5 -1.25,-1.99 -4.66,-4.86 -10.2,-8.62 -5.55,-3.77 -10.25,-7.6 -14.12,-11.46 -3.87,-3.87 -7.05,-6.65 -9.56,-8.32 l -13.49,-9.72 -1.88,-3.14 c -0.42,-0.43 -2.36,-1.3 -5.8,-2.67 -3.46,-1.36 -6.55,-3.09 -9.26,-5.18 l -5.65,-3.12 c -1.26,-0.84 -3.29,-1.37 -6.12,-1.58 -2.82,-0.21 -5.28,-1.41 -7.37,-3.61 -2.09,-2.2 -3.76,-3.29 -5.02,-3.29 l -4.71,0.63 -6.27,-1.89 c -3.55,0 -7.9,2.14 -13.02,6.44 -5.12,4.27 -7.68,8.82 -7.68,13.65 v 1.87 l 0.62,4.4 c 0,0.84 -0.62,2.99 -1.88,6.43 -1.26,3.45 -1.89,5.38 -1.89,5.81 l 0.63,4.39 -0.63,1.88 c 0,5.65 0.42,9.2 1.26,10.67 0.83,1.46 1.46,3.5 1.89,6.12 0.41,2.61 0.83,4.76 1.25,6.44 l 1.57,7.84 c 0.83,2.51 1.88,4.18 3.13,5.02 0.43,1.67 1.27,4.5 2.52,8.46 l 1.25,5.66 3.14,4.38 c 1.67,1.68 2.66,3.93 2.98,6.76 0.31,2.81 1.42,5.8 3.29,8.94 1.88,3.13 2.83,5.01 2.83,5.65 0,2.5 -1.26,3.76 -3.77,3.76 -0.84,0 -3.45,-1.67 -7.84,-5.02 l -5.65,1.89 c -0.43,0 -1.58,-1.06 -3.45,-3.15 0,-0.84 -0.95,-1.46 -2.83,-1.87 -1.88,-0.43 -3.66,-2 -5.34,-4.71 l -2.5,-0.63 -4.09,1.88 h -1.26 c -2.09,0 -3.35,-2.3 -3.76,-6.89 -2.3,-3.36 -5.34,-5.55 -9.1,-6.61 l -6.9,-1.87 c -2.31,-0.84 -3.98,-2.73 -5.03,-5.65 -1.05,-2.94 -3.14,-5.6 -6.28,-8 -3.14,-2.41 -5.23,-3.62 -6.27,-3.62 -5.86,0 -8.79,3.25 -8.79,9.73 l 2.51,14.75 z m 135.56,156.88 -1.88,12.24 v 1.88 c 0,9.84 3.34,15.27 10.03,16.32 1.47,0.2 5.86,1.57 13.19,4.07 3.76,-0.82 7.69,-4.12 11.77,-9.88 4.07,-5.75 6.11,-10.83 6.11,-15.22 0,-0.41 -0.31,-1.36 -0.94,-2.81 -0.62,-1.47 -1.05,-4.24 -1.26,-8.32 -0.2,-4.09 -2.24,-7.64 -6.11,-10.67 -3.88,-3.04 -8.01,-4.55 -12.39,-4.55 -2.94,0 -6.65,2.03 -11.15,6.11 -4.5,4.09 -6.95,7.7 -7.37,10.83"
       style="fill:#cc2271;fill-opacity:1;fill-rule:nonzero;stroke:none"
       transform="matrix(0.13333333,0,0,-0.13333333,0,1133.8533)" />
    <path
       id="path22"
       d="m 6467.61,3530.05 6.59,5.33 c 5.01,0.41 7.73,3.03 8.14,7.84 0.43,4.82 3.87,9 10.36,12.55 l 3.76,5.34 c 3.13,3.14 11.7,7.22 25.71,12.24 3.55,2.09 5.96,3.97 7.22,5.65 0.41,0.41 0.82,0.62 1.25,0.62 l 5.02,-1.25 c 2.71,0 6.22,0.72 10.49,2.19 4.29,1.46 8.42,2.21 12.4,2.21 l 13.17,0.62 c 0.83,0 2.56,-0.62 5.17,-1.89 2.61,-1.25 5.8,-1.88 9.57,-1.88 4.59,0 8.83,-2.09 12.69,-6.27 3.87,-4.19 5.8,-8.06 5.8,-11.62 0,-6.48 -3.34,-13.07 -10.02,-19.77 -6.68,-6.69 -12,-10.46 -15.97,-11.28 -3.55,-3.56 -6.26,-5.8 -8.14,-6.75 -1.88,-0.95 -3.82,-2.41 -5.8,-4.4 -1.98,-1.98 -3.6,-2.98 -4.85,-2.98 -0.84,0 -1.47,0.26 -1.88,0.79 -0.42,0.52 -1.04,0.78 -1.88,0.78 -3.34,0 -7,-4.08 -10.96,-12.23 l -5.64,0.63 c -3.55,-2.31 -5.85,-4.82 -6.89,-7.54 -1.04,-2.72 -3.23,-4.08 -6.57,-4.08 -7.72,-7.74 -12.95,-11.61 -15.67,-11.61 -0.41,0 -1.88,0.42 -4.38,1.25 -1.67,-2.09 -2.51,-4.27 -2.51,-6.58 0,-2.51 -1.67,-3.98 -5.01,-4.39 l -4.06,-3.77 -3.14,0.63 -6.27,-6.59 c -3.13,0 -6.36,-1.05 -9.7,-3.14 -0.42,-2.5 -1.05,-5.7 -1.89,-9.57 -0.84,-3.87 -1.25,-6.02 -1.25,-6.43 0,-6.07 5.54,-9.1 16.63,-9.1 l 15.07,2.19 c 3.97,0 7.69,1.05 11.13,3.14 3.46,2.09 7.17,3.14 11.15,3.14 1.26,0 3.14,0.41 5.65,1.25 l 3.13,-1.25 c 1.47,3.14 4.18,5.96 8.16,8.48 3.97,2.5 7.12,3.76 9.42,3.76 l 3.14,1.89 c 0.83,2.5 2.09,4.18 3.77,5.01 l 2.51,2.19 c 1.66,1.68 3.23,2.52 4.7,2.52 h 4.39 l 1.26,0.63 c 2.51,5.43 6.01,8.63 10.51,9.57 4.5,0.93 7.32,2.46 8.47,4.55 1.15,2.09 3.2,3.34 6.13,3.77 2.93,0.41 5.38,1.81 7.37,4.22 1.98,2.41 4.44,4.66 7.37,6.75 2.93,2.09 4.97,3.66 6.12,4.71 1.16,1.04 2.14,1.56 2.99,1.56 1.25,0 1.88,-0.93 1.88,-2.81 0,-1.89 0.42,-2.83 1.26,-2.83 0.83,0 1.25,0.42 1.25,1.26 0,0.83 -0.21,1.88 -0.63,3.13 v 2.2 c 0,3.14 1.67,5.23 5.02,6.28 l 14.12,9.1 c 0.42,4.38 1.62,6.95 3.62,7.68 1.98,0.74 3.49,1.57 4.55,2.52 1.04,0.93 2.19,1.4 3.44,1.4 2.72,0 4.09,-1.56 4.09,-4.7 l -1.58,-8.16 1.58,-8.46 c 0,-1.27 -1,-2.99 -2.99,-5.19 -1.99,-2.2 -3.51,-5.54 -4.55,-10.04 -1.05,-4.5 -2.4,-6.96 -4.08,-7.37 h -1.89 c -3.77,-3.98 -6.75,-6.33 -8.94,-7.06 -2.2,-0.74 -3.94,-2.04 -5.19,-3.92 l -10.67,-12.25 c -2.1,-2.08 -3.88,-3.97 -5.35,-5.64 -1.46,-1.68 -2.61,-2.51 -3.45,-2.51 l -2.51,2.51 c 0,0.41 -0.42,0.63 -1.25,0.63 -2.1,0 -3.41,-1.25 -3.93,-3.77 -0.53,-2.5 -1.63,-4.71 -3.3,-6.59 -6.28,-2.93 -10.37,-5.64 -12.24,-8.16 l -1.89,-0.63 h -5.65 c -2.73,0 -4.6,-2.03 -5.66,-6.11 -1.04,-4.08 -4.03,-6.44 -8.94,-7.07 -4.93,-0.62 -8.43,-1.87 -10.52,-3.76 -0.43,-0.42 -1.37,-0.83 -2.83,-1.26 -1.47,-0.41 -4.4,-2.09 -8.79,-5.02 l -26.38,-9.41 c -2.1,-1.05 -3.46,-1.56 -4.08,-1.56 l -8.8,-1.25 c -1.26,0 -2.51,0.82 -3.77,2.5 -1.25,1.68 -2.09,2.52 -2.51,2.52 l -5.65,-1.89 c -4.19,-1.26 -8.17,-1.88 -11.94,-1.88 -2.09,0 -4.39,0.73 -6.9,2.19 -2.51,1.46 -4.51,2.51 -5.97,3.14 -6.07,0 -10.36,4.7 -12.87,14.12 l -3.77,-0.63 c -0.84,0 -3.66,7.43 -8.47,22.28 -1.27,1.67 -3.26,2.88 -5.97,3.6 -2.72,0.74 -4.08,2.78 -4.08,6.12 0,9.42 2.03,15.74 6.12,18.99 4.08,3.24 6.33,5.69 6.75,7.37 l 4.38,16.32 c 0.83,0.62 1.89,2.71 3.14,6.28 l 7.21,13.17 c 0.83,1.46 2.72,5.13 5.65,10.99 z m 66.35,18.83 -3.76,-1.9 c -0.84,-0.41 -3.29,-2.24 -7.38,-5.48 -4.07,-3.25 -8.05,-5.86 -11.92,-7.85 -3.87,-1.99 -7.84,-7.17 -11.92,-15.53 -4.08,-8.36 -6.12,-13.18 -6.12,-14.44 0,-1.25 0.62,-1.87 1.89,-1.87 l 10.66,4.71 c 3.98,1.87 7.69,4.27 11.14,7.21 3.45,2.92 8.42,6.48 14.91,10.66 l 2.5,2.52 c 0.43,0.84 2.36,2.35 5.81,4.55 3.45,2.19 6.01,4.33 7.69,6.43 l 3.14,1.26 c 3.55,5.65 7.15,9.09 10.82,10.35 3.66,1.25 5.49,2.5 5.49,3.76 0,2.51 -1.99,3.77 -5.96,3.77 -1.68,0 -4.19,-1.04 -7.53,-3.13 h -7.22 c -0.84,0 -3.13,-1.26 -6.9,-3.77 l -5.34,-1.25"
       style="fill:#cc2271;fill-opacity:1;fill-rule:nonzero;stroke:none"
       transform="matrix(0.13333333,0,0,-0.13333333,0,1133.8533)" />
    <path
       id="path23"
       d="m 2016,4725.55 c 6.76,-15.1 6.14,-31.5 8.27,-47.41 -1.64,-3.62 -3.29,-7.24 -4.93,-10.85 -6.69,14.96 -8.51,30.82 -8.79,46.98 1.82,3.76 3.63,7.52 5.45,11.28"
       style="fill:#cc2271;fill-opacity:1;fill-rule:nonzero;stroke:none"
       transform="matrix(0.13333333,0,0,-0.13333333,0,1133.8533)" />
    <path
       id="path24"
       d="m 2385.82,5007.98 c -9.49,-8.47 -21,-11.45 -35.09,-13.66 9.03,10.79 19.64,14.61 30.24,18.45 1.62,-1.59 3.24,-3.2 4.85,-4.79"
       style="fill:#cc2271;fill-opacity:1;fill-rule:nonzero;stroke:none"
       transform="matrix(0.13333333,0,0,-0.13333333,0,1133.8533)" />
    <path
       id="path25"
       d="m 1943.66,4683.6 c -4.16,2.28 -5.28,5.88 -3.9,10.14 0.26,0.84 2.71,1.92 3.37,1.54 4.49,-2.63 7.2,-6.35 5.68,-11.95 -1.71,0.09 -3.43,0.18 -5.15,0.27"
       style="fill:#cc2271;fill-opacity:1;fill-rule:nonzero;stroke:none"
       transform="matrix(0.13333333,0,0,-0.13333333,0,1133.8533)" />
    <path
       id="path26"
       d="m 2025.95,4861.74 c 5.7,3.87 3.5,10.42 5.3,15.61 7.92,-13.03 3.56,-25.13 -2.93,-39.76 -4.79,9.36 -3.6,16.75 -2.37,24.15"
       style="fill:#cc2271;fill-opacity:1;fill-rule:nonzero;stroke:none"
       transform="matrix(0.13333333,0,0,-0.13333333,0,1133.8533)" />
    <path
       id="path27"
       d="m 2165.31,4368.24 c -36,5.57 -57.04,25.67 -64.47,61.19 -2.23,10.65 -6.42,20.94 -10.23,31.2 -16.43,44.17 -21.83,92.52 -47.37,133.09 -14.47,22.99 -21.72,47.17 -23.9,73.57 -2.18,15.8 4,33.17 -8.79,46.98 -3.66,26.79 -6.73,53.68 -11.14,80.35 -3.86,23.38 -8.67,46.77 -29.78,62.09 -3.92,5.25 -8.34,7.87 -13.06,9.06 6.17,-0.76 12.25,-2.16 18.28,-4.25 23.74,-13.25 27.11,-38.5 34.84,-63.84 30.85,27.05 45.36,59.81 49.29,96.35 5.52,51.42 35.14,81.91 79.53,102.26 17.22,7.89 40.92,8.78 37.35,39.15 -1.35,11.38 1.73,98.99 -2.73,111.11 -0.29,0.8 -0.4,1.66 -0.72,2.43 -2.6,6.38 -5.67,13.11 -13.67,12.71 -7.67,-0.38 -7.86,-8.19 -9.38,-13.42 -6.92,-23.92 -19.72,-44.62 -34.18,-64.45 -19.54,-26.79 -44.62,-48.38 -67.93,-71.6 -20.36,-20.27 -30.57,-43.89 -28.8,-72.83 0.3,-4.87 5.03,-11.55 -2.66,-15.43 -11.21,9.04 -22.28,17.97 -33.36,26.9 -0.01,0.16 -0.05,0.3 -0.07,0.46 13.89,20.59 11.59,34.84 -9.68,52.58 -13.56,11.3 -27.07,21.44 -33.93,39.35 -30.25,79.02 -106.69,96.77 -169.58,39.82 -8.28,-7.5 -16.58,-12.7 -27.54,-16.1 -21.58,-6.69 -30.96,-31.57 -15.83,-45.68 25.05,-23.36 16.71,-43.68 1.4,-66.58 -10.65,-15.92 -14.78,-32.57 4.31,-46.37 6.78,13.9 -0.05,31.69 10.95,42.34 4.07,-14.89 -0.37,-29.68 -9.3,-43.39 1.66,-13.38 -10.51,-15.57 -17.8,-21.27 -15.71,-12.27 -34.36,-20.7 -46.89,-37.12 -20.08,-26.33 -18.07,-52.76 5.71,-72.28 3.33,-11.37 -6.66,-16.34 -11.62,-23.56 -16.36,-23.82 -14.45,-44.27 7.99,-63.78 -3.42,16.93 -7.59,32.95 8.63,45.54 0.95,-15.83 7.68,-28.27 15.07,-40.71 6.36,-10.72 8.35,-22.47 -0.44,-33.14 -9.15,-11.1 -20.82,-17.34 -35.65,-14.04 -5.82,1.3 -11.32,4.03 -18.95,6.85 18.72,-23.04 26.29,-25.05 60.24,-17.53 -3.9,-45.7 10.09,-63.81 48.57,-62.88 -33.35,19.87 -37,32.4 -17.5,62.39 3.89,-15.49 10.41,-28.83 23.92,-37.55 1.2,7.45 1.26,14.88 0.84,22.31 2.42,-7.97 5.96,-15.75 10.33,-23.35 21.77,-53.57 24.92,-112.47 47.46,-165.82 5.84,-6.4 10.31,-7.72 14.13,-6.58 -3.77,-2.93 -7.31,-6.13 -10.09,-10.19 -3.97,-3.09 -7.84,-6.33 -11.93,-9.25 -79.3,-56.76 -153.62,-119.17 -216.63,-193.99 -24.78,-29.43 -24.44,-51.96 -1.02,-82.13 8.77,-11.3 19.15,-21.39 29.21,-31.62 55.74,-56.65 111.89,-112.91 167.37,-169.82 61.98,-63.62 104.5,-139.66 138.79,-220.79 3.08,-7.29 4.7,-20.3 14.35,-16.89 13.08,4.62 9.71,-2.33 9.61,-8.64 -0.39,-22.83 -1.22,-45.66 -1.18,-68.48 0.09,-61.72 -19.25,-122.07 -12.52,-184.29 2.64,-24.38 5.77,-49.22 -23.93,-62.34 -7.01,-3.1 -13.56,-12.86 0.57,-18.25 28.85,-10.99 72.5,13.24 72.86,43.77 0.45,36.84 14.17,64.32 40.88,88.54 20.88,18.94 20.21,31.42 -0.34,51.02 -15.5,14.78 -21.05,31.35 -19.55,52.18 2.93,40.61 10.72,80.46 19.41,119.99 18.02,81.97 28.26,162.81 -6.95,243.62 -10.68,24.52 -12.09,52.65 -9.86,79.93 6.48,79.24 11.09,158.53 10.43,238.08 -0.12,13.45 0.66,27.34 8.9,38.94 46.23,65.11 27.05,141.3 -36.55,195.55 -17.35,14.79 -35.85,28.39 -51.95,44.43 -29.23,29.13 -30.83,45.7 -15.3,83.81 7.51,18.43 22.48,34.04 21.88,55.65 1.93,4.02 3.53,1.62 5.15,-0.27 22.88,-93.26 60.01,-180.29 113.1,-260.48 6.45,-9.74 10.89,-20.91 15.54,-31.74 19.34,-45.14 44.97,-68.52 93.96,-84.64 -1.95,16.01 -19.23,21.49 -25.58,36.14 28.15,-7.66 28.41,-7.58 38.69,-41.72 2.34,-7.77 5.61,-13.29 14.04,-12.63 11.49,0.9 4.94,9.92 5.17,14.88 0.78,16.27 0.27,16.3 19.35,14.25 -22.42,17.6 -29,46.4 -57.77,50.85 z m -485.14,436.7 c -2.64,-9.09 3.46,-19.97 -5.29,-27.61 -2.15,27.67 -1.25,53.94 28.55,64.92 -13.12,-12.21 -19.15,-23.1 -23.26,-37.31 z m 172.51,87.3 c 0.8,-3.36 1.5,-6.66 1.98,-9.89 -0.93,4.25 -2.27,8.52 -3.51,12.73 -2.94,10.03 -9.27,10.57 -17.49,5.8 -0.89,-0.24 -1.23,-1.36 -2.48,-0.84 10.23,6.62 17.97,6.85 21.5,-7.8 z m -0.61,-32.62 c -1.91,-3.75 -4.74,-7.33 -8.87,-10.7 -1.13,-0.92 -2.17,-1.92 -3.2,-2.92 2.67,3.14 5.45,6.19 8.4,9.12 1.48,1.46 2.69,2.96 3.67,4.5 z m -105.5,-166.46 c -2.76,3.69 -5.09,7.27 -7,10.76 1.81,-3.1 4.01,-6.22 6.61,-9.36 1.31,-1.57 2.41,-3.11 3.42,-4.65 -1.1,1.08 -2.21,2.16 -3.03,3.25 z m 6.89,-10.98 c 2.11,-6.12 2.12,-12.42 0.33,-19.85 -0.73,-3.03 -1.25,-6.04 -1.6,-9.01 -0.71,9.59 -0.72,19.21 1.27,28.86 z m 4.02,83.44 c -17.85,-13.71 -26.18,-29.01 -23.91,-45.1 -2.7,16.51 5.43,31.21 24.24,45.6 17.85,13.64 38.41,24.19 53.23,41.51 -14.85,-17.62 -35.58,-28.2 -53.56,-42.01 z m 55,43.84 c 1.72,2.11 3.4,4.25 4.93,6.58 2.49,3.4 4.94,6.82 7.4,10.23 -2.91,-4.4 -5.84,-8.79 -9.18,-12.84 -0.99,-1.4 -2.09,-2.65 -3.15,-3.97 z m 32.76,-369.31 c 0.2,0.18 1.65,1.08 1.65,1.08 0,0 -0.7,-0.74 -0.39,-0.55 -3.2,-3.91 -7.19,-7.03 -11.32,-10.03 3.24,3.49 6.36,7.53 10.06,9.5 z m 67.81,-182.41 c 8.46,7.69 18.18,12.87 33.59,17.95 -8.64,-14.1 -18.62,-18.33 -28.67,-22.49 -2.15,-1.29 -4.39,-2.47 -6.44,-3.91 -16.93,-11.84 -44.67,-14.17 -50.94,-32.79 -5.68,-16.9 3.99,-39.21 7.71,-58.98 9.91,-52.76 19.44,-105.61 30.87,-158.05 4.22,-19.38 13.33,-37.7 20.21,-56.5 12.09,-20 8.71,-45.57 28.23,-64.4 10.49,-10.13 3.33,-31.97 -2.38,-48.05 0,-15.73 0,-31.45 0,-47.17 -8.71,15.44 -9.89,31.31 -5.63,47.64 0.04,3.33 -0.36,6.74 0.2,9.98 7.22,41.59 6.72,42.44 -32.94,54.62 -4.65,1.43 -10.16,1.42 -12.84,6.7 -15.31,7.5 -22.96,22.05 -30.78,35.66 -16.36,28.48 -33.55,56.82 -46.4,86.92 -24.29,56.9 -57.78,104.29 -123.65,130.32 77.06,35.95 148.47,69.25 219.86,102.55 z m 68.37,698.53 c -2.56,9.47 -9.01,17.49 -11.82,27.33 5.15,-8.95 10.13,-17.55 11.82,-27.33 z m -54.38,-91.74 c 5.85,1.15 11.55,1.75 17.14,1.86 -5.59,-0.5 -11.38,-1.61 -17.14,-1.86"
       style="fill:#cc2271;fill-opacity:1;fill-rule:nonzero;stroke:none"
       transform="matrix(0.13333333,0,0,-0.13333333,0,1133.8533)" />
    <path
       id="path28"
       d="m 2380.97,5012.77 c 28.16,15.53 55.44,32.37 77.32,56.43 19.17,21.08 32.84,44.94 34.07,74.3 0.34,8.41 1.3,18.17 -8.37,21.87 -8.45,3.23 -13.77,-4.26 -19.13,-9.52 -68.33,-66.91 -150.32,-110.74 -239.74,-142.03 -28.65,-10.02 -57.18,-20.21 -84.07,-34.63 -35.19,-18.87 -56.53,-46.29 -60.67,-87.24 -3.47,-34.14 -12.44,-69.26 -39.54,-90.76 -26.53,-21.05 -32.04,-43.46 -24.77,-73.11 0.2,-0.79 -0.03,-1.68 -0.07,-2.53 0.49,-16.19 -2.21,-32.95 8.27,-47.41 3.52,-15.6 7.03,-31.2 10.57,-46.79 3.52,-15.47 12.88,-27.3 24.19,-37.67 7.75,-7.11 17.09,-12.78 27.24,-5.9 9.54,6.47 6.93,15.92 2.46,24.77 -1.23,2.43 -3.98,5.06 0.19,7.83 18.48,-15.99 36.97,-37.18 63.93,-22 25.58,14.39 6.39,33.45 -5.29,54.37 26.21,-13.38 47.03,-22.92 70.48,-14.67 22.19,7.81 26.05,23.6 9.75,40.19 -6.85,6.96 -15.04,12.61 -28.11,23.38 34.28,-10.78 61.66,-14.93 85.99,5.17 10.28,8.5 22.42,17.83 20.12,32.97 -2.36,15.48 -17.08,19.69 -29.72,24.15 -8.69,3.06 -17.96,4.48 -26.97,6.63 -7.1,1.6 -14.2,3.21 -21.3,4.81 10.85,5.25 21.23,7.26 31.3,0.28 28.89,-2.12 56.91,-0.16 80.38,19.52 10.23,8.59 23.47,18.91 19.18,32.61 -5.02,16.04 -21.85,4.82 -33.19,7.21 -23.75,-7.93 -47.89,-4.32 -72.09,-1.99 16.87,4.01 33.56,8.83 51.21,7.35 12.3,2.91 24.82,5.07 36.83,8.88 31.37,9.94 58.53,26.11 75.23,55.83 4.42,7.86 10.82,17.41 4.21,25.59 -6.5,8.05 -15.38,0.56 -23.14,-1.64 -23.42,-6.63 -45.92,-17.59 -71.25,-15.8 27.43,10.7 55.53,19.37 80.64,34.96 29.52,18.33 52.5,42.29 63.1,76.18 2.2,7.02 4.23,15.58 -2.25,21.48 -7.63,6.97 -14.41,-0.16 -20.31,-3.89 -19.92,-12.61 -39.88,-25.09 -61.83,-33.97 -6.87,-1.73 -13.55,-4.13 -16.05,-4.8 2.21,0.47 7.34,4.09 11.2,9.59 z m -292.18,-298.4 c 11.31,-2.41 21.48,2.44 36.37,7.4 -16.93,-14.62 -16.93,-14.62 -36.37,-7.4 z m 40.59,9.38 c -8.75,0.13 -2.66,6.7 -1.68,10.33 0.4,1.51 3.46,2.3 5.74,3.67 3.72,-6.93 0.1,-14.05 -4.06,-14 z m 68.01,139.84 c 26.8,-25.22 18.49,-42.74 -29.51,-60.05 6.91,-9.09 13.69,-18.3 5.68,-30.14 -8.91,-13.16 -20.79,-18.63 -36.18,-17.73 -5.55,-1.06 -9.64,1.11 -14.43,8.09 7.41,0 13.31,0 19.2,0 30.43,9.77 34.13,22.42 12.69,45.56 18.71,8.7 47.51,6.95 47.69,35.89 0.11,17.57 -18.78,15.45 -35.21,17.44 21.66,10.76 45.2,11.9 59.57,36.92 0.72,-25.86 -16.3,-29.24 -29.5,-35.98 z m 16.5,38.56 c 9.57,8.21 20.12,15.19 29.12,23.79 -4.12,-15.3 -13.32,-23.9 -29.12,-23.79 z m -23.89,36.06 c 24.07,11.21 49.12,19.4 72.76,30.92 -19.03,-21.85 -43.79,-31.35 -72.76,-30.92"
       style="fill:#cc2271;fill-opacity:1;fill-rule:nonzero;stroke:none"
       transform="matrix(0.13333333,0,0,-0.13333333,0,1133.8533)" />
    <path
       id="path29"
       d="m 1901.16,4546.15 c 0,0 98.54,-34.27 105.93,-123.06 7.39,-88.79 -130.8,-115.42 -130.8,-115.42 l 11.98,160.25 12.89,78.23"
       style="fill:#cc2271;fill-opacity:1;fill-rule:nonzero;stroke:none"
       transform="matrix(0.13333333,0,0,-0.13333333,0,1133.8533)" />
  </g>
</svg>
